<?xml version="1.0" encoding="utf-8"?>
<!-- Generator: Adobe Illustrator 16.2.1, SVG Export Plug-In . SVG Version: 6.00 Build 0)  -->
<!DOCTYPE svg PUBLIC "-//W3C//DTD SVG 1.1//EN" "http://www.w3.org/Graphics/SVG/1.1/DTD/svg11.dtd">
<svg version="1.1" id="Layer_1" xmlns="http://www.w3.org/2000/svg" xmlns:xlink="http://www.w3.org/1999/xlink" x="0px" y="0px"
	 width="618.333px" height="371.333px" viewBox="0 0 618.333 371.333" enable-background="new 0 0 618.333 371.333"
	 xml:space="preserve">
<g>
	<g>
		<defs>
			<rect id="SVGID_1_" x="-10.001" y="-42.667" width="661.726" height="511.333"/>
		</defs>
		<clipPath id="SVGID_2_">
			<use xlink:href="#SVGID_1_"  overflow="visible"/>
		</clipPath>
		<g clip-path="url(#SVGID_2_)">
			<defs>
				<rect id="SVGID_3_" x="-10.001" y="-42.667" width="661.726" height="511.333"/>
			</defs>
			<clipPath id="SVGID_4_">
				<use xlink:href="#SVGID_3_"  overflow="visible"/>
			</clipPath>
			<rect x="5.038" y="2.451" clip-path="url(#SVGID_4_)" fill="#E7E6E6" width="468.722" height="52.637"/>
			<rect x="5.038" y="94.357" clip-path="url(#SVGID_4_)" fill="#E7E6E6" width="468.722" height="55.144"/>
			<rect x="5.038" y="188.77" clip-path="url(#SVGID_4_)" fill="#E7E6E6" width="609.088" height="56.814"/>
			<rect x="5.038" y="284.854" clip-path="url(#SVGID_4_)" fill="#E7E6E6" width="609.088" height="55.144"/>
		</g>
		<g clip-path="url(#SVGID_2_)">
			<defs>
				<rect id="SVGID_5_" x="5.874" y="28.352" width="609.088" height="26.736"/>
			</defs>
			<clipPath id="SVGID_6_">
				<use xlink:href="#SVGID_5_"  overflow="visible"/>
			</clipPath>
			<g clip-path="url(#SVGID_6_)">
				<text transform="matrix(1 0 0 1 7.5449 45.062)" font-family="'Calibri'" font-size="10.0261">!&quot;</text>
			</g>
		</g>
		<g clip-path="url(#SVGID_2_)">
			<defs>
				<rect id="SVGID_7_" x="65.195" y="28.352" width="93.578" height="26.736"/>
			</defs>
			<clipPath id="SVGID_8_">
				<use xlink:href="#SVGID_7_"  overflow="visible"/>
			</clipPath>
			<g clip-path="url(#SVGID_8_)">
				<text transform="matrix(1 0 0 1 66.8662 38.3779)" font-family="'Calibri'" font-size="10.0261">#$%&amp;&apos;()*(&apos;%+,</text>
			</g>
			<g clip-path="url(#SVGID_8_)">
				<text transform="matrix(1 0 0 1 66.8662 51.7466)" font-family="'Calibri'" font-size="10.0261">-./0.1</text>
			</g>
		</g>
		<g clip-path="url(#SVGID_2_)">
			<defs>
				<rect id="SVGID_9_" x="5.874" y="28.352" width="609.088" height="26.736"/>
			</defs>
			<clipPath id="SVGID_10_">
				<use xlink:href="#SVGID_9_"  overflow="visible"/>
			</clipPath>
			<g clip-path="url(#SVGID_10_)">
				<text transform="matrix(1 0 0 1 160.4434 45.062)" font-family="'Calibri'" font-size="10.0261">+%&apos;!2,34+546</text>
			</g>
		</g>
		<g clip-path="url(#SVGID_2_)">
			<defs>
				<rect id="SVGID_11_" x="5.874" y="28.352" width="609.088" height="27.572"/>
			</defs>
			<clipPath id="SVGID_12_">
				<use xlink:href="#SVGID_11_"  overflow="visible"/>
			</clipPath>
			<g clip-path="url(#SVGID_12_)">
				<text transform="matrix(1 0 0 1 244.8301 45.062)" font-family="'Calibri'" font-size="10.0261">&amp;&apos;778$9&quot;,3:&apos;7:+&quot;6</text>
			</g>
		</g>
		<g clip-path="url(#SVGID_2_)">
			<defs>
				<rect id="SVGID_13_" x="331.723" y="28.352" width="76.032" height="26.736"/>
			</defs>
			<clipPath id="SVGID_14_">
				<use xlink:href="#SVGID_13_"  overflow="visible"/>
			</clipPath>
			<g clip-path="url(#SVGID_14_)">
				<text transform="matrix(1 0 0 1 333.3945 38.3779)" font-family="'Calibri'" font-size="10.0261">#9+&apos;4+&quot;;4,</text>
			</g>
			<g clip-path="url(#SVGID_14_)">
				<text transform="matrix(1 0 0 1 333.3945 51.7466)" font-family="'Calibri'" font-size="10.0261">-&apos;&lt;4$%&apos;4!#1</text>
			</g>
		</g>
		<g clip-path="url(#SVGID_2_)">
			<defs>
				<rect id="SVGID_15_" x="407.755" y="28.352" width="66.005" height="26.736"/>
			</defs>
			<clipPath id="SVGID_16_">
				<use xlink:href="#SVGID_15_"  overflow="visible"/>
			</clipPath>
			<g clip-path="url(#SVGID_16_)">
				<text transform="matrix(1 0 0 1 409.4258 38.3779)" font-family="'Calibri'" font-size="10.0261">&lt;&amp;&quot;&apos;4+&quot;;4,</text>
			</g>
			<g clip-path="url(#SVGID_16_)">
				<text transform="matrix(1 0 0 1 409.4258 51.7466)" font-family="'Calibri'" font-size="10.0261">-&apos;&lt;4$%&apos;4!#1</text>
			</g>
		</g>
		<g clip-path="url(#SVGID_2_)">
			<defs>
				<rect id="SVGID_17_" x="5.874" y="55.088" width="609.088" height="13.368"/>
			</defs>
			<clipPath id="SVGID_18_">
				<use xlink:href="#SVGID_17_"  overflow="visible"/>
			</clipPath>
			<g clip-path="url(#SVGID_18_)">
				<text transform="matrix(1 0 0 1 7.5449 65.1147)" font-family="'Calibri'" font-size="10.0261">=</text>
			</g>
		</g>
		<g clip-path="url(#SVGID_2_)">
			<defs>
				<rect id="SVGID_19_" x="5.874" y="55.088" width="609.088" height="14.204"/>
			</defs>
			<clipPath id="SVGID_20_">
				<use xlink:href="#SVGID_19_"  overflow="visible"/>
			</clipPath>
			<g clip-path="url(#SVGID_20_)">
				<text transform="matrix(1 0 0 1 66.8662 65.1147)" font-family="'Calibri'" font-size="10.0261">&gt;$%&amp;&apos;(),;</text>
			</g>
		</g>
		<g clip-path="url(#SVGID_2_)">
			<defs>
				<rect id="SVGID_21_" x="5.874" y="55.088" width="609.088" height="14.204"/>
			</defs>
			<clipPath id="SVGID_22_">
				<use xlink:href="#SVGID_21_"  overflow="visible"/>
			</clipPath>
			<g clip-path="url(#SVGID_22_)">
				<text transform="matrix(1 0 0 1 160.4434 65.1147)" fill="#2764B0" font-family="'Calibri'" font-size="10.0261">+%&apos;!2?+%&apos;!2@#$%</text>
			</g>
			<rect x="160.443" y="65.95" clip-path="url(#SVGID_22_)" fill="#2764B0" width="73.525" height="0.836"/>
		</g>
		<g clip-path="url(#SVGID_2_)">
			<defs>
				<rect id="SVGID_23_" x="5.874" y="55.088" width="609.088" height="14.204"/>
			</defs>
			<clipPath id="SVGID_24_">
				<use xlink:href="#SVGID_23_"  overflow="visible"/>
			</clipPath>
			<g clip-path="url(#SVGID_24_)">
				<text transform="matrix(1 0 0 1 244.8301 65.1147)" font-family="'Calibri'" font-size="10.0261">AAA</text>
			</g>
		</g>
		<g clip-path="url(#SVGID_2_)">
			<defs>
				<rect id="SVGID_25_" x="5.874" y="55.088" width="609.088" height="14.204"/>
			</defs>
			<clipPath id="SVGID_26_">
				<use xlink:href="#SVGID_25_"  overflow="visible"/>
			</clipPath>
			<g clip-path="url(#SVGID_26_)">
				<text transform="matrix(1 0 0 1 333.3945 65.1147)" font-family="'Calibri'" font-size="10.0261">=BCDDCDD,;E</text>
			</g>
		</g>
		<g clip-path="url(#SVGID_2_)">
			<defs>
				<rect id="SVGID_27_" x="5.874" y="55.088" width="609.088" height="14.204"/>
			</defs>
			<clipPath id="SVGID_28_">
				<use xlink:href="#SVGID_27_"  overflow="visible"/>
			</clipPath>
			<g clip-path="url(#SVGID_28_)">
				<text transform="matrix(1 0 0 1 409.4258 65.1147)" font-family="'Calibri'" font-size="10.0261">=BCDDCDD,;E</text>
			</g>
		</g>
		<g clip-path="url(#SVGID_2_)">
			<defs>
				<rect id="SVGID_29_" x="5.874" y="68.457" width="609.088" height="13.368"/>
			</defs>
			<clipPath id="SVGID_30_">
				<use xlink:href="#SVGID_29_"  overflow="visible"/>
			</clipPath>
			<g clip-path="url(#SVGID_30_)">
				<text transform="matrix(1 0 0 1 7.5449 78.4829)" font-family="'Calibri'" font-size="10.0261">B</text>
			</g>
		</g>
		<g clip-path="url(#SVGID_2_)">
			<defs>
				<rect id="SVGID_31_" x="5.874" y="68.457" width="609.088" height="14.204"/>
			</defs>
			<clipPath id="SVGID_32_">
				<use xlink:href="#SVGID_31_"  overflow="visible"/>
			</clipPath>
			<g clip-path="url(#SVGID_32_)">
				<text transform="matrix(1 0 0 1 66.8662 78.4829)" font-family="'Calibri'" font-size="10.0261">&gt;$%&amp;&apos;(),F</text>
			</g>
		</g>
		<g clip-path="url(#SVGID_2_)">
			<defs>
				<rect id="SVGID_33_" x="5.874" y="68.457" width="609.088" height="14.204"/>
			</defs>
			<clipPath id="SVGID_34_">
				<use xlink:href="#SVGID_33_"  overflow="visible"/>
			</clipPath>
			<g clip-path="url(#SVGID_34_)">
				<text transform="matrix(1 0 0 1 160.4434 78.4829)" fill="#2764B0" font-family="'Calibri'" font-size="10.0261">+%&apos;!2?+%&apos;!2@#$%</text>
			</g>
			<rect x="160.443" y="79.318" clip-path="url(#SVGID_34_)" fill="#2764B0" width="73.525" height="0.835"/>
		</g>
		<g clip-path="url(#SVGID_2_)">
			<defs>
				<rect id="SVGID_35_" x="5.874" y="68.457" width="609.088" height="14.204"/>
			</defs>
			<clipPath id="SVGID_36_">
				<use xlink:href="#SVGID_35_"  overflow="visible"/>
			</clipPath>
			<g clip-path="url(#SVGID_36_)">
				<text transform="matrix(1 0 0 1 244.8301 78.4829)" font-family="'Calibri'" font-size="10.0261">AAA</text>
			</g>
		</g>
		<g clip-path="url(#SVGID_2_)">
			<defs>
				<rect id="SVGID_37_" x="5.874" y="68.457" width="609.088" height="14.204"/>
			</defs>
			<clipPath id="SVGID_38_">
				<use xlink:href="#SVGID_37_"  overflow="visible"/>
			</clipPath>
			<g clip-path="url(#SVGID_38_)">
				<text transform="matrix(1 0 0 1 333.3945 78.4829)" font-family="'Calibri'" font-size="10.0261">=CDDCDD,;E</text>
			</g>
		</g>
		<g clip-path="url(#SVGID_2_)">
			<defs>
				<rect id="SVGID_39_" x="5.874" y="68.457" width="609.088" height="14.204"/>
			</defs>
			<clipPath id="SVGID_40_">
				<use xlink:href="#SVGID_39_"  overflow="visible"/>
			</clipPath>
			<g clip-path="url(#SVGID_40_)">
				<text transform="matrix(1 0 0 1 409.4258 78.4829)" font-family="'Calibri'" font-size="10.0261">=CDDCDD,;E</text>
			</g>
		</g>
		<g clip-path="url(#SVGID_2_)">
			<defs>
				<rect id="SVGID_41_" x="5.874" y="121.929" width="609.088" height="27.572"/>
			</defs>
			<clipPath id="SVGID_42_">
				<use xlink:href="#SVGID_41_"  overflow="visible"/>
			</clipPath>
			<g clip-path="url(#SVGID_42_)">
				<text transform="matrix(1 0 0 1 7.5449 138.6392)" font-family="'Calibri'" font-size="10.0261">!&quot;</text>
			</g>
		</g>
		<g clip-path="url(#SVGID_2_)">
			<defs>
				<rect id="SVGID_43_" x="65.195" y="121.929" width="93.578" height="27.572"/>
			</defs>
			<clipPath id="SVGID_44_">
				<use xlink:href="#SVGID_43_"  overflow="visible"/>
			</clipPath>
			<g clip-path="url(#SVGID_44_)">
				<text transform="matrix(1 0 0 1 66.8662 131.9556)" font-family="'Calibri'" font-size="10.0261">#$(G+97!$(*+G+(4,</text>
			</g>
			<g clip-path="url(#SVGID_44_)">
				<text transform="matrix(1 0 0 1 66.8662 145.3237)" font-family="'Calibri'" font-size="10.0261">-./0.1</text>
			</g>
		</g>
		<g clip-path="url(#SVGID_2_)">
			<defs>
				<rect id="SVGID_45_" x="158.772" y="121.929" width="84.387" height="27.572"/>
			</defs>
			<clipPath id="SVGID_46_">
				<use xlink:href="#SVGID_45_"  overflow="visible"/>
			</clipPath>
			<g clip-path="url(#SVGID_46_)">
				<text transform="matrix(1 0 0 1 160.4434 131.9556)" font-family="'Calibri'" font-size="10.0261">&lt;7+9*!&quot;,-HIJ/KLM,</text>
			</g>
			<g clip-path="url(#SVGID_46_)">
				<text transform="matrix(1 0 0 1 160.4434 145.3237)" font-family="'Calibri'" font-size="10.0261">N/O1</text>
			</g>
		</g>
		<g clip-path="url(#SVGID_2_)">
			<defs>
				<rect id="SVGID_47_" x="5.874" y="121.929" width="609.088" height="27.572"/>
			</defs>
			<clipPath id="SVGID_48_">
				<use xlink:href="#SVGID_47_"  overflow="visible"/>
			</clipPath>
			<g clip-path="url(#SVGID_48_)">
				<text transform="matrix(1 0 0 1 244.8301 138.6392)" font-family="'Calibri'" font-size="10.0261">&amp;$7!4!$(,-./0.1</text>
			</g>
		</g>
		<g clip-path="url(#SVGID_2_)">
			<defs>
				<rect id="SVGID_49_" x="331.723" y="121.929" width="76.032" height="27.572"/>
			</defs>
			<clipPath id="SVGID_50_">
				<use xlink:href="#SVGID_49_"  overflow="visible"/>
			</clipPath>
			<g clip-path="url(#SVGID_50_)">
				<text transform="matrix(1 0 0 1 333.3945 131.9556)" font-family="'Calibri'" font-size="10.0261">#9+&apos;4+&quot;;4,</text>
			</g>
			<g clip-path="url(#SVGID_50_)">
				<text transform="matrix(1 0 0 1 333.3945 145.3237)" font-family="'Calibri'" font-size="10.0261">-&apos;&lt;4$%&apos;4!#1</text>
			</g>
		</g>
		<g clip-path="url(#SVGID_2_)">
			<defs>
				<rect id="SVGID_51_" x="407.755" y="121.929" width="66.005" height="27.572"/>
			</defs>
			<clipPath id="SVGID_52_">
				<use xlink:href="#SVGID_51_"  overflow="visible"/>
			</clipPath>
			<g clip-path="url(#SVGID_52_)">
				<text transform="matrix(1 0 0 1 409.4258 131.9556)" font-family="'Calibri'" font-size="10.0261">&lt;&amp;&quot;&apos;4+&quot;;4,</text>
			</g>
			<g clip-path="url(#SVGID_52_)">
				<text transform="matrix(1 0 0 1 409.4258 145.3237)" font-family="'Calibri'" font-size="10.0261">-&apos;&lt;4$%&apos;4!#1</text>
			</g>
		</g>
		<g clip-path="url(#SVGID_2_)">
			<defs>
				<rect id="SVGID_53_" x="5.874" y="149.501" width="609.088" height="13.368"/>
			</defs>
			<clipPath id="SVGID_54_">
				<use xlink:href="#SVGID_53_"  overflow="visible"/>
			</clipPath>
			<g clip-path="url(#SVGID_54_)">
				<text transform="matrix(1 0 0 1 7.5449 159.5273)" font-family="'Calibri'" font-size="10.0261">=</text>
			</g>
		</g>
		<g clip-path="url(#SVGID_2_)">
			<defs>
				<rect id="SVGID_55_" x="65.195" y="149.501" width="93.578" height="13.368"/>
			</defs>
			<clipPath id="SVGID_56_">
				<use xlink:href="#SVGID_55_"  overflow="visible"/>
			</clipPath>
			<g clip-path="url(#SVGID_56_)">
				<text transform="matrix(1 0 0 1 66.8662 159.5273)" font-family="'Calibri'" font-size="10.0261">P&lt;74,7!Q(+&quot;R&lt;&amp;,S$9,&apos;,</text>
			</g>
		</g>
		<g clip-path="url(#SVGID_2_)">
			<defs>
				<rect id="SVGID_57_" x="5.874" y="149.501" width="609.088" height="13.368"/>
			</defs>
			<clipPath id="SVGID_58_">
				<use xlink:href="#SVGID_57_"  overflow="visible"/>
			</clipPath>
			<g clip-path="url(#SVGID_58_)">
				<text transform="matrix(1 0 0 1 160.4434 159.5273)" font-family="'Calibri'" font-size="10.0261">=</text>
			</g>
		</g>
		<g clip-path="url(#SVGID_2_)">
			<defs>
				<rect id="SVGID_59_" x="5.874" y="149.501" width="609.088" height="14.204"/>
			</defs>
			<clipPath id="SVGID_60_">
				<use xlink:href="#SVGID_59_"  overflow="visible"/>
			</clipPath>
			<g clip-path="url(#SVGID_60_)">
				<text transform="matrix(1 0 0 1 244.8301 159.5273)" font-family="'Calibri'" font-size="10.0261">2+S4</text>
			</g>
		</g>
		<g clip-path="url(#SVGID_2_)">
			<defs>
				<rect id="SVGID_61_" x="5.874" y="149.501" width="609.088" height="14.204"/>
			</defs>
			<clipPath id="SVGID_62_">
				<use xlink:href="#SVGID_61_"  overflow="visible"/>
			</clipPath>
			<g clip-path="url(#SVGID_62_)">
				<text transform="matrix(1 0 0 1 333.3945 159.5273)" font-family="'Calibri'" font-size="10.0261">=BCDDCDD,;E</text>
			</g>
		</g>
		<g clip-path="url(#SVGID_2_)">
			<defs>
				<rect id="SVGID_63_" x="5.874" y="149.501" width="609.088" height="14.204"/>
			</defs>
			<clipPath id="SVGID_64_">
				<use xlink:href="#SVGID_63_"  overflow="visible"/>
			</clipPath>
			<g clip-path="url(#SVGID_64_)">
				<text transform="matrix(1 0 0 1 409.4258 159.5273)" font-family="'Calibri'" font-size="10.0261">=BCDDCDD,;E</text>
			</g>
		</g>
		<g clip-path="url(#SVGID_2_)">
			<defs>
				<rect id="SVGID_65_" x="5.874" y="162.869" width="609.088" height="13.368"/>
			</defs>
			<clipPath id="SVGID_66_">
				<use xlink:href="#SVGID_65_"  overflow="visible"/>
			</clipPath>
			<g clip-path="url(#SVGID_66_)">
				<text transform="matrix(1 0 0 1 7.5449 172.8955)" font-family="'Calibri'" font-size="10.0261">B</text>
			</g>
		</g>
		<g clip-path="url(#SVGID_2_)">
			<defs>
				<rect id="SVGID_67_" x="65.195" y="162.869" width="93.578" height="13.368"/>
			</defs>
			<clipPath id="SVGID_68_">
				<use xlink:href="#SVGID_67_"  overflow="visible"/>
			</clipPath>
			<g clip-path="url(#SVGID_68_)">
				<text transform="matrix(1 0 0 1 66.8662 172.8955)" font-family="'Calibri'" font-size="10.0261">P&lt;74,7!Q(+&quot;R&lt;&amp;,S$9,&apos;,</text>
			</g>
		</g>
		<g clip-path="url(#SVGID_2_)">
			<defs>
				<rect id="SVGID_69_" x="5.874" y="162.869" width="609.088" height="13.368"/>
			</defs>
			<clipPath id="SVGID_70_">
				<use xlink:href="#SVGID_69_"  overflow="visible"/>
			</clipPath>
			<g clip-path="url(#SVGID_70_)">
				<text transform="matrix(1 0 0 1 160.4434 172.8955)" font-family="'Calibri'" font-size="10.0261">=</text>
			</g>
		</g>
		<g clip-path="url(#SVGID_2_)">
			<defs>
				<rect id="SVGID_71_" x="5.874" y="162.869" width="609.088" height="14.204"/>
			</defs>
			<clipPath id="SVGID_72_">
				<use xlink:href="#SVGID_71_"  overflow="visible"/>
			</clipPath>
			<g clip-path="url(#SVGID_72_)">
				<text transform="matrix(1 0 0 1 244.8301 172.8955)" font-family="'Calibri'" font-size="10.0261">9!Q:4</text>
			</g>
		</g>
		<g clip-path="url(#SVGID_2_)">
			<defs>
				<rect id="SVGID_73_" x="5.874" y="162.869" width="609.088" height="14.204"/>
			</defs>
			<clipPath id="SVGID_74_">
				<use xlink:href="#SVGID_73_"  overflow="visible"/>
			</clipPath>
			<g clip-path="url(#SVGID_74_)">
				<text transform="matrix(1 0 0 1 333.3945 172.8955)" font-family="'Calibri'" font-size="10.0261">=CDDCDD,;E</text>
			</g>
		</g>
		<g clip-path="url(#SVGID_2_)">
			<defs>
				<rect id="SVGID_75_" x="5.874" y="162.869" width="609.088" height="14.204"/>
			</defs>
			<clipPath id="SVGID_76_">
				<use xlink:href="#SVGID_75_"  overflow="visible"/>
			</clipPath>
			<g clip-path="url(#SVGID_76_)">
				<text transform="matrix(1 0 0 1 409.4258 172.8955)" font-family="'Calibri'" font-size="10.0261">=CDDCDD,;E</text>
			</g>
		</g>
		<g clip-path="url(#SVGID_2_)">
			<defs>
				<rect id="SVGID_77_" x="5.874" y="218.013" width="609.088" height="27.571"/>
			</defs>
			<clipPath id="SVGID_78_">
				<use xlink:href="#SVGID_77_"  overflow="visible"/>
			</clipPath>
			<g clip-path="url(#SVGID_78_)">
				<text transform="matrix(1 0 0 1 7.5449 234.7231)" font-family="'Calibri'" font-size="10.0261">!&quot;</text>
			</g>
		</g>
		<g clip-path="url(#SVGID_2_)">
			<defs>
				<rect id="SVGID_79_" x="5.874" y="218.013" width="609.088" height="28.407"/>
			</defs>
			<clipPath id="SVGID_80_">
				<use xlink:href="#SVGID_79_"  overflow="visible"/>
			</clipPath>
			<g clip-path="url(#SVGID_80_)">
				<text transform="matrix(1 0 0 1 66.8662 234.7231)" font-family="'Calibri'" font-size="10.0261">+%&apos;!2,-./0.1</text>
			</g>
		</g>
		<g clip-path="url(#SVGID_2_)">
			<defs>
				<rect id="SVGID_81_" x="158.772" y="218.013" width="84.387" height="27.571"/>
			</defs>
			<clipPath id="SVGID_82_">
				<use xlink:href="#SVGID_81_"  overflow="visible"/>
			</clipPath>
			<g clip-path="url(#SVGID_82_)">
				<text transform="matrix(1 0 0 1 160.4434 228.0396)" font-family="'Calibri'" font-size="10.0261">#$%&amp;&apos;()*(&apos;%+,</text>
			</g>
			<g clip-path="url(#SVGID_82_)">
				<text transform="matrix(1 0 0 1 160.4434 241.4077)" font-family="'Calibri'" font-size="10.0261">-./0.1</text>
			</g>
		</g>
		<g clip-path="url(#SVGID_2_)">
			<defs>
				<rect id="SVGID_83_" x="5.874" y="218.013" width="609.088" height="27.571"/>
			</defs>
			<clipPath id="SVGID_84_">
				<use xlink:href="#SVGID_83_"  overflow="visible"/>
			</clipPath>
			<g clip-path="url(#SVGID_84_)">
				<text transform="matrix(1 0 0 1 244.8301 234.7231)" font-family="'Calibri'" font-size="10.0261">S!974*(&apos;%+,-./0.1</text>
			</g>
		</g>
		<g clip-path="url(#SVGID_2_)">
			<defs>
				<rect id="SVGID_85_" x="5.874" y="218.013" width="609.088" height="28.407"/>
			</defs>
			<clipPath id="SVGID_86_">
				<use xlink:href="#SVGID_85_"  overflow="visible"/>
			</clipPath>
			<g clip-path="url(#SVGID_86_)">
				<text transform="matrix(1 0 0 1 333.3945 234.7231)" font-family="'Calibri'" font-size="10.0261">2&apos;74*(&apos;%+,-./0.1</text>
			</g>
		</g>
		<g clip-path="url(#SVGID_2_)">
			<defs>
				<rect id="SVGID_87_" x="5.874" y="218.013" width="609.088" height="28.407"/>
			</defs>
			<clipPath id="SVGID_88_">
				<use xlink:href="#SVGID_87_"  overflow="visible"/>
			</clipPath>
			<g clip-path="url(#SVGID_88_)">
				<text transform="matrix(1 0 0 1 409.4258 234.7231)" font-family="'Calibri'" font-size="10.0261">2$Q$,-./0.1</text>
			</g>
		</g>
		<g clip-path="url(#SVGID_2_)">
			<defs>
				<rect id="SVGID_89_" x="473.76" y="218.013" width="72.689" height="27.571"/>
			</defs>
			<clipPath id="SVGID_90_">
				<use xlink:href="#SVGID_89_"  overflow="visible"/>
			</clipPath>
			<g clip-path="url(#SVGID_90_)">
				<text transform="matrix(1 0 0 1 475.4316 228.0396)" font-family="'Calibri'" font-size="10.0261">#9+&apos;4+&quot;;4,</text>
			</g>
			<g clip-path="url(#SVGID_90_)">
				<text transform="matrix(1 0 0 1 475.4316 241.4077)" font-family="'Calibri'" font-size="10.0261">-&apos;&lt;4$%&apos;4!#1</text>
			</g>
		</g>
		<g clip-path="url(#SVGID_2_)">
			<defs>
				<rect id="SVGID_91_" x="546.449" y="218.013" width="67.677" height="27.571"/>
			</defs>
			<clipPath id="SVGID_92_">
				<use xlink:href="#SVGID_91_"  overflow="visible"/>
			</clipPath>
			<g clip-path="url(#SVGID_92_)">
				<text transform="matrix(1 0 0 1 548.1211 228.0396)" font-family="'Calibri'" font-size="10.0261">&lt;&amp;&quot;&apos;4+&quot;;4,</text>
			</g>
			<g clip-path="url(#SVGID_92_)">
				<text transform="matrix(1 0 0 1 548.1211 241.4077)" font-family="'Calibri'" font-size="10.0261">-&apos;&lt;4$%&apos;4!#1</text>
			</g>
		</g>
		<g clip-path="url(#SVGID_2_)">
			<defs>
				<rect id="SVGID_93_" x="5.874" y="245.584" width="609.088" height="13.368"/>
			</defs>
			<clipPath id="SVGID_94_">
				<use xlink:href="#SVGID_93_"  overflow="visible"/>
			</clipPath>
			<g clip-path="url(#SVGID_94_)">
				<text transform="matrix(1 0 0 1 7.5449 255.6108)" font-family="'Calibri'" font-size="10.0261">=</text>
			</g>
		</g>
		<g clip-path="url(#SVGID_2_)">
			<defs>
				<rect id="SVGID_95_" x="5.874" y="245.584" width="609.088" height="14.204"/>
			</defs>
			<clipPath id="SVGID_96_">
				<use xlink:href="#SVGID_95_"  overflow="visible"/>
			</clipPath>
			<g clip-path="url(#SVGID_96_)">
				<text transform="matrix(1 0 0 1 66.8662 255.6108)" fill="#2764B0" font-family="'Calibri'" font-size="10.0261">4+74?#$%&amp;&apos;()@#$%</text>
			</g>
			<rect x="66.866" y="256.447" clip-path="url(#SVGID_96_)" fill="#2764B0" width="81.88" height="0.835"/>
		</g>
		<g clip-path="url(#SVGID_2_)">
			<defs>
				<rect id="SVGID_97_" x="5.874" y="245.584" width="609.088" height="14.204"/>
			</defs>
			<clipPath id="SVGID_98_">
				<use xlink:href="#SVGID_97_"  overflow="visible"/>
			</clipPath>
			<g clip-path="url(#SVGID_98_)">
				<text transform="matrix(1 0 0 1 160.4434 255.6108)" font-family="'Calibri'" font-size="10.0261">&gt;$%&amp;&apos;(),;</text>
			</g>
		</g>
		<g clip-path="url(#SVGID_2_)">
			<defs>
				<rect id="SVGID_99_" x="5.874" y="245.584" width="609.088" height="14.204"/>
			</defs>
			<clipPath id="SVGID_100_">
				<use xlink:href="#SVGID_99_"  overflow="visible"/>
			</clipPath>
			<g clip-path="url(#SVGID_100_)">
				<text transform="matrix(1 0 0 1 244.8301 255.6108)" font-family="'Calibri'" font-size="10.0261">000</text>
			</g>
		</g>
		<g clip-path="url(#SVGID_2_)">
			<defs>
				<rect id="SVGID_101_" x="5.874" y="245.584" width="609.088" height="14.204"/>
			</defs>
			<clipPath id="SVGID_102_">
				<use xlink:href="#SVGID_101_"  overflow="visible"/>
			</clipPath>
			<g clip-path="url(#SVGID_102_)">
				<text transform="matrix(1 0 0 1 333.3945 255.6108)" font-family="'Calibri'" font-size="10.0261">000</text>
			</g>
		</g>
		<g clip-path="url(#SVGID_2_)">
			<defs>
				<rect id="SVGID_103_" x="5.874" y="245.584" width="609.088" height="14.204"/>
			</defs>
			<clipPath id="SVGID_104_">
				<use xlink:href="#SVGID_103_"  overflow="visible"/>
			</clipPath>
			<g clip-path="url(#SVGID_104_)">
				<text transform="matrix(1 0 0 1 409.4258 255.6108)" fill="#2764B0" font-family="'Calibri'" font-size="10.0261">2$Q$@#$%</text>
			</g>
			<rect x="409.426" y="256.447" clip-path="url(#SVGID_104_)" fill="#2764B0" width="37.598" height="0.835"/>
		</g>
		<g clip-path="url(#SVGID_2_)">
			<defs>
				<rect id="SVGID_105_" x="5.874" y="245.584" width="609.088" height="14.204"/>
			</defs>
			<clipPath id="SVGID_106_">
				<use xlink:href="#SVGID_105_"  overflow="visible"/>
			</clipPath>
			<g clip-path="url(#SVGID_106_)">
				<text transform="matrix(1 0 0 1 475.4316 255.6108)" font-family="'Calibri'" font-size="10.0261">=BCDDCDD,;E</text>
			</g>
		</g>
		<g clip-path="url(#SVGID_2_)">
			<defs>
				<rect id="SVGID_107_" x="5.874" y="245.584" width="609.088" height="14.204"/>
			</defs>
			<clipPath id="SVGID_108_">
				<use xlink:href="#SVGID_107_"  overflow="visible"/>
			</clipPath>
			<g clip-path="url(#SVGID_108_)">
				<text transform="matrix(1 0 0 1 548.1211 255.6108)" font-family="'Calibri'" font-size="10.0261">=BCDDCDD,;E</text>
			</g>
		</g>
		<g clip-path="url(#SVGID_2_)">
			<defs>
				<rect id="SVGID_109_" x="5.874" y="258.953" width="609.088" height="13.369"/>
			</defs>
			<clipPath id="SVGID_110_">
				<use xlink:href="#SVGID_109_"  overflow="visible"/>
			</clipPath>
			<g clip-path="url(#SVGID_110_)">
				<text transform="matrix(1 0 0 1 7.5449 268.979)" font-family="'Calibri'" font-size="10.0261">T</text>
			</g>
		</g>
		<g clip-path="url(#SVGID_2_)">
			<defs>
				<rect id="SVGID_111_" x="5.874" y="258.953" width="609.088" height="14.204"/>
			</defs>
			<clipPath id="SVGID_112_">
				<use xlink:href="#SVGID_111_"  overflow="visible"/>
			</clipPath>
			<g clip-path="url(#SVGID_112_)">
				<text transform="matrix(1 0 0 1 66.8662 268.979)" fill="#2764B0" font-family="'Calibri'" font-size="10.0261">4+74?#$%&amp;&apos;()@#$%</text>
			</g>
			<rect x="66.866" y="269.815" clip-path="url(#SVGID_112_)" fill="#2764B0" width="81.88" height="0.835"/>
		</g>
		<g clip-path="url(#SVGID_2_)">
			<defs>
				<rect id="SVGID_113_" x="5.874" y="258.953" width="609.088" height="14.204"/>
			</defs>
			<clipPath id="SVGID_114_">
				<use xlink:href="#SVGID_113_"  overflow="visible"/>
			</clipPath>
			<g clip-path="url(#SVGID_114_)">
				<text transform="matrix(1 0 0 1 160.4434 268.979)" font-family="'Calibri'" font-size="10.0261">-1</text>
			</g>
		</g>
		<g clip-path="url(#SVGID_2_)">
			<defs>
				<rect id="SVGID_115_" x="5.874" y="258.953" width="609.088" height="14.204"/>
			</defs>
			<clipPath id="SVGID_116_">
				<use xlink:href="#SVGID_115_"  overflow="visible"/>
			</clipPath>
			<g clip-path="url(#SVGID_116_)">
				<text transform="matrix(1 0 0 1 244.8301 268.979)" font-family="'Calibri'" font-size="10.0261">-1</text>
			</g>
		</g>
		<g clip-path="url(#SVGID_2_)">
			<defs>
				<rect id="SVGID_117_" x="5.874" y="258.953" width="609.088" height="14.204"/>
			</defs>
			<clipPath id="SVGID_118_">
				<use xlink:href="#SVGID_117_"  overflow="visible"/>
			</clipPath>
			<g clip-path="url(#SVGID_118_)">
				<text transform="matrix(1 0 0 1 333.3945 268.979)" font-family="'Calibri'" font-size="10.0261">-1</text>
			</g>
		</g>
		<g clip-path="url(#SVGID_2_)">
			<defs>
				<rect id="SVGID_119_" x="5.874" y="258.953" width="609.088" height="14.204"/>
			</defs>
			<clipPath id="SVGID_120_">
				<use xlink:href="#SVGID_119_"  overflow="visible"/>
			</clipPath>
			<g clip-path="url(#SVGID_120_)">
				<text transform="matrix(1 0 0 1 409.4258 268.979)" font-family="'Calibri'" font-size="10.0261">-1</text>
			</g>
		</g>
		<g clip-path="url(#SVGID_2_)">
			<defs>
				<rect id="SVGID_121_" x="5.874" y="258.953" width="609.088" height="14.204"/>
			</defs>
			<clipPath id="SVGID_122_">
				<use xlink:href="#SVGID_121_"  overflow="visible"/>
			</clipPath>
			<g clip-path="url(#SVGID_122_)">
				<text transform="matrix(1 0 0 1 475.4316 268.979)" font-family="'Calibri'" font-size="10.0261">TCDDCDD,;E</text>
			</g>
		</g>
		<g clip-path="url(#SVGID_2_)">
			<defs>
				<rect id="SVGID_123_" x="5.874" y="258.953" width="609.088" height="14.204"/>
			</defs>
			<clipPath id="SVGID_124_">
				<use xlink:href="#SVGID_123_"  overflow="visible"/>
			</clipPath>
			<g clip-path="url(#SVGID_124_)">
				<text transform="matrix(1 0 0 1 548.1211 268.979)" font-family="'Calibri'" font-size="10.0261">=CDDCDD,;E</text>
			</g>
		</g>
		<g clip-path="url(#SVGID_2_)">
			<defs>
				<rect id="SVGID_125_" x="5.874" y="313.261" width="609.088" height="26.736"/>
			</defs>
			<clipPath id="SVGID_126_">
				<use xlink:href="#SVGID_125_"  overflow="visible"/>
			</clipPath>
			<g clip-path="url(#SVGID_126_)">
				<text transform="matrix(1 0 0 1 7.5449 329.9712)" font-family="'Calibri'" font-size="10.0261">!&quot;</text>
			</g>
		</g>
		<g clip-path="url(#SVGID_2_)">
			<defs>
				<rect id="SVGID_127_" x="5.874" y="313.261" width="609.088" height="27.572"/>
			</defs>
			<clipPath id="SVGID_128_">
				<use xlink:href="#SVGID_127_"  overflow="visible"/>
			</clipPath>
			<g clip-path="url(#SVGID_128_)">
				<text transform="matrix(1 0 0 1 66.8662 329.9712)" font-family="'Calibri'" font-size="10.0261">+G+(4,-./0.1</text>
			</g>
		</g>
		<g clip-path="url(#SVGID_2_)">
			<defs>
				<rect id="SVGID_129_" x="5.874" y="313.261" width="609.088" height="27.572"/>
			</defs>
			<clipPath id="SVGID_130_">
				<use xlink:href="#SVGID_129_"  overflow="visible"/>
			</clipPath>
			<g clip-path="url(#SVGID_130_)">
				<text transform="matrix(1 0 0 1 160.4434 329.9712)" font-family="'Calibri'" font-size="10.0261">&amp;9$&amp;7,-./0.1</text>
			</g>
		</g>
		<g clip-path="url(#SVGID_2_)">
			<defs>
				<rect id="SVGID_131_" x="243.159" y="313.261" width="88.564" height="26.736"/>
			</defs>
			<clipPath id="SVGID_132_">
				<use xlink:href="#SVGID_131_"  overflow="visible"/>
			</clipPath>
			<g clip-path="url(#SVGID_132_)">
				<text transform="matrix(1 0 0 1 244.8301 323.2876)" font-family="'Calibri'" font-size="10.0261">#$(G+97!$(*+G+(4*!</text>
			</g>
			<g clip-path="url(#SVGID_132_)">
				<text transform="matrix(1 0 0 1 244.8301 336.6558)" font-family="'Calibri'" font-size="10.0261">&quot;,-HIJ/KLM,N/O1</text>
			</g>
		</g>
		<g clip-path="url(#SVGID_2_)">
			<defs>
				<rect id="SVGID_133_" x="331.723" y="313.261" width="76.032" height="26.736"/>
			</defs>
			<clipPath id="SVGID_134_">
				<use xlink:href="#SVGID_133_"  overflow="visible"/>
			</clipPath>
			<g clip-path="url(#SVGID_134_)">
				<text transform="matrix(1 0 0 1 333.3945 323.2876)" font-family="'Calibri'" font-size="10.0261">&lt;7+9*!&quot;,-HIJ/KLM,</text>
			</g>
			<g clip-path="url(#SVGID_134_)">
				<text transform="matrix(1 0 0 1 333.3945 336.6558)" font-family="'Calibri'" font-size="10.0261">N/O1</text>
			</g>
		</g>
		<g clip-path="url(#SVGID_2_)">
			<defs>
				<rect id="SVGID_135_" x="407.755" y="313.261" width="66.005" height="26.736"/>
			</defs>
			<clipPath id="SVGID_136_">
				<use xlink:href="#SVGID_135_"  overflow="visible"/>
			</clipPath>
			<g clip-path="url(#SVGID_136_)">
				<text transform="matrix(1 0 0 1 409.4258 323.2876)" font-family="'Calibri'" font-size="10.0261">#&lt;74$%+9*!&quot;,</text>
			</g>
			<g clip-path="url(#SVGID_136_)">
				<text transform="matrix(1 0 0 1 409.4258 336.6558)" font-family="'Calibri'" font-size="10.0261">-HIJ/KLM,N/O1</text>
			</g>
		</g>
		<g clip-path="url(#SVGID_2_)">
			<defs>
				<rect id="SVGID_137_" x="473.76" y="313.261" width="72.689" height="26.736"/>
			</defs>
			<clipPath id="SVGID_138_">
				<use xlink:href="#SVGID_137_"  overflow="visible"/>
			</clipPath>
			<g clip-path="url(#SVGID_138_)">
				<text transform="matrix(1 0 0 1 475.4316 323.2876)" font-family="'Calibri'" font-size="10.0261">#9+&apos;4+&quot;;4,</text>
			</g>
			<g clip-path="url(#SVGID_138_)">
				<text transform="matrix(1 0 0 1 475.4316 336.6558)" font-family="'Calibri'" font-size="10.0261">-&apos;&lt;4$%&apos;4!#1</text>
			</g>
		</g>
		<g clip-path="url(#SVGID_2_)">
			<defs>
				<rect id="SVGID_139_" x="546.449" y="313.261" width="67.677" height="26.736"/>
			</defs>
			<clipPath id="SVGID_140_">
				<use xlink:href="#SVGID_139_"  overflow="visible"/>
			</clipPath>
			<g clip-path="url(#SVGID_140_)">
				<text transform="matrix(1 0 0 1 548.1211 323.2876)" font-family="'Calibri'" font-size="10.0261">&lt;&amp;&quot;&apos;4+&quot;;4,</text>
			</g>
			<g clip-path="url(#SVGID_140_)">
				<text transform="matrix(1 0 0 1 548.1211 336.6558)" font-family="'Calibri'" font-size="10.0261">-&apos;&lt;4$%&apos;4!#1</text>
			</g>
		</g>
		<g clip-path="url(#SVGID_2_)">
			<defs>
				<rect id="SVGID_141_" x="5.874" y="339.998" width="609.088" height="13.368"/>
			</defs>
			<clipPath id="SVGID_142_">
				<use xlink:href="#SVGID_141_"  overflow="visible"/>
			</clipPath>
			<g clip-path="url(#SVGID_142_)">
				<text transform="matrix(1 0 0 1 7.5449 350.0239)" font-family="'Calibri'" font-size="10.0261">=</text>
			</g>
		</g>
		<g clip-path="url(#SVGID_2_)">
			<defs>
				<rect id="SVGID_143_" x="5.874" y="339.998" width="609.088" height="14.204"/>
			</defs>
			<clipPath id="SVGID_144_">
				<use xlink:href="#SVGID_143_"  overflow="visible"/>
			</clipPath>
			<g clip-path="url(#SVGID_144_)">
				<text transform="matrix(1 0 0 1 66.8662 350.0239)" font-family="'Calibri'" font-size="10.0261">#$(G+97!$(</text>
			</g>
		</g>
		<g clip-path="url(#SVGID_2_)">
			<defs>
				<rect id="SVGID_145_" x="5.874" y="339.998" width="609.088" height="14.204"/>
			</defs>
			<clipPath id="SVGID_146_">
				<use xlink:href="#SVGID_145_"  overflow="visible"/>
			</clipPath>
			<g clip-path="url(#SVGID_146_)">
				<text transform="matrix(1 0 0 1 244.8301 350.0239)" font-family="'Calibri'" font-size="10.0261">=</text>
			</g>
		</g>
		<g clip-path="url(#SVGID_2_)">
			<defs>
				<rect id="SVGID_147_" x="5.874" y="339.998" width="609.088" height="14.204"/>
			</defs>
			<clipPath id="SVGID_148_">
				<use xlink:href="#SVGID_147_"  overflow="visible"/>
			</clipPath>
			<g clip-path="url(#SVGID_148_)">
				<text transform="matrix(1 0 0 1 333.3945 350.0239)" font-family="'Calibri'" font-size="10.0261">=</text>
			</g>
		</g>
		<g clip-path="url(#SVGID_2_)">
			<defs>
				<rect id="SVGID_149_" x="5.874" y="339.998" width="609.088" height="14.204"/>
			</defs>
			<clipPath id="SVGID_150_">
				<use xlink:href="#SVGID_149_"  overflow="visible"/>
			</clipPath>
			<g clip-path="url(#SVGID_150_)">
				<text transform="matrix(1 0 0 1 409.4258 350.0239)" font-family="'Calibri'" font-size="10.0261">=</text>
			</g>
		</g>
		<g clip-path="url(#SVGID_2_)">
			<defs>
				<rect id="SVGID_151_" x="5.874" y="339.998" width="609.088" height="14.204"/>
			</defs>
			<clipPath id="SVGID_152_">
				<use xlink:href="#SVGID_151_"  overflow="visible"/>
			</clipPath>
			<g clip-path="url(#SVGID_152_)">
				<text transform="matrix(1 0 0 1 475.4316 350.0239)" font-family="'Calibri'" font-size="10.0261">DCDD</text>
			</g>
		</g>
		<g clip-path="url(#SVGID_2_)">
			<defs>
				<rect id="SVGID_153_" x="5.874" y="339.998" width="609.088" height="14.204"/>
			</defs>
			<clipPath id="SVGID_154_">
				<use xlink:href="#SVGID_153_"  overflow="visible"/>
			</clipPath>
			<g clip-path="url(#SVGID_154_)">
				<text transform="matrix(1 0 0 1 548.1211 350.0239)" font-family="'Calibri'" font-size="10.0261">=BCDDCDD,;E</text>
			</g>
		</g>
		<g clip-path="url(#SVGID_2_)">
			<defs>
				<rect id="SVGID_155_" x="5.874" y="353.366" width="609.088" height="13.368"/>
			</defs>
			<clipPath id="SVGID_156_">
				<use xlink:href="#SVGID_155_"  overflow="visible"/>
			</clipPath>
			<g clip-path="url(#SVGID_156_)">
				<text transform="matrix(1 0 0 1 7.5449 363.3921)" font-family="'Calibri'" font-size="10.0261">B</text>
			</g>
		</g>
		<g clip-path="url(#SVGID_2_)">
			<defs>
				<rect id="SVGID_157_" x="5.874" y="353.366" width="609.088" height="14.204"/>
			</defs>
			<clipPath id="SVGID_158_">
				<use xlink:href="#SVGID_157_"  overflow="visible"/>
			</clipPath>
			<g clip-path="url(#SVGID_158_)">
				<text transform="matrix(1 0 0 1 66.8662 363.3921)" font-family="'Calibri'" font-size="10.0261">G!+8</text>
			</g>
		</g>
		<g clip-path="url(#SVGID_2_)">
			<defs>
				<rect id="SVGID_159_" x="5.874" y="353.366" width="609.088" height="14.204"/>
			</defs>
			<clipPath id="SVGID_160_">
				<use xlink:href="#SVGID_159_"  overflow="visible"/>
			</clipPath>
			<g clip-path="url(#SVGID_160_)">
				<text transform="matrix(1 0 0 1 160.4434 363.3921)" font-family="'Calibri'" font-size="10.0261">U%+77&apos;Q+,!&quot;V</text>
			</g>
		</g>
		<g clip-path="url(#SVGID_2_)">
			<defs>
				<rect id="SVGID_161_" x="5.874" y="353.366" width="609.088" height="14.204"/>
			</defs>
			<clipPath id="SVGID_162_">
				<use xlink:href="#SVGID_161_"  overflow="visible"/>
			</clipPath>
			<g clip-path="url(#SVGID_162_)">
				<text transform="matrix(1 0 0 1 244.8301 363.3921)" font-family="'Calibri'" font-size="10.0261">B</text>
			</g>
		</g>
		<g clip-path="url(#SVGID_2_)">
			<defs>
				<rect id="SVGID_163_" x="5.874" y="353.366" width="609.088" height="14.204"/>
			</defs>
			<clipPath id="SVGID_164_">
				<use xlink:href="#SVGID_163_"  overflow="visible"/>
			</clipPath>
			<g clip-path="url(#SVGID_164_)">
				<text transform="matrix(1 0 0 1 333.3945 363.3921)" font-family="'Calibri'" font-size="10.0261">B</text>
			</g>
		</g>
		<g clip-path="url(#SVGID_2_)">
			<defs>
				<rect id="SVGID_165_" x="5.874" y="353.366" width="609.088" height="14.204"/>
			</defs>
			<clipPath id="SVGID_166_">
				<use xlink:href="#SVGID_165_"  overflow="visible"/>
			</clipPath>
			<g clip-path="url(#SVGID_166_)">
				<text transform="matrix(1 0 0 1 409.4258 363.3921)" font-family="'Calibri'" font-size="10.0261">B</text>
			</g>
		</g>
		<g clip-path="url(#SVGID_2_)">
			<defs>
				<rect id="SVGID_167_" x="5.874" y="353.366" width="609.088" height="14.204"/>
			</defs>
			<clipPath id="SVGID_168_">
				<use xlink:href="#SVGID_167_"  overflow="visible"/>
			</clipPath>
			<g clip-path="url(#SVGID_168_)">
				<text transform="matrix(1 0 0 1 475.4316 363.3921)" font-family="'Calibri'" font-size="10.0261">=CDD</text>
			</g>
		</g>
		<g clip-path="url(#SVGID_2_)">
			<defs>
				<rect id="SVGID_169_" x="5.874" y="353.366" width="609.088" height="14.204"/>
			</defs>
			<clipPath id="SVGID_170_">
				<use xlink:href="#SVGID_169_"  overflow="visible"/>
			</clipPath>
			<g clip-path="url(#SVGID_170_)">
				<text transform="matrix(1 0 0 1 548.1211 363.3921)" font-family="'Calibri'" font-size="10.0261">=CDDCDD,;E</text>
			</g>
		</g>
		<g clip-path="url(#SVGID_2_)">
			<defs>
				<rect id="SVGID_171_" x="5.874" y="3.287" width="467.886" height="25.065"/>
			</defs>
			<clipPath id="SVGID_172_">
				<use xlink:href="#SVGID_171_"  overflow="visible"/>
			</clipPath>
			<g clip-path="url(#SVGID_172_)">
				<text transform="matrix(1 0 0 1 7.5449 18.3257)" font-family="'Calibri-Bold'" font-size="10.0261">!&quot;#$%&amp;&apos;()#</text>
			</g>
		</g>
		<g clip-path="url(#SVGID_2_)">
			<defs>
				<rect id="SVGID_173_" x="5.874" y="95.193" width="467.886" height="26.736"/>
			</defs>
			<clipPath id="SVGID_174_">
				<use xlink:href="#SVGID_173_"  overflow="visible"/>
			</clipPath>
			<g clip-path="url(#SVGID_174_)">
				<text transform="matrix(1 0 0 1 7.5449 111.0679)" font-family="'Calibri-Bold'" font-size="10.0261">*+,-#$&quot;.+,%/-#,0&quot;%&amp;&apos;()#</text>
			</g>
		</g>
		<g clip-path="url(#SVGID_2_)">
			<defs>
				<rect id="SVGID_175_" x="5.874" y="189.605" width="608.252" height="28.408"/>
			</defs>
			<clipPath id="SVGID_176_">
				<use xlink:href="#SVGID_175_"  overflow="visible"/>
			</clipPath>
			<g clip-path="url(#SVGID_176_)">
				<text transform="matrix(1 0 0 1 7.5449 206.3159)" font-family="'Calibri-Bold'" font-size="10.0261">*1&quot;0+2#$&quot;%&amp;&apos;()#</text>
			</g>
		</g>
		<g clip-path="url(#SVGID_2_)">
			<defs>
				<rect id="SVGID_177_" x="5.874" y="285.69" width="608.252" height="27.571"/>
			</defs>
			<clipPath id="SVGID_178_">
				<use xlink:href="#SVGID_177_"  overflow="visible"/>
			</clipPath>
			<g clip-path="url(#SVGID_178_)">
				<text transform="matrix(1 0 0 1 7.5449 302.3999)" font-family="'Calibri-Bold'" font-size="10.0261">*1&quot;0+2#$%340.-.0.#&quot;%&amp;&apos;()#</text>
			</g>
		</g>
		<g clip-path="url(#SVGID_2_)">
			<defs>
				<rect id="SVGID_179_" x="-10.001" y="-42.667" width="661.726" height="511.333"/>
			</defs>
			<clipPath id="SVGID_180_">
				<use xlink:href="#SVGID_179_"  overflow="visible"/>
			</clipPath>
			<rect x="5.038" y="2.451" clip-path="url(#SVGID_180_)" width="0.835" height="79.374"/>
			<rect x="472.925" y="3.287" clip-path="url(#SVGID_180_)" width="0.835" height="78.538"/>
			<rect x="64.359" y="28.352" clip-path="url(#SVGID_180_)" width="0.835" height="53.473"/>
			<rect x="157.937" y="28.352" clip-path="url(#SVGID_180_)" width="0.835" height="53.473"/>
			<rect x="242.324" y="28.352" clip-path="url(#SVGID_180_)" width="0.835" height="53.473"/>
			<rect x="330.888" y="28.352" clip-path="url(#SVGID_180_)" width="0.835" height="53.473"/>
			<rect x="406.919" y="28.352" clip-path="url(#SVGID_180_)" width="0.836" height="53.473"/>
			<rect x="5.038" y="94.357" clip-path="url(#SVGID_180_)" width="0.835" height="81.88"/>
			<rect x="64.359" y="121.929" clip-path="url(#SVGID_180_)" width="0.835" height="54.308"/>
			<rect x="157.937" y="121.929" clip-path="url(#SVGID_180_)" width="0.835" height="54.308"/>
			<rect x="242.324" y="121.929" clip-path="url(#SVGID_180_)" width="0.835" height="54.308"/>
			<rect x="330.888" y="121.929" clip-path="url(#SVGID_180_)" width="0.835" height="54.308"/>
			<rect x="406.919" y="121.929" clip-path="url(#SVGID_180_)" width="0.836" height="54.308"/>
			<rect x="472.925" y="95.193" clip-path="url(#SVGID_180_)" width="0.835" height="81.044"/>
			<rect x="5.038" y="188.77" clip-path="url(#SVGID_180_)" width="0.835" height="83.552"/>
			<rect x="613.291" y="189.605" clip-path="url(#SVGID_180_)" width="0.835" height="82.716"/>
			<rect x="64.359" y="218.013" clip-path="url(#SVGID_180_)" width="0.835" height="54.309"/>
			<rect x="157.937" y="218.013" clip-path="url(#SVGID_180_)" width="0.835" height="54.309"/>
			<rect x="242.324" y="218.013" clip-path="url(#SVGID_180_)" width="0.835" height="54.309"/>
			<rect x="330.888" y="218.013" clip-path="url(#SVGID_180_)" width="0.835" height="54.309"/>
			<rect x="406.919" y="218.013" clip-path="url(#SVGID_180_)" width="0.836" height="54.309"/>
			<rect x="472.925" y="218.013" clip-path="url(#SVGID_180_)" width="0.835" height="54.309"/>
			<rect x="545.614" y="218.013" clip-path="url(#SVGID_180_)" width="0.835" height="54.309"/>
			<rect x="5.038" y="284.854" clip-path="url(#SVGID_180_)" width="0.835" height="81.88"/>
			<rect x="472.925" y="313.261" clip-path="url(#SVGID_180_)" width="0.835" height="53.473"/>
			<rect x="64.359" y="313.261" clip-path="url(#SVGID_180_)" width="0.835" height="53.473"/>
			<rect x="157.937" y="313.261" clip-path="url(#SVGID_180_)" width="0.835" height="53.473"/>
			<rect x="242.324" y="313.261" clip-path="url(#SVGID_180_)" width="0.835" height="53.473"/>
			<rect x="330.888" y="313.261" clip-path="url(#SVGID_180_)" width="0.835" height="53.473"/>
			<rect x="406.919" y="313.261" clip-path="url(#SVGID_180_)" width="0.836" height="53.473"/>
			<rect x="613.291" y="285.69" clip-path="url(#SVGID_180_)" width="0.835" height="81.044"/>
			<rect x="545.614" y="313.261" clip-path="url(#SVGID_180_)" width="0.835" height="53.473"/>
			<rect x="5.874" y="2.451" clip-path="url(#SVGID_180_)" width="467.886" height="0.835"/>
			<rect x="5.874" y="27.517" clip-path="url(#SVGID_180_)" width="467.886" height="0.835"/>
			<rect x="5.874" y="54.253" clip-path="url(#SVGID_180_)" width="467.886" height="0.835"/>
			<rect x="5.874" y="67.621" clip-path="url(#SVGID_180_)" width="467.886" height="0.835"/>
			<rect x="5.874" y="80.989" clip-path="url(#SVGID_180_)" width="467.886" height="0.835"/>
			<rect x="5.874" y="94.357" clip-path="url(#SVGID_180_)" width="467.886" height="0.835"/>
			<rect x="5.874" y="121.094" clip-path="url(#SVGID_180_)" width="467.886" height="0.835"/>
			<rect x="5.874" y="148.666" clip-path="url(#SVGID_180_)" width="467.886" height="0.835"/>
			<rect x="5.874" y="162.034" clip-path="url(#SVGID_180_)" width="467.886" height="0.835"/>
			<rect x="5.874" y="175.402" clip-path="url(#SVGID_180_)" width="467.886" height="0.835"/>
			<rect x="5.874" y="188.77" clip-path="url(#SVGID_180_)" width="608.252" height="0.835"/>
			<rect x="5.874" y="217.177" clip-path="url(#SVGID_180_)" width="608.252" height="0.836"/>
			<rect x="5.874" y="244.75" clip-path="url(#SVGID_180_)" width="608.252" height="0.835"/>
			<rect x="5.874" y="258.118" clip-path="url(#SVGID_180_)" width="608.252" height="0.835"/>
			<rect x="5.874" y="271.486" clip-path="url(#SVGID_180_)" width="608.252" height="0.836"/>
			<rect x="5.874" y="284.854" clip-path="url(#SVGID_180_)" width="608.252" height="0.836"/>
			<rect x="5.874" y="312.426" clip-path="url(#SVGID_180_)" width="608.252" height="0.835"/>
			<rect x="5.874" y="339.163" clip-path="url(#SVGID_180_)" width="608.252" height="0.835"/>
			<rect x="5.874" y="352.531" clip-path="url(#SVGID_180_)" width="608.252" height="0.835"/>
			<rect x="5.874" y="365.899" clip-path="url(#SVGID_180_)" width="608.252" height="0.835"/>
		</g>
	</g>
</g>
</svg>
