<?xml version="1.0" encoding="utf-8"?>
<!-- Generator: Adobe Illustrator 16.2.1, SVG Export Plug-In . SVG Version: 6.00 Build 0)  -->
<!DOCTYPE svg PUBLIC "-//W3C//DTD SVG 1.1//EN" "http://www.w3.org/Graphics/SVG/1.1/DTD/svg11.dtd">
<svg version="1.1" id="Layer_1" xmlns="http://www.w3.org/2000/svg" xmlns:xlink="http://www.w3.org/1999/xlink" x="0px" y="0px"
	 width="286.997px" height="294.333px" viewBox="0 0 286.997 294.333" enable-background="new 0 0 286.997 294.333"
	 xml:space="preserve">
<g id="Layer_2">
	<rect x="4.377" y="3.519" fill="#FFFFFF" stroke="#000000" stroke-miterlimit="10" width="278.913" height="286.249"/>
</g>
<g id="Layer_1_1_">
	<g enable-background="new    ">
		<path fill="#BE1E2D" d="M87.258,27.162c0.468,0.288,1.151,0.528,1.871,0.528c1.067,0,1.691-0.564,1.691-1.38
			c0-0.756-0.432-1.188-1.523-1.606c-1.319-0.468-2.135-1.151-2.135-2.291c0-1.26,1.043-2.195,2.614-2.195
			c0.828,0,1.427,0.192,1.787,0.396l-0.288,0.852c-0.264-0.145-0.803-0.384-1.535-0.384c-1.103,0-1.523,0.659-1.523,1.211
			c0,0.756,0.492,1.127,1.607,1.56c1.367,0.527,2.063,1.187,2.063,2.374c0,1.248-0.923,2.327-2.831,2.327
			c-0.779,0-1.631-0.229-2.062-0.516L87.258,27.162z"/>
		<path fill="#BE1E2D" d="M94.853,21.237h-2.459V20.35h5.985v0.888h-2.471v7.196h-1.055V21.237z"/>
		<path fill="#BE1E2D" d="M103.467,24.644h-3.142v2.914h3.502v0.876h-4.545V20.35h4.366v0.876h-3.322v2.555h3.142V24.644z"/>
		<path fill="#BE1E2D" d="M105.186,20.446c0.503-0.084,1.163-0.156,2.003-0.156c1.031,0,1.787,0.24,2.267,0.672
			c0.444,0.384,0.708,0.972,0.708,1.69c0,0.732-0.216,1.308-0.624,1.728c-0.552,0.588-1.451,0.888-2.471,0.888
			c-0.312,0-0.6-0.013-0.839-0.072v3.238h-1.043V20.446z M106.229,24.344c0.228,0.061,0.516,0.084,0.863,0.084
			c1.259,0,2.027-0.611,2.027-1.727c0-1.067-0.755-1.584-1.907-1.584c-0.456,0-0.804,0.036-0.983,0.084V24.344z"/>
		<path fill="#BE1E2D" d="M116.032,21.621h-0.024l-1.355,0.731l-0.204-0.803l1.703-0.912h0.9v7.796h-1.02V21.621z"/>
		<path fill="#BE1E2D" d="M119.981,23.588c0-0.443,0.3-0.755,0.72-0.755s0.696,0.312,0.708,0.755c0,0.42-0.276,0.744-0.72,0.744
			C120.269,24.332,119.981,24.008,119.981,23.588z M119.981,27.822c0-0.444,0.3-0.756,0.72-0.756s0.696,0.312,0.708,0.756
			c0,0.42-0.276,0.743-0.72,0.743C120.269,28.565,119.981,28.242,119.981,27.822z"/>
		<path fill="#BE1E2D" d="M126.34,20.35v4.786c0,1.811,0.803,2.578,1.883,2.578c1.199,0,1.967-0.791,1.967-2.578V20.35h1.056v4.714
			c0,2.482-1.308,3.502-3.059,3.502c-1.655,0-2.902-0.947-2.902-3.454V20.35H126.34z"/>
		<path fill="#BE1E2D" d="M132.917,27.162c0.468,0.288,1.151,0.528,1.871,0.528c1.067,0,1.691-0.564,1.691-1.38
			c0-0.756-0.432-1.188-1.523-1.606c-1.319-0.468-2.135-1.151-2.135-2.291c0-1.26,1.043-2.195,2.614-2.195
			c0.828,0,1.427,0.192,1.787,0.396l-0.288,0.852c-0.264-0.145-0.803-0.384-1.535-0.384c-1.103,0-1.523,0.659-1.523,1.211
			c0,0.756,0.492,1.127,1.607,1.56c1.367,0.527,2.063,1.187,2.063,2.374c0,1.248-0.923,2.327-2.831,2.327
			c-0.779,0-1.631-0.229-2.062-0.516L132.917,27.162z"/>
		<path fill="#BE1E2D" d="M143.163,24.644h-3.142v2.914h3.502v0.876h-4.545V20.35h4.366v0.876h-3.322v2.555h3.142V24.644z"/>
		<path fill="#BE1E2D" d="M144.881,20.458c0.527-0.108,1.283-0.168,2.002-0.168c1.115,0,1.836,0.204,2.339,0.659
			c0.407,0.36,0.636,0.912,0.636,1.535c0,1.068-0.672,1.775-1.523,2.063v0.036c0.624,0.216,0.996,0.791,1.188,1.631
			c0.264,1.127,0.456,1.907,0.624,2.219h-1.079c-0.133-0.228-0.312-0.924-0.54-1.931c-0.239-1.115-0.672-1.535-1.619-1.571h-0.983
			v3.502h-1.043V20.458z M145.924,24.14h1.067c1.115,0,1.823-0.611,1.823-1.535c0-1.043-0.756-1.499-1.859-1.511
			c-0.504,0-0.863,0.048-1.031,0.096V24.14z"/>
		<path fill="#BE1E2D" d="M153.737,27.162c0.467,0.288,1.15,0.528,1.871,0.528c1.066,0,1.69-0.564,1.69-1.38
			c0-0.756-0.432-1.188-1.522-1.606c-1.32-0.468-2.135-1.151-2.135-2.291c0-1.26,1.043-2.195,2.613-2.195
			c0.828,0,1.428,0.192,1.787,0.396l-0.287,0.852c-0.264-0.145-0.804-0.384-1.535-0.384c-1.104,0-1.523,0.659-1.523,1.211
			c0,0.756,0.492,1.127,1.607,1.56c1.367,0.527,2.062,1.187,2.062,2.374c0,1.248-0.924,2.327-2.83,2.327
			c-0.779,0-1.631-0.229-2.062-0.516L153.737,27.162z"/>
		<path fill="#BE1E2D" d="M160.84,20.35v8.084h-1.044V20.35H160.84z"/>
		<path fill="#BE1E2D" d="M168.817,28.074c-0.468,0.168-1.391,0.443-2.482,0.443c-1.223,0-2.23-0.312-3.022-1.067
			c-0.696-0.672-1.128-1.751-1.128-3.011c0.013-2.41,1.668-4.174,4.379-4.174c0.935,0,1.666,0.204,2.014,0.372l-0.252,0.852
			c-0.432-0.191-0.971-0.348-1.787-0.348c-1.967,0-3.25,1.224-3.25,3.25c0,2.051,1.236,3.263,3.119,3.263
			c0.684,0,1.15-0.097,1.391-0.216v-2.411h-1.643v-0.84h2.662V28.074z"/>
		<path fill="#BE1E2D" d="M170.417,28.434V20.35h1.139l2.592,4.09c0.6,0.948,1.066,1.8,1.451,2.627l0.023-0.012
			c-0.096-1.08-0.12-2.063-0.12-3.322V20.35h0.983v8.084h-1.055l-2.566-4.102c-0.564-0.899-1.104-1.823-1.512-2.698l-0.036,0.012
			c0.06,1.02,0.084,1.991,0.084,3.334v3.454H170.417z"/>
		<path fill="#BE1E2D" d="M181.899,20.35v4.786c0,1.811,0.804,2.578,1.883,2.578c1.199,0,1.967-0.791,1.967-2.578V20.35h1.057v4.714
			c0,2.482-1.309,3.502-3.059,3.502c-1.655,0-2.902-0.947-2.902-3.454V20.35H181.899z"/>
		<path fill="#BE1E2D" d="M188.62,20.446c0.504-0.084,1.164-0.156,2.004-0.156c1.031,0,1.787,0.24,2.266,0.672
			c0.444,0.384,0.708,0.972,0.708,1.69c0,0.732-0.216,1.308-0.624,1.728c-0.551,0.588-1.451,0.888-2.471,0.888
			c-0.312,0-0.6-0.013-0.839-0.072v3.238h-1.044V20.446z M189.664,24.344c0.228,0.061,0.516,0.084,0.863,0.084
			c1.259,0,2.026-0.611,2.026-1.727c0-1.067-0.755-1.584-1.906-1.584c-0.456,0-0.804,0.036-0.983,0.084V24.344z"/>
	</g>
	<rect x="75.824" y="44.351" fill="#FFFFFF" stroke="#000000" stroke-miterlimit="10" width="76" height="31.333"/>
	<g enable-background="new    ">
		<path d="M86.074,62.625c0.39,0.24,0.959,0.439,1.559,0.439c0.89,0,1.409-0.47,1.409-1.148c0-0.63-0.36-0.99-1.269-1.34
			c-1.1-0.39-1.779-0.959-1.779-1.909c0-1.049,0.87-1.829,2.179-1.829c0.69,0,1.189,0.16,1.489,0.33l-0.24,0.71
			c-0.22-0.12-0.669-0.32-1.279-0.32c-0.919,0-1.269,0.55-1.269,1.01c0,0.63,0.41,0.939,1.339,1.299
			c1.14,0.44,1.719,0.99,1.719,1.979c0,1.039-0.77,1.938-2.359,1.938c-0.649,0-1.359-0.189-1.719-0.43L86.074,62.625z"/>
		<path d="M92.074,57.488c0.01,0.3-0.21,0.539-0.56,0.539c-0.31,0-0.53-0.239-0.53-0.539c0-0.311,0.23-0.55,0.55-0.55
			C91.864,56.938,92.074,57.178,92.074,57.488z M91.094,63.685v-4.837h0.879v4.837H91.094z"/>
		<path d="M97.602,58.848c-0.02,0.35-0.04,0.739-0.04,1.329v2.809c0,1.109-0.22,1.789-0.69,2.208c-0.47,0.44-1.149,0.58-1.759,0.58
			c-0.58,0-1.219-0.14-1.609-0.399l0.22-0.67c0.32,0.2,0.819,0.38,1.419,0.38c0.9,0,1.559-0.47,1.559-1.689v-0.539h-0.02
			c-0.27,0.449-0.79,0.81-1.54,0.81c-1.199,0-2.059-1.02-2.059-2.359c0-1.639,1.069-2.568,2.179-2.568
			c0.839,0,1.299,0.439,1.509,0.84h0.02l0.04-0.729H97.602z M96.692,60.756c0-0.149-0.01-0.279-0.05-0.399
			c-0.16-0.51-0.59-0.93-1.229-0.93c-0.839,0-1.439,0.71-1.439,1.829c0,0.949,0.479,1.739,1.429,1.739
			c0.54,0,1.029-0.34,1.219-0.899c0.05-0.15,0.07-0.32,0.07-0.47V60.756z"/>
		<path d="M98.964,60.156c0-0.499-0.01-0.909-0.04-1.309h0.78l0.05,0.799h0.02c0.24-0.459,0.8-0.909,1.599-0.909
			c0.67,0,1.709,0.399,1.709,2.059v2.889h-0.879v-2.788c0-0.78-0.29-1.43-1.119-1.43c-0.58,0-1.03,0.41-1.18,0.899
			c-0.04,0.11-0.06,0.26-0.06,0.41v2.908h-0.879V60.156z"/>
		<path d="M107.533,56.948v3.988c0,1.509,0.67,2.148,1.569,2.148c1,0,1.639-0.66,1.639-2.148v-3.988h0.879v3.928
			c0,2.069-1.089,2.919-2.548,2.919c-1.379,0-2.419-0.79-2.419-2.879v-3.968H107.533z"/>
		<path d="M113.104,60.427c0-0.62-0.02-1.12-0.04-1.579h0.79l0.04,0.829h0.02c0.36-0.59,0.93-0.939,1.719-0.939
			c1.169,0,2.049,0.989,2.049,2.459c0,1.738-1.06,2.599-2.199,2.599c-0.64,0-1.199-0.28-1.489-0.76h-0.02v2.628h-0.87V60.427z
			 M113.973,61.716c0,0.13,0.02,0.25,0.04,0.359c0.16,0.61,0.689,1.029,1.319,1.029c0.929,0,1.469-0.759,1.469-1.868
			c0-0.97-0.51-1.8-1.439-1.8c-0.6,0-1.159,0.43-1.329,1.09c-0.03,0.11-0.06,0.24-0.06,0.359V61.716z"/>
		<path d="M120.944,56.948h3.628v0.729h-2.759v2.239h2.549v0.72h-2.549v3.048h-0.869V56.948z"/>
		<path d="M129.852,61.226c0,1.789-1.24,2.569-2.409,2.569c-1.31,0-2.319-0.96-2.319-2.489c0-1.619,1.06-2.568,2.398-2.568
			C128.912,58.737,129.852,59.747,129.852,61.226z M126.014,61.276c0,1.059,0.609,1.858,1.469,1.858c0.84,0,1.469-0.789,1.469-1.879
			c0-0.819-0.41-1.859-1.449-1.859C126.463,59.396,126.014,60.356,126.014,61.276z"/>
		<path d="M130.963,60.356c0-0.569-0.01-1.06-0.04-1.509h0.77l0.03,0.949h0.04c0.22-0.649,0.75-1.06,1.339-1.06
			c0.1,0,0.17,0.01,0.25,0.03v0.829c-0.09-0.02-0.18-0.03-0.3-0.03c-0.62,0-1.059,0.47-1.179,1.13c-0.02,0.12-0.04,0.26-0.04,0.41
			v2.578h-0.87V60.356z"/>
		<path d="M134.273,60.156c0-0.499-0.01-0.909-0.04-1.309h0.77l0.04,0.779h0.03c0.27-0.46,0.719-0.89,1.519-0.89
			c0.66,0,1.159,0.399,1.369,0.97h0.02c0.15-0.271,0.34-0.48,0.54-0.63c0.29-0.22,0.61-0.34,1.07-0.34
			c0.64,0,1.589,0.42,1.589,2.099v2.849h-0.859v-2.738c0-0.93-0.34-1.489-1.049-1.489c-0.5,0-0.89,0.37-1.04,0.8
			c-0.04,0.119-0.07,0.279-0.07,0.439v2.988h-0.86v-2.898c0-0.77-0.34-1.329-1.009-1.329c-0.55,0-0.95,0.439-1.089,0.879
			c-0.05,0.131-0.07,0.28-0.07,0.431v2.918h-0.86V60.156z"/>
	</g>
	<rect x="75.824" y="137.475" fill="#FFFFFF" stroke="#000000" stroke-miterlimit="10" width="76" height="40.667"/>
	<g enable-background="new    ">
		<path d="M97.506,154.299c-0.32,0.16-0.959,0.318-1.779,0.318c-1.899,0-3.328-1.199-3.328-3.408c0-2.107,1.429-3.537,3.518-3.537
			c0.839,0,1.369,0.18,1.599,0.299l-0.21,0.711c-0.33-0.16-0.799-0.279-1.359-0.279c-1.579,0-2.628,1.008-2.628,2.777
			c0,1.648,0.95,2.709,2.588,2.709c0.53,0,1.07-0.109,1.419-0.279L97.506,154.299z"/>
		<path d="M102.837,152.059c0,1.789-1.24,2.57-2.409,2.57c-1.31,0-2.319-0.961-2.319-2.49c0-1.619,1.059-2.568,2.398-2.568
			C101.897,149.571,102.837,150.581,102.837,152.059z M98.999,152.11c0,1.059,0.609,1.859,1.469,1.859
			c0.84,0,1.469-0.789,1.469-1.879c0-0.82-0.41-1.859-1.449-1.859C99.449,150.231,98.999,151.19,98.999,152.11z"/>
		<path d="M103.949,150.991c0-0.5-0.01-0.91-0.04-1.309h0.78l0.05,0.799h0.02c0.24-0.459,0.8-0.91,1.599-0.91
			c0.67,0,1.709,0.4,1.709,2.059v2.889h-0.879v-2.787c0-0.781-0.29-1.43-1.119-1.43c-0.58,0-1.03,0.41-1.18,0.898
			c-0.04,0.111-0.06,0.26-0.06,0.41v2.908h-0.879V150.991z"/>
		<path d="M109.589,154.518v-4.168h-0.679v-0.668h0.679v-0.262c0-1.279,0.75-2.108,2.109-2.108c0.45,0,0.979,0.14,1.229,0.32
			l-0.25,0.668c-0.21-0.148-0.589-0.279-1.02-0.279c-0.929,0-1.199,0.65-1.199,1.42v0.24h2.809v4.836h-0.87v-4.168h-1.939v4.168
			H109.589z"/>
		<path d="M118.897,149.682c-0.02,0.35-0.04,0.738-0.04,1.328v2.809c0,1.109-0.22,1.789-0.69,2.209
			c-0.47,0.439-1.149,0.58-1.759,0.58c-0.58,0-1.219-0.141-1.609-0.4l0.22-0.67c0.32,0.201,0.819,0.381,1.419,0.381
			c0.9,0,1.56-0.471,1.56-1.689v-0.539h-0.02c-0.27,0.449-0.79,0.809-1.54,0.809c-1.199,0-2.059-1.02-2.059-2.359
			c0-1.639,1.069-2.568,2.179-2.568c0.839,0,1.299,0.439,1.509,0.84h0.02l0.04-0.729H118.897z M117.987,151.59
			c0-0.15-0.01-0.279-0.05-0.4c-0.16-0.51-0.59-0.93-1.229-0.93c-0.839,0-1.439,0.711-1.439,1.83c0,0.949,0.479,1.738,1.429,1.738
			c0.54,0,1.029-0.34,1.219-0.898c0.05-0.15,0.07-0.32,0.07-0.471V151.59z"/>
		<path d="M124.367,153.2c0,0.5,0.01,0.939,0.04,1.318h-0.78l-0.05-0.789h-0.02c-0.23,0.391-0.74,0.9-1.599,0.9
			c-0.76,0-1.669-0.42-1.669-2.119v-2.828h0.879v2.678c0,0.92,0.28,1.539,1.08,1.539c0.589,0,1-0.41,1.159-0.799
			c0.05-0.131,0.08-0.291,0.08-0.451v-2.967h0.879V153.2z"/>
		<path d="M125.829,151.19c0-0.568-0.01-1.059-0.04-1.508h0.77l0.03,0.949h0.04c0.22-0.65,0.75-1.061,1.339-1.061
			c0.1,0,0.169,0.01,0.25,0.031v0.828c-0.09-0.02-0.18-0.029-0.3-0.029c-0.62,0-1.06,0.469-1.179,1.129
			c-0.02,0.121-0.04,0.26-0.04,0.41v2.578h-0.87V151.19z"/>
		<path d="M129.488,152.26c0.02,1.189,0.78,1.678,1.659,1.678c0.63,0,1.009-0.109,1.339-0.248l0.15,0.629
			c-0.31,0.141-0.84,0.299-1.609,0.299c-1.489,0-2.378-0.979-2.378-2.438s0.859-2.609,2.269-2.609c1.579,0,1.999,1.391,1.999,2.279
			c0,0.18-0.02,0.32-0.03,0.41H129.488z M132.067,151.629c0.01-0.559-0.23-1.428-1.219-1.428c-0.89,0-1.279,0.818-1.349,1.428
			H132.067z"/>
	</g>
	<g enable-background="new    ">
		<path d="M100.086,163.561c-0.05-0.939-0.11-2.07-0.1-2.91h-0.03c-0.23,0.791-0.51,1.631-0.85,2.559l-1.189,3.27h-0.66
			l-1.089-3.209c-0.32-0.949-0.59-1.818-0.779-2.619h-0.02c-0.02,0.84-0.07,1.971-0.13,2.979l-0.18,2.889h-0.83l0.47-6.736h1.109
			l1.149,3.258c0.28,0.83,0.51,1.57,0.68,2.27h0.03c0.17-0.68,0.41-1.42,0.71-2.27l1.199-3.258h1.109l0.42,6.736h-0.85
			L100.086,163.561z"/>
		<path d="M102.968,164.26c0.02,1.189,0.78,1.678,1.659,1.678c0.63,0,1.009-0.109,1.339-0.248l0.15,0.629
			c-0.31,0.141-0.84,0.299-1.609,0.299c-1.489,0-2.378-0.979-2.378-2.438s0.859-2.609,2.269-2.609c1.579,0,1.999,1.391,1.999,2.279
			c0,0.18-0.02,0.32-0.03,0.41H102.968z M105.547,163.629c0.01-0.559-0.23-1.428-1.219-1.428c-0.89,0-1.279,0.818-1.349,1.428
			H105.547z"/>
		<path d="M107.369,165.62c0.26,0.17,0.719,0.35,1.159,0.35c0.64,0,0.939-0.32,0.939-0.721c0-0.42-0.25-0.648-0.899-0.889
			c-0.87-0.311-1.279-0.789-1.279-1.369c0-0.779,0.629-1.42,1.669-1.42c0.49,0,0.919,0.141,1.189,0.301l-0.22,0.639
			c-0.19-0.119-0.54-0.279-0.99-0.279c-0.52,0-0.81,0.299-0.81,0.66c0,0.398,0.29,0.58,0.919,0.818c0.84,0.32,1.27,0.74,1.27,1.459
			c0,0.85-0.66,1.449-1.809,1.449c-0.53,0-1.02-0.129-1.359-0.328L107.369,165.62z"/>
		<path d="M111.329,165.62c0.26,0.17,0.719,0.35,1.159,0.35c0.64,0,0.939-0.32,0.939-0.721c0-0.42-0.25-0.648-0.899-0.889
			c-0.87-0.311-1.279-0.789-1.279-1.369c0-0.779,0.629-1.42,1.669-1.42c0.49,0,0.919,0.141,1.189,0.301l-0.22,0.639
			c-0.19-0.119-0.54-0.279-0.99-0.279c-0.52,0-0.81,0.299-0.81,0.66c0,0.398,0.29,0.58,0.919,0.818c0.84,0.32,1.27,0.74,1.27,1.459
			c0,0.85-0.66,1.449-1.809,1.449c-0.53,0-1.02-0.129-1.359-0.328L111.329,165.62z"/>
		<path d="M118.087,166.518l-0.07-0.609h-0.03c-0.27,0.381-0.79,0.721-1.479,0.721c-0.979,0-1.479-0.691-1.479-1.391
			c0-1.168,1.04-1.809,2.909-1.799v-0.1c0-0.4-0.11-1.119-1.1-1.119c-0.45,0-0.919,0.139-1.259,0.359l-0.2-0.58
			c0.4-0.26,0.979-0.43,1.589-0.43c1.479,0,1.839,1.01,1.839,1.979v1.811c0,0.42,0.02,0.828,0.08,1.158H118.087z M117.958,164.049
			c-0.959-0.02-2.049,0.15-2.049,1.09c0,0.57,0.379,0.84,0.83,0.84c0.629,0,1.029-0.4,1.169-0.811c0.03-0.09,0.05-0.189,0.05-0.279
			V164.049z"/>
		<path d="M124.396,161.682c-0.02,0.35-0.04,0.738-0.04,1.328v2.809c0,1.109-0.22,1.789-0.69,2.209
			c-0.47,0.439-1.149,0.58-1.759,0.58c-0.58,0-1.219-0.141-1.609-0.4l0.22-0.67c0.32,0.201,0.819,0.381,1.419,0.381
			c0.9,0,1.56-0.471,1.56-1.689v-0.539h-0.02c-0.27,0.449-0.79,0.809-1.54,0.809c-1.199,0-2.059-1.02-2.059-2.359
			c0-1.639,1.069-2.568,2.179-2.568c0.839,0,1.299,0.439,1.509,0.84h0.02l0.04-0.729H124.396z M123.487,163.59
			c0-0.15-0.01-0.279-0.05-0.4c-0.16-0.51-0.59-0.93-1.229-0.93c-0.839,0-1.439,0.711-1.439,1.83c0,0.949,0.479,1.738,1.429,1.738
			c0.54,0,1.029-0.34,1.219-0.898c0.05-0.15,0.07-0.32,0.07-0.471V163.59z"/>
		<path d="M126.308,164.26c0.02,1.189,0.78,1.678,1.659,1.678c0.63,0,1.009-0.109,1.339-0.248l0.15,0.629
			c-0.31,0.141-0.84,0.299-1.609,0.299c-1.489,0-2.378-0.979-2.378-2.438s0.859-2.609,2.269-2.609c1.579,0,1.999,1.391,1.999,2.279
			c0,0.18-0.02,0.32-0.03,0.41H126.308z M128.887,163.629c0.01-0.559-0.23-1.428-1.219-1.428c-0.89,0-1.279,0.818-1.349,1.428
			H128.887z"/>
		<path d="M130.708,165.62c0.26,0.17,0.719,0.35,1.159,0.35c0.64,0,0.939-0.32,0.939-0.721c0-0.42-0.25-0.648-0.899-0.889
			c-0.87-0.311-1.279-0.789-1.279-1.369c0-0.779,0.629-1.42,1.669-1.42c0.49,0,0.919,0.141,1.189,0.301l-0.22,0.639
			c-0.19-0.119-0.54-0.279-0.99-0.279c-0.52,0-0.81,0.299-0.81,0.66c0,0.398,0.29,0.58,0.919,0.818c0.84,0.32,1.27,0.74,1.27,1.459
			c0,0.85-0.66,1.449-1.809,1.449c-0.53,0-1.02-0.129-1.359-0.328L130.708,165.62z"/>
	</g>
	<rect x="75.824" y="222.475" fill="#FFFFFF" stroke="#000000" stroke-miterlimit="10" width="112" height="54.376"/>
	<g enable-background="new    ">
		<path d="M82.06,239.125c0.39,0.24,0.959,0.439,1.559,0.439c0.89,0,1.409-0.471,1.409-1.148c0-0.631-0.36-0.99-1.269-1.34
			c-1.1-0.391-1.779-0.959-1.779-1.91c0-1.049,0.87-1.828,2.179-1.828c0.69,0,1.189,0.16,1.489,0.33l-0.24,0.709
			c-0.22-0.119-0.669-0.32-1.279-0.32c-0.919,0-1.269,0.551-1.269,1.01c0,0.631,0.41,0.939,1.339,1.299
			c1.14,0.441,1.719,0.99,1.719,1.98c0,1.039-0.77,1.938-2.359,1.938c-0.649,0-1.359-0.189-1.719-0.43L82.06,239.125z"/>
		<path d="M90.587,240.004c-0.23,0.121-0.74,0.279-1.389,0.279c-1.459,0-2.409-0.988-2.409-2.469c0-1.488,1.02-2.568,2.599-2.568
			c0.52,0,0.979,0.131,1.219,0.25l-0.2,0.68c-0.209-0.119-0.54-0.229-1.019-0.229c-1.109,0-1.709,0.818-1.709,1.828
			c0,1.119,0.719,1.809,1.679,1.809c0.5,0,0.83-0.129,1.08-0.24L90.587,240.004z"/>
		<path d="M91.619,236.856c0-0.568-0.01-1.059-0.04-1.508h0.77l0.03,0.949h0.04c0.22-0.65,0.75-1.061,1.339-1.061
			c0.1,0,0.169,0.01,0.25,0.031v0.828c-0.09-0.02-0.18-0.029-0.3-0.029c-0.62,0-1.06,0.469-1.179,1.129
			c-0.02,0.121-0.04,0.26-0.04,0.41v2.578h-0.87V236.856z"/>
		<path d="M95.909,233.989c0.01,0.299-0.21,0.539-0.56,0.539c-0.31,0-0.53-0.24-0.53-0.539c0-0.311,0.23-0.551,0.55-0.551
			C95.699,233.438,95.909,233.678,95.909,233.989z M94.929,240.184v-4.836h0.879v4.836H94.929z"/>
		<path d="M97.269,236.926c0-0.619-0.02-1.119-0.04-1.578h0.79l0.04,0.828h0.02c0.36-0.59,0.93-0.939,1.719-0.939
			c1.169,0,2.049,0.99,2.049,2.459c0,1.738-1.06,2.6-2.199,2.6c-0.64,0-1.199-0.281-1.489-0.76h-0.02v2.627h-0.87V236.926z
			 M98.139,238.215c0,0.131,0.02,0.25,0.04,0.359c0.16,0.611,0.689,1.029,1.319,1.029c0.929,0,1.469-0.758,1.469-1.867
			c0-0.971-0.51-1.801-1.439-1.801c-0.6,0-1.159,0.43-1.329,1.09c-0.03,0.111-0.06,0.24-0.06,0.359V238.215z"/>
		<path d="M104.019,233.958v1.391h1.259v0.668h-1.259v2.609c0,0.6,0.17,0.939,0.66,0.939c0.23,0,0.4-0.029,0.51-0.061l0.04,0.66
			c-0.17,0.07-0.44,0.119-0.78,0.119c-0.41,0-0.74-0.129-0.949-0.369c-0.25-0.26-0.34-0.689-0.34-1.26v-2.639h-0.75v-0.668h0.75
			v-1.16L104.019,233.958z"/>
		<path d="M106.149,239.286c0.26,0.17,0.719,0.35,1.159,0.35c0.64,0,0.939-0.32,0.939-0.721c0-0.42-0.25-0.648-0.899-0.889
			c-0.87-0.311-1.279-0.789-1.279-1.369c0-0.779,0.629-1.42,1.669-1.42c0.49,0,0.919,0.141,1.189,0.301l-0.22,0.639
			c-0.19-0.119-0.54-0.279-0.99-0.279c-0.52,0-0.81,0.299-0.81,0.66c0,0.398,0.29,0.58,0.919,0.818c0.84,0.32,1.27,0.74,1.27,1.459
			c0,0.85-0.66,1.449-1.809,1.449c-0.53,0-1.02-0.129-1.359-0.328L106.149,239.286z"/>
		<path d="M115.027,240.184l-0.07-0.609h-0.03c-0.27,0.381-0.79,0.721-1.479,0.721c-0.979,0-1.479-0.691-1.479-1.391
			c0-1.168,1.04-1.809,2.909-1.799v-0.1c0-0.4-0.11-1.119-1.1-1.119c-0.45,0-0.919,0.139-1.259,0.359l-0.2-0.58
			c0.4-0.26,0.979-0.43,1.589-0.43c1.479,0,1.839,1.01,1.839,1.979v1.811c0,0.42,0.02,0.828,0.08,1.158H115.027z M114.897,237.715
			c-0.959-0.02-2.049,0.15-2.049,1.09c0,0.57,0.379,0.84,0.83,0.84c0.629,0,1.029-0.4,1.169-0.811c0.03-0.09,0.05-0.189,0.05-0.279
			V237.715z"/>
		<path d="M120.617,240.004c-0.23,0.121-0.74,0.279-1.389,0.279c-1.459,0-2.409-0.988-2.409-2.469c0-1.488,1.02-2.568,2.599-2.568
			c0.52,0,0.979,0.131,1.219,0.25l-0.2,0.68c-0.21-0.119-0.54-0.229-1.02-0.229c-1.109,0-1.709,0.818-1.709,1.828
			c0,1.119,0.719,1.809,1.679,1.809c0.5,0,0.83-0.129,1.08-0.24L120.617,240.004z"/>
		<path d="M125.037,240.004c-0.23,0.121-0.74,0.279-1.389,0.279c-1.459,0-2.409-0.988-2.409-2.469c0-1.488,1.02-2.568,2.599-2.568
			c0.52,0,0.979,0.131,1.219,0.25l-0.2,0.68c-0.21-0.119-0.54-0.229-1.02-0.229c-1.109,0-1.709,0.818-1.709,1.828
			c0,1.119,0.719,1.809,1.679,1.809c0.5,0,0.83-0.129,1.08-0.24L125.037,240.004z"/>
		<path d="M126.499,237.926c0.02,1.189,0.78,1.678,1.659,1.678c0.63,0,1.009-0.109,1.339-0.248l0.15,0.629
			c-0.31,0.141-0.84,0.299-1.609,0.299c-1.489,0-2.378-0.979-2.378-2.438s0.859-2.609,2.269-2.609c1.579,0,1.999,1.391,1.999,2.279
			c0,0.18-0.02,0.32-0.03,0.41H126.499z M129.077,237.295c0.01-0.559-0.23-1.428-1.219-1.428c-0.89,0-1.279,0.818-1.349,1.428
			H129.077z"/>
		<path d="M130.899,239.286c0.26,0.17,0.719,0.35,1.159,0.35c0.64,0,0.939-0.32,0.939-0.721c0-0.42-0.25-0.648-0.899-0.889
			c-0.87-0.311-1.279-0.789-1.279-1.369c0-0.779,0.629-1.42,1.669-1.42c0.49,0,0.919,0.141,1.189,0.301l-0.22,0.639
			c-0.19-0.119-0.54-0.279-0.99-0.279c-0.52,0-0.81,0.299-0.81,0.66c0,0.398,0.29,0.58,0.919,0.818c0.84,0.32,1.27,0.74,1.27,1.459
			c0,0.85-0.66,1.449-1.809,1.449c-0.53,0-1.02-0.129-1.359-0.328L130.899,239.286z"/>
		<path d="M134.859,239.286c0.26,0.17,0.719,0.35,1.159,0.35c0.64,0,0.939-0.32,0.939-0.721c0-0.42-0.25-0.648-0.899-0.889
			c-0.87-0.311-1.279-0.789-1.279-1.369c0-0.779,0.629-1.42,1.669-1.42c0.49,0,0.919,0.141,1.189,0.301l-0.22,0.639
			c-0.19-0.119-0.54-0.279-0.99-0.279c-0.52,0-0.81,0.299-0.81,0.66c0,0.398,0.29,0.58,0.919,0.818c0.84,0.32,1.27,0.74,1.27,1.459
			c0,0.85-0.66,1.449-1.809,1.449c-0.53,0-1.02-0.129-1.359-0.328L134.859,239.286z"/>
		<path d="M139.428,237.926c0.02,1.189,0.78,1.678,1.659,1.678c0.63,0,1.009-0.109,1.339-0.248l0.15,0.629
			c-0.31,0.141-0.84,0.299-1.609,0.299c-1.489,0-2.378-0.979-2.378-2.438s0.859-2.609,2.269-2.609c1.579,0,1.999,1.391,1.999,2.279
			c0,0.18-0.02,0.32-0.03,0.41H139.428z M142.007,237.295c0.01-0.559-0.23-1.428-1.219-1.428c-0.89,0-1.279,0.818-1.349,1.428
			H142.007z"/>
		<path d="M148.126,233.088v5.848c0,0.43,0.011,0.918,0.04,1.248h-0.789l-0.041-0.84h-0.02c-0.27,0.541-0.859,0.951-1.648,0.951
			c-1.17,0-2.069-0.99-2.069-2.459c-0.01-1.609,0.989-2.6,2.169-2.6c0.739,0,1.239,0.35,1.459,0.74h0.02v-2.889H148.126z
			 M147.247,237.317c0-0.111-0.01-0.26-0.039-0.371c-0.131-0.559-0.61-1.02-1.27-1.02c-0.91,0-1.449,0.801-1.449,1.869
			c0,0.98,0.479,1.789,1.43,1.789c0.589,0,1.129-0.389,1.289-1.049c0.029-0.119,0.039-0.24,0.039-0.381V237.317z"/>
		<path d="M151.668,240.184c0.02-0.33,0.04-0.818,0.04-1.248v-5.848h0.87v3.039h0.02c0.31-0.541,0.869-0.891,1.648-0.891
			c1.2,0,2.049,1,2.039,2.469c0,1.729-1.089,2.59-2.168,2.59c-0.7,0-1.26-0.271-1.619-0.91h-0.03l-0.04,0.799H151.668z
			 M152.579,238.247c0,0.109,0.02,0.219,0.039,0.318c0.17,0.609,0.68,1.029,1.32,1.029c0.919,0,1.469-0.748,1.469-1.857
			c0-0.971-0.5-1.801-1.439-1.801c-0.6,0-1.159,0.41-1.34,1.08c-0.02,0.1-0.049,0.221-0.049,0.359V238.247z"/>
		<path d="M157.649,235.348l1.059,2.857c0.11,0.32,0.23,0.699,0.311,0.99h0.02c0.09-0.291,0.189-0.66,0.311-1.01l0.959-2.838h0.93
			l-1.319,3.447c-0.63,1.658-1.06,2.508-1.659,3.027c-0.43,0.381-0.859,0.531-1.08,0.57l-0.219-0.74
			c0.219-0.068,0.51-0.209,0.77-0.43c0.239-0.189,0.539-0.529,0.739-0.979c0.04-0.09,0.069-0.16,0.069-0.211
			c0-0.049-0.02-0.119-0.06-0.229l-1.789-4.457H157.649z"/>
		<path d="M165.057,233.448v3.988c0,1.51,0.67,2.148,1.57,2.148c0.999,0,1.639-0.66,1.639-2.148v-3.988h0.879v3.928
			c0,2.07-1.089,2.92-2.548,2.92c-1.38,0-2.419-0.791-2.419-2.879v-3.969H165.057z"/>
		<path d="M170.449,239.286c0.26,0.17,0.72,0.35,1.159,0.35c0.64,0,0.939-0.32,0.939-0.721c0-0.42-0.25-0.648-0.899-0.889
			c-0.87-0.311-1.279-0.789-1.279-1.369c0-0.779,0.63-1.42,1.669-1.42c0.49,0,0.92,0.141,1.189,0.301l-0.22,0.639
			c-0.19-0.119-0.54-0.279-0.989-0.279c-0.52,0-0.811,0.299-0.811,0.66c0,0.398,0.291,0.58,0.92,0.818
			c0.84,0.32,1.27,0.74,1.27,1.459c0,0.85-0.66,1.449-1.809,1.449c-0.53,0-1.02-0.129-1.359-0.328L170.449,239.286z"/>
		<path d="M175.018,237.926c0.02,1.189,0.779,1.678,1.659,1.678c0.63,0,1.009-0.109,1.339-0.248l0.15,0.629
			c-0.311,0.141-0.84,0.299-1.609,0.299c-1.488,0-2.379-0.979-2.379-2.438s0.859-2.609,2.27-2.609c1.578,0,1.998,1.391,1.998,2.279
			c0,0.18-0.02,0.32-0.029,0.41H175.018z M177.596,237.295c0.011-0.559-0.229-1.428-1.219-1.428c-0.89,0-1.279,0.818-1.35,1.428
			H177.596z"/>
		<path d="M179.538,236.856c0-0.568-0.01-1.059-0.039-1.508h0.77l0.029,0.949h0.041c0.219-0.65,0.749-1.061,1.339-1.061
			c0.1,0,0.169,0.01,0.249,0.031v0.828c-0.09-0.02-0.18-0.029-0.299-0.029c-0.62,0-1.061,0.469-1.18,1.129
			c-0.02,0.121-0.04,0.26-0.04,0.41v2.578h-0.87V236.856z"/>
	</g>
	<g enable-background="new    ">
		<path d="M94.119,252.184c0.02-0.33,0.04-0.818,0.04-1.248v-5.848h0.87v3.039h0.02c0.31-0.541,0.87-0.891,1.649-0.891
			c1.2,0,2.049,1,2.039,2.469c0,1.729-1.089,2.59-2.169,2.59c-0.7,0-1.259-0.271-1.619-0.91h-0.03l-0.04,0.799H94.119z
			 M95.029,250.247c0,0.109,0.02,0.219,0.04,0.318c0.17,0.609,0.68,1.029,1.319,1.029c0.919,0,1.469-0.748,1.469-1.857
			c0-0.971-0.5-1.801-1.439-1.801c-0.6,0-1.159,0.41-1.339,1.08c-0.02,0.1-0.05,0.221-0.05,0.359V250.247z"/>
		<path d="M102.528,252.184l-0.07-0.609h-0.03c-0.27,0.381-0.79,0.721-1.479,0.721c-0.979,0-1.479-0.691-1.479-1.391
			c0-1.168,1.04-1.809,2.909-1.799v-0.1c0-0.4-0.11-1.119-1.1-1.119c-0.45,0-0.919,0.139-1.259,0.359l-0.2-0.58
			c0.4-0.26,0.979-0.43,1.589-0.43c1.479,0,1.839,1.01,1.839,1.979v1.811c0,0.42,0.02,0.828,0.08,1.158H102.528z M102.398,249.715
			c-0.959-0.02-2.049,0.15-2.049,1.09c0,0.57,0.379,0.84,0.83,0.84c0.629,0,1.029-0.4,1.169-0.811c0.03-0.09,0.05-0.189,0.05-0.279
			V249.715z"/>
		<path d="M104.549,251.286c0.26,0.17,0.719,0.35,1.159,0.35c0.64,0,0.939-0.32,0.939-0.721c0-0.42-0.25-0.648-0.899-0.889
			c-0.87-0.311-1.279-0.789-1.279-1.369c0-0.779,0.629-1.42,1.669-1.42c0.49,0,0.919,0.141,1.189,0.301l-0.22,0.639
			c-0.19-0.119-0.54-0.279-0.99-0.279c-0.52,0-0.81,0.299-0.81,0.66c0,0.398,0.29,0.58,0.919,0.818c0.84,0.32,1.27,0.74,1.27,1.459
			c0,0.85-0.66,1.449-1.809,1.449c-0.53,0-1.02-0.129-1.359-0.328L104.549,251.286z"/>
		<path d="M109.119,249.926c0.02,1.189,0.78,1.678,1.659,1.678c0.63,0,1.009-0.109,1.339-0.248l0.15,0.629
			c-0.31,0.141-0.84,0.299-1.609,0.299c-1.489,0-2.378-0.979-2.378-2.438s0.859-2.609,2.269-2.609c1.579,0,1.999,1.391,1.999,2.279
			c0,0.18-0.02,0.32-0.03,0.41H109.119z M111.697,249.295c0.01-0.559-0.23-1.428-1.219-1.428c-0.89,0-1.279,0.818-1.349,1.428
			H111.697z"/>
		<path d="M117.816,245.088v5.848c0,0.43,0.01,0.918,0.04,1.248h-0.79l-0.04-0.84h-0.02c-0.27,0.541-0.859,0.951-1.649,0.951
			c-1.169,0-2.069-0.99-2.069-2.459c-0.01-1.609,0.989-2.6,2.169-2.6c0.739,0,1.239,0.35,1.459,0.74h0.02v-2.889H117.816z
			 M116.937,249.317c0-0.111-0.01-0.26-0.04-0.371c-0.13-0.559-0.61-1.02-1.269-1.02c-0.91,0-1.449,0.801-1.449,1.869
			c0,0.98,0.479,1.789,1.429,1.789c0.589,0,1.129-0.389,1.289-1.049c0.03-0.119,0.04-0.24,0.04-0.381V249.317z"/>
		<path d="M125.777,249.725c0,1.789-1.24,2.57-2.409,2.57c-1.31,0-2.319-0.961-2.319-2.49c0-1.619,1.059-2.568,2.398-2.568
			C124.837,247.237,125.777,248.247,125.777,249.725z M121.939,249.776c0,1.059,0.609,1.859,1.469,1.859
			c0.84,0,1.469-0.789,1.469-1.879c0-0.82-0.41-1.859-1.449-1.859C122.389,247.897,121.939,248.856,121.939,249.776z"/>
		<path d="M126.889,248.657c0-0.5-0.01-0.91-0.04-1.309h0.78l0.05,0.799h0.02c0.24-0.459,0.8-0.91,1.599-0.91
			c0.67,0,1.709,0.4,1.709,2.059v2.889h-0.879v-2.787c0-0.781-0.29-1.43-1.119-1.43c-0.58,0-1.03,0.41-1.18,0.898
			c-0.04,0.111-0.06,0.26-0.06,0.41v2.908h-0.879V248.657z"/>
		<path d="M140.266,249.227c-0.05-0.939-0.11-2.07-0.1-2.91h-0.03c-0.23,0.791-0.51,1.631-0.85,2.559l-1.189,3.27h-0.66
			l-1.089-3.209c-0.32-0.949-0.59-1.818-0.779-2.619h-0.02c-0.02,0.84-0.07,1.971-0.13,2.979l-0.18,2.889h-0.83l0.47-6.736h1.109
			l1.149,3.258c0.28,0.83,0.51,1.57,0.68,2.27h0.03c0.17-0.68,0.41-1.42,0.71-2.27l1.199-3.258h1.109l0.42,6.736h-0.85
			L140.266,249.227z"/>
		<path d="M143.148,249.926c0.02,1.189,0.78,1.678,1.659,1.678c0.63,0,1.01-0.109,1.34-0.248l0.149,0.629
			c-0.31,0.141-0.84,0.299-1.609,0.299c-1.489,0-2.378-0.979-2.378-2.438s0.859-2.609,2.268-2.609c1.58,0,2,1.391,2,2.279
			c0,0.18-0.021,0.32-0.03,0.41H143.148z M145.727,249.295c0.01-0.559-0.23-1.428-1.22-1.428c-0.89,0-1.279,0.818-1.349,1.428
			H145.727z"/>
		<path d="M147.549,251.286c0.26,0.17,0.719,0.35,1.158,0.35c0.641,0,0.939-0.32,0.939-0.721c0-0.42-0.25-0.648-0.898-0.889
			c-0.87-0.311-1.279-0.789-1.279-1.369c0-0.779,0.629-1.42,1.668-1.42c0.49,0,0.92,0.141,1.189,0.301l-0.219,0.639
			c-0.19-0.119-0.541-0.279-0.99-0.279c-0.52,0-0.81,0.299-0.81,0.66c0,0.398,0.29,0.58,0.919,0.818c0.84,0.32,1.27,0.74,1.27,1.459
			c0,0.85-0.659,1.449-1.809,1.449c-0.529,0-1.02-0.129-1.359-0.328L147.549,251.286z"/>
		<path d="M151.508,251.286c0.26,0.17,0.72,0.35,1.16,0.35c0.639,0,0.939-0.32,0.939-0.721c0-0.42-0.25-0.648-0.9-0.889
			c-0.869-0.311-1.279-0.789-1.279-1.369c0-0.779,0.63-1.42,1.67-1.42c0.489,0,0.919,0.141,1.189,0.301l-0.221,0.639
			c-0.189-0.119-0.539-0.279-0.989-0.279c-0.52,0-0.81,0.299-0.81,0.66c0,0.398,0.29,0.58,0.92,0.818
			c0.84,0.32,1.27,0.74,1.27,1.459c0,0.85-0.66,1.449-1.81,1.449c-0.53,0-1.02-0.129-1.359-0.328L151.508,251.286z"/>
		<path d="M158.267,252.184l-0.069-0.609h-0.031c-0.27,0.381-0.789,0.721-1.479,0.721c-0.979,0-1.479-0.691-1.479-1.391
			c0-1.168,1.04-1.809,2.909-1.799v-0.1c0-0.4-0.11-1.119-1.1-1.119c-0.45,0-0.92,0.139-1.26,0.359l-0.199-0.58
			c0.399-0.26,0.979-0.43,1.588-0.43c1.48,0,1.84,1.01,1.84,1.979v1.811c0,0.42,0.02,0.828,0.08,1.158H158.267z M158.137,249.715
			c-0.959-0.02-2.049,0.15-2.049,1.09c0,0.57,0.379,0.84,0.83,0.84c0.629,0,1.029-0.4,1.168-0.811
			c0.031-0.09,0.051-0.189,0.051-0.279V249.715z"/>
		<path d="M164.577,247.348c-0.021,0.35-0.041,0.738-0.041,1.328v2.809c0,1.109-0.219,1.789-0.689,2.209
			c-0.47,0.439-1.148,0.58-1.759,0.58c-0.579,0-1.22-0.141-1.608-0.4l0.219-0.67c0.32,0.201,0.82,0.381,1.42,0.381
			c0.899,0,1.559-0.471,1.559-1.689v-0.539h-0.02c-0.27,0.449-0.789,0.809-1.539,0.809c-1.199,0-2.059-1.02-2.059-2.359
			c0-1.639,1.068-2.568,2.178-2.568c0.84,0,1.3,0.439,1.51,0.84h0.02l0.041-0.729H164.577z M163.667,249.256
			c0-0.15-0.01-0.279-0.05-0.4c-0.16-0.51-0.59-0.93-1.229-0.93c-0.84,0-1.439,0.711-1.439,1.83c0,0.949,0.48,1.738,1.43,1.738
			c0.539,0,1.029-0.34,1.219-0.898c0.051-0.15,0.07-0.32,0.07-0.471V249.256z"/>
		<path d="M166.488,249.926c0.021,1.189,0.78,1.678,1.659,1.678c0.63,0,1.01-0.109,1.34-0.248l0.149,0.629
			c-0.31,0.141-0.84,0.299-1.609,0.299c-1.489,0-2.378-0.979-2.378-2.438s0.859-2.609,2.268-2.609c1.58,0,2,1.391,2,2.279
			c0,0.18-0.021,0.32-0.03,0.41H166.488z M169.067,249.295c0.01-0.559-0.23-1.428-1.22-1.428c-0.89,0-1.279,0.818-1.349,1.428
			H169.067z"/>
	</g>
	<g enable-background="new    ">
		<path d="M107.688,264.004c-0.23,0.121-0.74,0.279-1.389,0.279c-1.459,0-2.409-0.988-2.409-2.469c0-1.488,1.02-2.568,2.599-2.568
			c0.52,0,0.979,0.131,1.219,0.25l-0.2,0.68c-0.21-0.119-0.54-0.229-1.02-0.229c-1.109,0-1.709,0.818-1.709,1.828
			c0,1.119,0.719,1.809,1.679,1.809c0.5,0,0.83-0.129,1.08-0.24L107.688,264.004z"/>
		<path d="M113.037,261.725c0,1.789-1.24,2.57-2.409,2.57c-1.31,0-2.319-0.961-2.319-2.49c0-1.619,1.06-2.568,2.398-2.568
			C112.097,259.237,113.037,260.247,113.037,261.725z M109.199,261.776c0,1.059,0.609,1.859,1.469,1.859
			c0.84,0,1.469-0.789,1.469-1.879c0-0.82-0.41-1.859-1.449-1.859C109.649,259.897,109.199,260.856,109.199,261.776z"/>
		<path d="M114.149,260.657c0-0.5-0.01-0.91-0.04-1.309h0.78l0.05,0.799h0.02c0.24-0.459,0.8-0.91,1.599-0.91
			c0.67,0,1.709,0.4,1.709,2.059v2.889h-0.879v-2.787c0-0.781-0.29-1.43-1.119-1.43c-0.58,0-1.03,0.41-1.18,0.898
			c-0.04,0.111-0.06,0.26-0.06,0.41v2.908h-0.879V260.657z"/>
		<path d="M119.789,264.184v-4.168h-0.679v-0.668h0.679v-0.262c0-1.279,0.75-2.107,2.109-2.107c0.45,0,0.979,0.139,1.229,0.32
			l-0.25,0.668c-0.21-0.148-0.589-0.279-1.02-0.279c-0.929,0-1.199,0.65-1.199,1.42v0.24h2.809v4.836h-0.87v-4.168h-1.939v4.168
			H119.789z"/>
		<path d="M129.097,259.348c-0.02,0.35-0.04,0.738-0.04,1.328v2.809c0,1.109-0.22,1.789-0.69,2.209
			c-0.47,0.439-1.149,0.58-1.759,0.58c-0.58,0-1.219-0.141-1.609-0.4l0.22-0.67c0.32,0.201,0.819,0.381,1.419,0.381
			c0.9,0,1.559-0.471,1.559-1.689v-0.539h-0.02c-0.27,0.449-0.79,0.809-1.54,0.809c-1.199,0-2.059-1.02-2.059-2.359
			c0-1.639,1.069-2.568,2.179-2.568c0.839,0,1.299,0.439,1.509,0.84h0.02l0.04-0.729H129.097z M128.188,261.256
			c0-0.15-0.01-0.279-0.05-0.4c-0.16-0.51-0.59-0.93-1.229-0.93c-0.839,0-1.439,0.711-1.439,1.83c0,0.949,0.479,1.738,1.429,1.738
			c0.54,0,1.029-0.34,1.219-0.898c0.05-0.15,0.07-0.32,0.07-0.471V261.256z"/>
		<path d="M134.567,262.866c0,0.5,0.01,0.939,0.04,1.318h-0.78l-0.05-0.789h-0.02c-0.23,0.391-0.74,0.9-1.599,0.9
			c-0.76,0-1.669-0.42-1.669-2.119v-2.828h0.879v2.678c0,0.92,0.28,1.539,1.08,1.539c0.589,0,1-0.41,1.159-0.799
			c0.05-0.131,0.08-0.291,0.08-0.451v-2.967h0.879V262.866z"/>
		<path d="M136.029,260.856c0-0.568-0.01-1.059-0.04-1.508h0.77l0.03,0.949h0.04c0.22-0.65,0.75-1.061,1.339-1.061
			c0.1,0,0.17,0.01,0.25,0.031v0.828c-0.09-0.02-0.18-0.029-0.3-0.029c-0.62,0-1.059,0.469-1.179,1.129
			c-0.02,0.121-0.04,0.26-0.04,0.41v2.578h-0.87V260.856z"/>
		<path d="M141.928,264.184l-0.07-0.609h-0.03c-0.27,0.381-0.79,0.721-1.479,0.721c-0.979,0-1.479-0.691-1.479-1.391
			c0-1.168,1.04-1.809,2.909-1.799v-0.1c0-0.4-0.11-1.119-1.1-1.119c-0.45,0-0.919,0.139-1.259,0.359l-0.2-0.58
			c0.4-0.26,0.979-0.43,1.589-0.43c1.479,0,1.839,1.01,1.839,1.979v1.811c0,0.42,0.02,0.828,0.08,1.158H141.928z M141.798,261.715
			c-0.959-0.02-2.049,0.15-2.049,1.09c0,0.57,0.379,0.84,0.83,0.84c0.629,0,1.029-0.4,1.169-0.811c0.03-0.09,0.05-0.189,0.05-0.279
			V261.715z"/>
		<path d="M145.088,257.958v1.391h1.26v0.668h-1.26v2.609c0,0.6,0.17,0.939,0.66,0.939c0.229,0,0.399-0.029,0.51-0.061l0.039,0.66
			c-0.17,0.07-0.439,0.119-0.779,0.119c-0.41,0-0.74-0.129-0.949-0.369c-0.25-0.26-0.34-0.689-0.34-1.26v-2.639h-0.75v-0.668h0.75
			v-1.16L145.088,257.958z"/>
		<path d="M148.319,257.989c0.01,0.299-0.211,0.539-0.561,0.539c-0.31,0-0.529-0.24-0.529-0.539c0-0.311,0.23-0.551,0.55-0.551
			C148.108,257.438,148.319,257.678,148.319,257.989z M147.338,264.184v-4.836h0.88v4.836H147.338z"/>
		<path d="M154.057,261.725c0,1.789-1.24,2.57-2.409,2.57c-1.31,0-2.319-0.961-2.319-2.49c0-1.619,1.061-2.568,2.398-2.568
			C153.117,259.237,154.057,260.247,154.057,261.725z M150.219,261.776c0,1.059,0.609,1.859,1.469,1.859
			c0.84,0,1.469-0.789,1.469-1.879c0-0.82-0.41-1.859-1.449-1.859S150.219,260.856,150.219,261.776z"/>
		<path d="M155.168,260.657c0-0.5-0.01-0.91-0.039-1.309h0.779l0.05,0.799h0.021c0.239-0.459,0.799-0.91,1.599-0.91
			c0.67,0,1.709,0.4,1.709,2.059v2.889h-0.88v-2.787c0-0.781-0.289-1.43-1.119-1.43c-0.58,0-1.029,0.41-1.18,0.898
			c-0.039,0.111-0.06,0.26-0.06,0.41v2.908h-0.88V260.657z"/>
	</g>
	<g>
		<path d="M185.651,45.279c0.42-0.07,0.969-0.13,1.669-0.13c0.859,0,1.489,0.2,1.889,0.56c0.37,0.319,0.59,0.81,0.59,1.409
			c0,0.609-0.18,1.09-0.52,1.439c-0.46,0.489-1.21,0.739-2.06,0.739c-0.26,0-0.499-0.01-0.699-0.06v2.698h-0.869V45.279z
			 M186.52,48.527c0.189,0.05,0.43,0.07,0.72,0.07c1.05,0,1.688-0.51,1.688-1.439c0-0.89-0.629-1.319-1.588-1.319
			c-0.381,0-0.67,0.03-0.82,0.07V48.527z"/>
		<path d="M196.727,48.497c0,2.319-1.408,3.549-3.128,3.549c-1.779,0-3.028-1.38-3.028-3.419c0-2.139,1.329-3.538,3.129-3.538
			C195.538,45.089,196.727,46.498,196.727,48.497z M191.5,48.607c0,1.439,0.779,2.729,2.148,2.729c1.379,0,2.159-1.27,2.159-2.799
			c0-1.339-0.7-2.738-2.149-2.738C192.219,45.799,191.5,47.128,191.5,48.607z"/>
		<path d="M197.741,50.876c0.39,0.24,0.959,0.439,1.559,0.439c0.891,0,1.41-0.47,1.41-1.148c0-0.63-0.36-0.99-1.27-1.34
			c-1.1-0.39-1.779-0.959-1.779-1.909c0-1.049,0.869-1.829,2.179-1.829c0.69,0,1.189,0.16,1.489,0.33l-0.24,0.71
			c-0.219-0.12-0.669-0.32-1.279-0.32c-0.919,0-1.269,0.55-1.269,1.01c0,0.63,0.409,0.939,1.339,1.299
			c1.14,0.44,1.719,0.99,1.719,1.979c0,1.039-0.77,1.938-2.358,1.938c-0.649,0-1.358-0.189-1.719-0.43L197.741,50.876z"/>
		<path d="M204.07,45.938h-2.049v-0.739h4.987v0.739h-2.059v5.997h-0.88V45.938z"/>
		<path d="M210.91,45.709v1.39h1.259v0.669h-1.259v2.608c0,0.601,0.17,0.939,0.659,0.939c0.23,0,0.4-0.029,0.51-0.06l0.041,0.66
			c-0.17,0.069-0.44,0.119-0.78,0.119c-0.409,0-0.739-0.13-0.949-0.369c-0.25-0.26-0.34-0.689-0.34-1.26v-2.639h-0.75v-0.669h0.75
			v-1.16L210.91,45.709z"/>
		<path d="M217.478,49.477c0,1.789-1.239,2.569-2.409,2.569c-1.309,0-2.318-0.96-2.318-2.489c0-1.619,1.06-2.568,2.398-2.568
			C216.538,46.988,217.478,47.998,217.478,49.477z M213.64,49.527c0,1.059,0.609,1.858,1.469,1.858c0.84,0,1.47-0.789,1.47-1.879
			c0-0.819-0.41-1.859-1.449-1.859S213.64,48.607,213.64,49.527z"/>
		<path d="M221.61,45.199v3.988c0,1.509,0.67,2.148,1.568,2.148c1,0,1.64-0.66,1.64-2.148v-3.988h0.88v3.928
			c0,2.069-1.09,2.919-2.549,2.919c-1.379,0-2.419-0.79-2.419-2.879v-3.968H221.61z"/>
		<path d="M227,51.036c0.26,0.17,0.719,0.35,1.159,0.35c0.64,0,0.939-0.319,0.939-0.72c0-0.42-0.25-0.649-0.899-0.89
			c-0.869-0.31-1.279-0.789-1.279-1.369c0-0.779,0.629-1.419,1.669-1.419c0.489,0,0.919,0.14,1.189,0.3l-0.22,0.64
			c-0.189-0.12-0.54-0.28-0.99-0.28c-0.52,0-0.809,0.3-0.809,0.66c0,0.399,0.289,0.58,0.919,0.819c0.84,0.32,1.27,0.739,1.27,1.459
			c0,0.85-0.659,1.449-1.81,1.449c-0.529,0-1.02-0.13-1.359-0.329L227,51.036z"/>
		<path d="M231.57,49.677c0.021,1.189,0.78,1.679,1.659,1.679c0.63,0,1.01-0.109,1.34-0.249l0.149,0.629
			c-0.31,0.141-0.84,0.3-1.609,0.3c-1.489,0-2.378-0.979-2.378-2.438s0.859-2.608,2.268-2.608c1.58,0,2,1.39,2,2.278
			c0,0.181-0.021,0.32-0.03,0.41H231.57z M234.149,49.047c0.01-0.56-0.23-1.429-1.22-1.429c-0.89,0-1.279,0.819-1.349,1.429H234.149
			z"/>
		<path d="M236.09,48.607c0-0.569-0.01-1.06-0.041-1.509h0.77l0.031,0.949h0.039c0.221-0.649,0.75-1.06,1.34-1.06
			c0.1,0,0.17,0.01,0.25,0.03v0.829c-0.09-0.02-0.18-0.03-0.301-0.03c-0.619,0-1.059,0.47-1.179,1.13
			c-0.021,0.12-0.04,0.26-0.04,0.41v2.578h-0.869V48.607z"/>
		<path d="M239.241,51.036c0.26,0.17,0.719,0.35,1.158,0.35c0.641,0,0.939-0.319,0.939-0.72c0-0.42-0.25-0.649-0.898-0.89
			c-0.87-0.31-1.279-0.789-1.279-1.369c0-0.779,0.629-1.419,1.668-1.419c0.49,0,0.92,0.14,1.189,0.3l-0.219,0.64
			c-0.19-0.12-0.541-0.28-0.99-0.28c-0.52,0-0.81,0.3-0.81,0.66c0,0.399,0.29,0.58,0.919,0.819c0.84,0.32,1.27,0.739,1.27,1.459
			c0,0.85-0.659,1.449-1.809,1.449c-0.529,0-1.02-0.13-1.359-0.329L239.241,51.036z"/>
		<path d="M246.5,45.709v1.39h1.259v0.669H246.5v2.608c0,0.601,0.17,0.939,0.659,0.939c0.23,0,0.4-0.029,0.51-0.06l0.041,0.66
			c-0.17,0.069-0.44,0.119-0.78,0.119c-0.409,0-0.739-0.13-0.949-0.369c-0.25-0.26-0.34-0.689-0.34-1.26v-2.639h-0.75v-0.669h0.75
			v-1.16L246.5,45.709z"/>
		<path d="M251.428,51.936l-0.07-0.609h-0.029c-0.271,0.38-0.79,0.72-1.479,0.72c-0.979,0-1.479-0.69-1.479-1.39
			c0-1.169,1.039-1.809,2.908-1.799v-0.101c0-0.399-0.109-1.119-1.1-1.119c-0.449,0-0.919,0.14-1.259,0.36l-0.2-0.58
			c0.4-0.26,0.98-0.43,1.59-0.43c1.479,0,1.839,1.01,1.839,1.979v1.81c0,0.42,0.021,0.829,0.079,1.159H251.428z M251.298,49.467
			c-0.96-0.02-2.049,0.15-2.049,1.09c0,0.569,0.38,0.839,0.829,0.839c0.63,0,1.029-0.399,1.17-0.81
			c0.029-0.09,0.05-0.189,0.05-0.279V49.467z"/>
		<path d="M253.53,51.936c0.02-0.33,0.04-0.819,0.04-1.249V44.84h0.87v3.038h0.02c0.31-0.54,0.869-0.89,1.648-0.89
			c1.2,0,2.049,0.999,2.039,2.469c0,1.729-1.089,2.589-2.168,2.589c-0.7,0-1.26-0.271-1.619-0.91h-0.03l-0.04,0.8H253.53z
			 M254.44,49.997c0,0.109,0.02,0.22,0.039,0.319c0.17,0.609,0.68,1.029,1.32,1.029c0.919,0,1.469-0.749,1.469-1.858
			c0-0.97-0.5-1.8-1.439-1.8c-0.6,0-1.159,0.41-1.34,1.08c-0.02,0.1-0.049,0.22-0.049,0.359V49.997z"/>
		<path d="M259.259,44.84h0.88v7.096h-0.88V44.84z"/>
		<path d="M262.11,49.677c0.02,1.189,0.779,1.679,1.658,1.679c0.631,0,1.01-0.109,1.34-0.249l0.15,0.629
			c-0.311,0.141-0.84,0.3-1.609,0.3c-1.489,0-2.379-0.979-2.379-2.438s0.859-2.608,2.269-2.608c1.579,0,1.999,1.39,1.999,2.278
			c0,0.181-0.02,0.32-0.029,0.41H262.11z M264.688,49.047c0.01-0.56-0.23-1.429-1.219-1.429c-0.891,0-1.279,0.819-1.35,1.429
			H264.688z"/>
		<path d="M266.419,47.897c0-0.369,0.25-0.629,0.6-0.629c0.351,0,0.58,0.26,0.59,0.629c0,0.351-0.229,0.62-0.6,0.62
			C266.66,48.518,266.419,48.248,266.419,47.897z M266.419,51.426c0-0.37,0.25-0.63,0.6-0.63c0.351,0,0.58,0.26,0.59,0.63
			c0,0.35-0.229,0.62-0.6,0.62C266.66,52.046,266.419,51.775,266.419,51.426z"/>
		<path d="M184.891,53.186v-0.5h83.078v0.5H184.891z"/>
	</g>
	<g enable-background="new    ">
		<path d="M187.259,63.24v0.649h-2.469V63.24H187.259z"/>
		<path d="M191.389,60.072c0.011,0.3-0.209,0.539-0.559,0.539c-0.311,0-0.53-0.239-0.53-0.539c0-0.311,0.229-0.55,0.55-0.55
			C191.18,59.522,191.389,59.762,191.389,60.072z M190.411,66.269v-4.837h0.879v4.837H190.411z"/>
		<path d="M196.928,59.173v5.847c0,0.43,0.01,0.919,0.039,1.249h-0.789l-0.04-0.84h-0.021c-0.27,0.54-0.859,0.95-1.648,0.95
			c-1.17,0-2.068-0.99-2.068-2.459c-0.011-1.609,0.988-2.599,2.168-2.599c0.74,0,1.24,0.35,1.459,0.739h0.021v-2.888H196.928z
			 M196.048,63.4c0-0.11-0.011-0.26-0.04-0.37c-0.13-0.56-0.609-1.02-1.27-1.02c-0.909,0-1.449,0.8-1.449,1.869
			c0,0.979,0.48,1.789,1.43,1.789c0.59,0,1.129-0.39,1.289-1.05c0.029-0.119,0.04-0.239,0.04-0.38V63.4z"/>
	</g>
	<g enable-background="new    ">
		<path d="M187.259,75.24v0.649h-2.469V75.24H187.259z"/>
		<path d="M190.9,76.01c0.021,1.189,0.78,1.679,1.659,1.679c0.63,0,1.01-0.109,1.34-0.249l0.149,0.629
			c-0.31,0.141-0.84,0.3-1.609,0.3c-1.489,0-2.378-0.979-2.378-2.438s0.859-2.608,2.268-2.608c1.58,0,2,1.39,2,2.278
			c0,0.181-0.021,0.32-0.03,0.41H190.9z M193.479,75.38c0.01-0.56-0.23-1.429-1.22-1.429c-0.89,0-1.279,0.819-1.349,1.429H193.479z"
			/>
		<path d="M195.42,74.74c0-0.499-0.01-0.909-0.041-1.309h0.77l0.041,0.779h0.029c0.27-0.46,0.72-0.89,1.52-0.89
			c0.66,0,1.159,0.399,1.369,0.97h0.02c0.15-0.271,0.34-0.48,0.54-0.63c0.29-0.22,0.61-0.34,1.069-0.34
			c0.641,0,1.59,0.42,1.59,2.099v2.849h-0.859V75.53c0-0.93-0.34-1.489-1.05-1.489c-0.5,0-0.89,0.37-1.04,0.8
			c-0.039,0.119-0.069,0.279-0.069,0.439v2.988h-0.86V75.37c0-0.77-0.34-1.329-1.009-1.329c-0.55,0-0.95,0.439-1.089,0.879
			c-0.051,0.131-0.07,0.28-0.07,0.431v2.918h-0.859V74.74z"/>
		<path d="M206.438,78.269l-0.069-0.609h-0.03c-0.27,0.38-0.789,0.72-1.479,0.72c-0.98,0-1.48-0.69-1.48-1.39
			c0-1.169,1.04-1.809,2.909-1.799V75.09c0-0.399-0.11-1.119-1.1-1.119c-0.45,0-0.919,0.14-1.259,0.36l-0.2-0.58
			c0.399-0.26,0.979-0.43,1.589-0.43c1.479,0,1.84,1.01,1.84,1.979v1.81c0,0.42,0.02,0.829,0.079,1.159H206.438z M206.309,75.8
			c-0.96-0.02-2.049,0.15-2.049,1.09c0,0.569,0.379,0.839,0.829,0.839c0.63,0,1.029-0.399,1.169-0.81
			c0.03-0.09,0.051-0.189,0.051-0.279V75.8z"/>
		<path d="M209.559,72.072c0.011,0.3-0.209,0.539-0.559,0.539c-0.311,0-0.53-0.239-0.53-0.539c0-0.311,0.229-0.55,0.55-0.55
			C209.35,71.522,209.559,71.762,209.559,72.072z M208.581,78.269v-4.837h0.879v4.837H208.581z"/>
		<path d="M210.92,71.173h0.879v7.096h-0.879V71.173z"/>
	</g>
	<g enable-background="new    ">
		<path d="M187.259,87.24v0.649h-2.469V87.24H187.259z"/>
		<path d="M193.858,90.089c-0.229,0.12-0.739,0.279-1.389,0.279c-1.459,0-2.408-0.989-2.408-2.469c0-1.488,1.02-2.568,2.598-2.568
			c0.52,0,0.98,0.13,1.22,0.25l-0.2,0.68c-0.209-0.12-0.539-0.229-1.02-0.229c-1.109,0-1.709,0.819-1.709,1.829
			c0,1.119,0.72,1.809,1.68,1.809c0.5,0,0.829-0.13,1.079-0.24L193.858,90.089z"/>
		<path d="M199.208,87.81c0,1.789-1.239,2.569-2.408,2.569c-1.31,0-2.318-0.96-2.318-2.489c0-1.619,1.059-2.568,2.398-2.568
			C198.268,85.321,199.208,86.331,199.208,87.81z M195.37,87.86c0,1.059,0.609,1.858,1.469,1.858c0.84,0,1.47-0.789,1.47-1.879
			c0-0.819-0.409-1.859-1.449-1.859C195.82,85.98,195.37,86.94,195.37,87.86z"/>
		<path d="M200.32,86.74c0-0.499-0.01-0.909-0.04-1.309h0.77l0.04,0.779h0.03c0.27-0.46,0.719-0.89,1.52-0.89
			c0.659,0,1.158,0.399,1.369,0.97h0.02c0.15-0.271,0.34-0.48,0.539-0.63c0.291-0.22,0.61-0.34,1.07-0.34
			c0.64,0,1.589,0.42,1.589,2.099v2.849h-0.859V87.53c0-0.93-0.34-1.489-1.05-1.489c-0.5,0-0.889,0.37-1.039,0.8
			c-0.04,0.119-0.07,0.279-0.07,0.439v2.988h-0.859V87.37c0-0.77-0.34-1.329-1.01-1.329c-0.549,0-0.949,0.439-1.089,0.879
			c-0.05,0.131-0.069,0.28-0.069,0.431v2.918h-0.86V86.74z"/>
		<path d="M208.661,87.011c0-0.62-0.021-1.12-0.041-1.579h0.79l0.04,0.829h0.02c0.36-0.59,0.93-0.939,1.72-0.939
			c1.169,0,2.049,0.989,2.049,2.459c0,1.738-1.06,2.599-2.198,2.599c-0.641,0-1.199-0.28-1.49-0.76h-0.02v2.628h-0.869V87.011z
			 M209.53,88.3c0,0.13,0.02,0.25,0.04,0.359c0.159,0.61,0.689,1.029,1.319,1.029c0.93,0,1.469-0.759,1.469-1.868
			c0-0.97-0.51-1.8-1.439-1.8c-0.6,0-1.158,0.43-1.328,1.09c-0.031,0.11-0.061,0.24-0.061,0.359V88.3z"/>
		<path d="M217.029,90.269l-0.069-0.609h-0.031c-0.27,0.38-0.789,0.72-1.479,0.72c-0.979,0-1.479-0.69-1.479-1.39
			c0-1.169,1.04-1.809,2.909-1.799V87.09c0-0.399-0.11-1.119-1.1-1.119c-0.45,0-0.92,0.14-1.26,0.36l-0.199-0.58
			c0.399-0.26,0.979-0.43,1.588-0.43c1.48,0,1.84,1.01,1.84,1.979v1.81c0,0.42,0.02,0.829,0.08,1.159H217.029z M216.899,87.8
			c-0.959-0.02-2.049,0.15-2.049,1.09c0,0.569,0.379,0.839,0.83,0.839c0.629,0,1.029-0.399,1.168-0.81
			c0.031-0.09,0.051-0.189,0.051-0.279V87.8z"/>
		<path d="M219.17,86.74c0-0.499-0.01-0.909-0.041-1.309h0.78l0.05,0.799h0.02c0.24-0.459,0.801-0.909,1.6-0.909
			c0.67,0,1.709,0.399,1.709,2.059v2.889h-0.879V87.48c0-0.78-0.29-1.43-1.119-1.43c-0.58,0-1.03,0.41-1.18,0.899
			c-0.041,0.11-0.061,0.26-0.061,0.41v2.908h-0.879V86.74z"/>
		<path d="M224.91,85.432l1.06,2.858c0.109,0.319,0.23,0.699,0.31,0.989h0.021c0.09-0.29,0.189-0.66,0.31-1.01l0.96-2.838h0.929
			l-1.319,3.447c-0.629,1.659-1.059,2.509-1.658,3.028c-0.43,0.38-0.86,0.53-1.08,0.57l-0.22-0.74c0.22-0.069,0.51-0.209,0.77-0.43
			c0.239-0.189,0.54-0.529,0.739-0.979c0.041-0.09,0.07-0.159,0.07-0.21c0-0.05-0.02-0.119-0.061-0.229l-1.789-4.457H224.91z"/>
		<path d="M233.567,91.019v0.499h-4.996v-0.499H233.567z"/>
		<path d="M234.299,86.74c0-0.499-0.01-0.909-0.039-1.309h0.779l0.05,0.799h0.021c0.239-0.459,0.799-0.909,1.599-0.909
			c0.67,0,1.709,0.399,1.709,2.059v2.889h-0.88V87.48c0-0.78-0.289-1.43-1.119-1.43c-0.58,0-1.029,0.41-1.18,0.899
			c-0.039,0.11-0.06,0.26-0.06,0.41v2.908h-0.88V86.74z"/>
		<path d="M242.528,90.269l-0.069-0.609h-0.03c-0.27,0.38-0.789,0.72-1.479,0.72c-0.98,0-1.48-0.69-1.48-1.39
			c0-1.169,1.04-1.809,2.909-1.799V87.09c0-0.399-0.11-1.119-1.1-1.119c-0.45,0-0.919,0.14-1.259,0.36l-0.2-0.58
			c0.399-0.26,0.979-0.43,1.589-0.43c1.479,0,1.84,1.01,1.84,1.979v1.81c0,0.42,0.02,0.829,0.079,1.159H242.528z M242.399,87.8
			c-0.96-0.02-2.049,0.15-2.049,1.09c0,0.569,0.379,0.839,0.829,0.839c0.63,0,1.029-0.399,1.169-0.81
			c0.03-0.09,0.051-0.189,0.051-0.279V87.8z"/>
		<path d="M244.669,86.74c0-0.499-0.01-0.909-0.04-1.309h0.77l0.04,0.779h0.03c0.27-0.46,0.719-0.89,1.52-0.89
			c0.659,0,1.158,0.399,1.369,0.97h0.02c0.15-0.271,0.34-0.48,0.539-0.63c0.291-0.22,0.61-0.34,1.07-0.34
			c0.64,0,1.589,0.42,1.589,2.099v2.849h-0.859V87.53c0-0.93-0.34-1.489-1.05-1.489c-0.5,0-0.889,0.37-1.039,0.8
			c-0.04,0.119-0.07,0.279-0.07,0.439v2.988h-0.859V87.37c0-0.77-0.34-1.329-1.01-1.329c-0.549,0-0.949,0.439-1.089,0.879
			c-0.05,0.131-0.069,0.28-0.069,0.431v2.918h-0.86V86.74z"/>
		<path d="M253.5,88.01c0.021,1.189,0.78,1.679,1.659,1.679c0.63,0,1.01-0.109,1.34-0.249l0.149,0.629
			c-0.31,0.141-0.84,0.3-1.609,0.3c-1.489,0-2.378-0.979-2.378-2.438s0.859-2.608,2.268-2.608c1.58,0,2,1.39,2,2.278
			c0,0.181-0.021,0.32-0.03,0.41H253.5z M256.079,87.38c0.01-0.56-0.23-1.429-1.22-1.429c-0.89,0-1.279,0.819-1.349,1.429H256.079z"
			/>
	</g>
	<g enable-background="new    ">
		<path d="M187.259,99.24v0.649h-2.469V99.24H187.259z"/>
		<path d="M190.411,99.011c0-0.62-0.021-1.12-0.041-1.579h0.79l0.04,0.829h0.02c0.36-0.59,0.93-0.939,1.72-0.939
			c1.169,0,2.049,0.989,2.049,2.459c0,1.738-1.06,2.599-2.198,2.599c-0.641,0-1.199-0.28-1.49-0.76h-0.02v2.628h-0.869V99.011z
			 M191.28,100.3c0,0.13,0.02,0.25,0.04,0.359c0.159,0.61,0.689,1.029,1.319,1.029c0.93,0,1.469-0.759,1.469-1.868
			c0-0.97-0.51-1.8-1.439-1.8c-0.6,0-1.158,0.43-1.328,1.09c-0.031,0.11-0.061,0.24-0.061,0.359V100.3z"/>
		<path d="M198.779,102.269l-0.069-0.609h-0.031c-0.27,0.38-0.789,0.72-1.479,0.72c-0.979,0-1.479-0.69-1.479-1.39
			c0-1.169,1.04-1.809,2.909-1.799V99.09c0-0.399-0.11-1.119-1.1-1.119c-0.45,0-0.92,0.14-1.26,0.36l-0.199-0.58
			c0.399-0.26,0.979-0.43,1.588-0.43c1.48,0,1.84,1.01,1.84,1.979v1.81c0,0.42,0.02,0.829,0.08,1.159H198.779z M198.649,99.8
			c-0.959-0.02-2.049,0.15-2.049,1.09c0,0.569,0.379,0.839,0.83,0.839c0.629,0,1.029-0.399,1.168-0.81
			c0.031-0.09,0.051-0.189,0.051-0.279V99.8z"/>
		<path d="M200.8,101.369c0.26,0.17,0.72,0.35,1.159,0.35c0.64,0,0.939-0.319,0.939-0.72c0-0.42-0.25-0.649-0.899-0.89
			c-0.87-0.31-1.279-0.789-1.279-1.369c0-0.779,0.63-1.419,1.669-1.419c0.49,0,0.92,0.14,1.189,0.3l-0.22,0.64
			c-0.19-0.12-0.54-0.28-0.989-0.28c-0.52,0-0.811,0.3-0.811,0.66c0,0.399,0.291,0.58,0.92,0.819c0.84,0.32,1.27,0.739,1.27,1.459
			c0,0.85-0.66,1.449-1.809,1.449c-0.53,0-1.02-0.13-1.359-0.329L200.8,101.369z"/>
		<path d="M204.76,101.369c0.26,0.17,0.719,0.35,1.159,0.35c0.64,0,0.939-0.319,0.939-0.72c0-0.42-0.25-0.649-0.899-0.89
			c-0.869-0.31-1.279-0.789-1.279-1.369c0-0.779,0.629-1.419,1.669-1.419c0.489,0,0.919,0.14,1.189,0.3l-0.22,0.64
			c-0.189-0.12-0.54-0.28-0.99-0.28c-0.52,0-0.809,0.3-0.809,0.66c0,0.399,0.289,0.58,0.919,0.819c0.84,0.32,1.27,0.739,1.27,1.459
			c0,0.85-0.659,1.449-1.81,1.449c-0.529,0-1.02-0.13-1.359-0.329L204.76,101.369z"/>
		<path d="M209.19,97.432l0.64,2.458c0.14,0.54,0.27,1.04,0.359,1.539h0.03c0.109-0.489,0.27-1.009,0.43-1.529l0.789-2.468h0.74
			l0.75,2.418c0.18,0.58,0.319,1.09,0.43,1.579h0.029c0.08-0.489,0.21-0.999,0.37-1.568l0.689-2.429h0.87l-1.56,4.837h-0.8
			l-0.739-2.309c-0.17-0.54-0.31-1.02-0.43-1.589h-0.021c-0.119,0.579-0.27,1.079-0.439,1.599l-0.779,2.299h-0.8l-1.46-4.837H209.19
			z"/>
		<path d="M220.477,99.81c0,1.789-1.239,2.569-2.408,2.569c-1.31,0-2.318-0.96-2.318-2.489c0-1.619,1.059-2.568,2.398-2.568
			C219.538,97.321,220.477,98.331,220.477,99.81z M216.639,99.86c0,1.059,0.609,1.858,1.469,1.858c0.84,0,1.47-0.789,1.47-1.879
			c0-0.819-0.409-1.859-1.449-1.859C217.089,97.98,216.639,98.94,216.639,99.86z"/>
		<path d="M221.59,98.94c0-0.569-0.01-1.06-0.041-1.509h0.77l0.031,0.949h0.039c0.221-0.649,0.75-1.06,1.34-1.06
			c0.1,0,0.17,0.01,0.25,0.03v0.829c-0.09-0.02-0.18-0.03-0.301-0.03c-0.619,0-1.059,0.47-1.179,1.13
			c-0.021,0.12-0.04,0.26-0.04,0.41v2.578h-0.869V98.94z"/>
		<path d="M228.938,95.173v5.847c0,0.43,0.01,0.919,0.039,1.249h-0.789l-0.04-0.84h-0.021c-0.27,0.54-0.859,0.95-1.648,0.95
			c-1.17,0-2.068-0.99-2.068-2.459c-0.011-1.609,0.988-2.599,2.168-2.599c0.74,0,1.24,0.35,1.459,0.739h0.021v-2.888H228.938z
			 M228.058,99.4c0-0.11-0.011-0.26-0.04-0.37c-0.13-0.56-0.609-1.02-1.27-1.02c-0.909,0-1.449,0.8-1.449,1.869
			c0,0.979,0.48,1.789,1.43,1.789c0.59,0,1.129-0.39,1.289-1.05c0.029-0.119,0.04-0.239,0.04-0.38V99.4z"/>
		<path d="M234.428,95.332c-0.729,0.979-1.259,2.279-1.259,4.088c0,1.779,0.55,3.059,1.259,4.058h-0.689
			c-0.629-0.829-1.309-2.108-1.309-4.058c0.01-1.969,0.68-3.248,1.309-4.088H234.428z"/>
		<path d="M235.36,95.173h0.879v3.018h0.02c0.141-0.249,0.36-0.47,0.631-0.619c0.26-0.15,0.569-0.25,0.898-0.25
			c0.65,0,1.689,0.399,1.689,2.068v2.879h-0.879V99.49c0-0.779-0.29-1.439-1.119-1.439c-0.57,0-1.02,0.399-1.18,0.88
			c-0.051,0.12-0.061,0.25-0.061,0.42v2.918h-0.879V95.173z"/>
		<path d="M243.588,102.269l-0.07-0.609h-0.029c-0.271,0.38-0.79,0.72-1.479,0.72c-0.979,0-1.479-0.69-1.479-1.39
			c0-1.169,1.039-1.809,2.908-1.799V99.09c0-0.399-0.109-1.119-1.1-1.119c-0.449,0-0.919,0.14-1.259,0.36l-0.2-0.58
			c0.4-0.26,0.98-0.43,1.59-0.43c1.479,0,1.839,1.01,1.839,1.979v1.81c0,0.42,0.021,0.829,0.079,1.159H243.588z M243.458,99.8
			c-0.96-0.02-2.049,0.15-2.049,1.09c0,0.569,0.38,0.839,0.829,0.839c0.63,0,1.029-0.399,1.17-0.81
			c0.029-0.09,0.05-0.189,0.05-0.279V99.8z"/>
		<path d="M245.61,101.369c0.26,0.17,0.719,0.35,1.159,0.35c0.64,0,0.939-0.319,0.939-0.72c0-0.42-0.25-0.649-0.899-0.89
			c-0.869-0.31-1.279-0.789-1.279-1.369c0-0.779,0.629-1.419,1.669-1.419c0.489,0,0.919,0.14,1.189,0.3l-0.22,0.64
			c-0.189-0.12-0.54-0.28-0.99-0.28c-0.52,0-0.809,0.3-0.809,0.66c0,0.399,0.289,0.58,0.919,0.819c0.84,0.32,1.27,0.739,1.27,1.459
			c0,0.85-0.659,1.449-1.81,1.449c-0.529,0-1.02-0.13-1.359-0.329L245.61,101.369z"/>
		<path d="M249.69,95.173h0.879v3.018h0.02c0.141-0.249,0.36-0.47,0.631-0.619c0.26-0.15,0.569-0.25,0.898-0.25
			c0.65,0,1.689,0.399,1.689,2.068v2.879h-0.879V99.49c0-0.779-0.29-1.439-1.119-1.439c-0.57,0-1.02,0.399-1.18,0.88
			c-0.051,0.12-0.061,0.25-0.061,0.42v2.918h-0.879V95.173z"/>
		<path d="M255.729,100.01c0.02,1.189,0.779,1.679,1.659,1.679c0.63,0,1.009-0.109,1.339-0.249l0.15,0.629
			c-0.311,0.141-0.84,0.3-1.609,0.3c-1.488,0-2.379-0.979-2.379-2.438s0.859-2.608,2.27-2.608c1.578,0,1.998,1.39,1.998,2.278
			c0,0.181-0.02,0.32-0.029,0.41H255.729z M258.307,99.38c0.011-0.56-0.229-1.429-1.219-1.429c-0.89,0-1.279,0.819-1.35,1.429
			H258.307z"/>
		<path d="M264.426,95.173v5.847c0,0.43,0.011,0.919,0.041,1.249h-0.79l-0.04-0.84h-0.02c-0.27,0.54-0.859,0.95-1.649,0.95
			c-1.169,0-2.069-0.99-2.069-2.459c-0.01-1.609,0.99-2.599,2.17-2.599c0.738,0,1.238,0.35,1.459,0.739h0.02v-2.888H264.426z
			 M263.547,99.4c0-0.11-0.01-0.26-0.04-0.37c-0.13-0.56-0.61-1.02-1.27-1.02c-0.909,0-1.448,0.8-1.448,1.869
			c0,0.979,0.479,1.789,1.429,1.789c0.589,0,1.13-0.39,1.289-1.05c0.03-0.119,0.04-0.239,0.04-0.38V99.4z"/>
	</g>
	<g>
		<path d="M204.068,139.987c0.419-0.07,0.97-0.13,1.669-0.13c0.859,0,1.489,0.2,1.889,0.56c0.37,0.319,0.59,0.81,0.59,1.409
			c0,0.609-0.18,1.09-0.52,1.439c-0.46,0.489-1.209,0.739-2.059,0.739c-0.26,0-0.5-0.01-0.7-0.06v2.698h-0.869V139.987z
			 M204.937,143.235c0.19,0.05,0.431,0.07,0.72,0.07c1.049,0,1.689-0.51,1.689-1.439c0-0.89-0.63-1.319-1.59-1.319
			c-0.379,0-0.67,0.03-0.819,0.07V143.235z"/>
		<path d="M215.145,143.205c0,2.319-1.41,3.549-3.129,3.549c-1.779,0-3.028-1.38-3.028-3.419c0-2.139,1.329-3.538,3.128-3.538
			C213.956,139.797,215.145,141.206,215.145,143.205z M209.917,143.315c0,1.439,0.78,2.729,2.149,2.729
			c1.38,0,2.159-1.27,2.159-2.799c0-1.339-0.699-2.738-2.148-2.738C210.637,140.507,209.917,141.836,209.917,143.315z"/>
		<path d="M216.158,145.584c0.39,0.24,0.96,0.439,1.56,0.439c0.889,0,1.408-0.47,1.408-1.148c0-0.63-0.359-0.99-1.269-1.34
			c-1.1-0.39-1.779-0.959-1.779-1.909c0-1.049,0.87-1.829,2.179-1.829c0.689,0,1.189,0.16,1.489,0.33l-0.239,0.71
			c-0.221-0.12-0.67-0.32-1.279-0.32c-0.92,0-1.27,0.55-1.27,1.01c0,0.63,0.41,0.939,1.339,1.299c1.14,0.44,1.72,0.99,1.72,1.979
			c0,1.039-0.77,1.938-2.359,1.938c-0.649,0-1.359-0.189-1.719-0.43L216.158,145.584z"/>
		<path d="M222.487,140.646h-2.049v-0.739h4.986v0.739h-2.059v5.997h-0.879V140.646z"/>
		<path d="M229.327,140.417v1.39h1.26v0.669h-1.26v2.608c0,0.601,0.17,0.939,0.66,0.939c0.229,0,0.399-0.029,0.51-0.06l0.039,0.66
			c-0.17,0.069-0.439,0.119-0.779,0.119c-0.41,0-0.74-0.13-0.949-0.369c-0.25-0.26-0.34-0.689-0.34-1.26v-2.639h-0.75v-0.669h0.75
			v-1.16L229.327,140.417z"/>
		<path d="M235.895,144.185c0,1.789-1.24,2.569-2.408,2.569c-1.311,0-2.319-0.96-2.319-2.489c0-1.619,1.06-2.568,2.398-2.568
			C234.956,141.696,235.895,142.706,235.895,144.185z M232.057,144.235c0,1.059,0.609,1.858,1.469,1.858
			c0.84,0,1.469-0.789,1.469-1.879c0-0.819-0.409-1.859-1.449-1.859C232.506,142.355,232.057,143.315,232.057,144.235z"/>
		<path d="M203.308,147.893v-0.5h32.97v0.5H203.308z"/>
	</g>
	<g>
		<path d="M172.686,158.424c-0.32,0.16-0.959,0.318-1.779,0.318c-1.898,0-3.328-1.199-3.328-3.408c0-2.107,1.43-3.537,3.519-3.537
			c0.839,0,1.369,0.18,1.599,0.299l-0.209,0.711c-0.33-0.16-0.8-0.279-1.359-0.279c-1.58,0-2.629,1.008-2.629,2.777
			c0,1.648,0.949,2.709,2.588,2.709c0.53,0,1.07-0.109,1.42-0.279L172.686,158.424z"/>
		<path d="M178.016,156.184c0,1.789-1.239,2.57-2.408,2.57c-1.31,0-2.318-0.961-2.318-2.49c0-1.619,1.059-2.568,2.398-2.568
			C177.077,153.696,178.016,154.706,178.016,156.184z M174.178,156.235c0,1.059,0.609,1.859,1.469,1.859
			c0.84,0,1.47-0.789,1.47-1.879c0-0.82-0.409-1.859-1.449-1.859C174.628,154.356,174.178,155.315,174.178,156.235z"/>
		<path d="M179.129,155.116c0-0.5-0.01-0.91-0.041-1.309h0.78l0.05,0.799h0.02c0.24-0.459,0.801-0.91,1.6-0.91
			c0.67,0,1.709,0.4,1.709,2.059v2.889h-0.879v-2.787c0-0.781-0.29-1.43-1.119-1.43c-0.58,0-1.03,0.41-1.18,0.898
			c-0.041,0.111-0.061,0.26-0.061,0.41v2.908h-0.879V155.116z"/>
		<path d="M184.889,153.807l0.949,2.717c0.16,0.441,0.289,0.84,0.39,1.24h0.03c0.109-0.4,0.25-0.799,0.41-1.24l0.939-2.717h0.919
			l-1.899,4.836h-0.84l-1.838-4.836H184.889z"/>
		<path d="M189.749,156.385c0.02,1.189,0.779,1.678,1.659,1.678c0.63,0,1.009-0.109,1.339-0.248l0.15,0.629
			c-0.311,0.141-0.84,0.299-1.609,0.299c-1.488,0-2.379-0.979-2.379-2.438s0.859-2.609,2.27-2.609c1.578,0,1.998,1.391,1.998,2.279
			c0,0.18-0.02,0.32-0.029,0.41H189.749z M192.327,155.754c0.011-0.559-0.229-1.428-1.219-1.428c-0.89,0-1.279,0.818-1.35,1.428
			H192.327z"/>
		<path d="M194.268,155.315c0-0.568-0.01-1.059-0.039-1.508h0.77l0.029,0.949h0.041c0.219-0.65,0.749-1.061,1.339-1.061
			c0.1,0,0.17,0.01,0.249,0.031v0.828c-0.09-0.02-0.18-0.029-0.299-0.029c-0.62,0-1.06,0.469-1.18,1.129
			c-0.02,0.121-0.04,0.26-0.04,0.41v2.578h-0.87V155.315z"/>
		<path d="M197.418,157.745c0.26,0.17,0.72,0.35,1.16,0.35c0.639,0,0.939-0.32,0.939-0.721c0-0.42-0.25-0.648-0.9-0.889
			c-0.869-0.311-1.279-0.789-1.279-1.369c0-0.779,0.63-1.42,1.67-1.42c0.489,0,0.919,0.141,1.189,0.301l-0.221,0.639
			c-0.189-0.119-0.539-0.279-0.989-0.279c-0.52,0-0.81,0.299-0.81,0.66c0,0.398,0.29,0.58,0.92,0.818
			c0.84,0.32,1.27,0.74,1.27,1.459c0,0.85-0.66,1.449-1.81,1.449c-0.53,0-1.02-0.129-1.359-0.328L197.418,157.745z"/>
		<path d="M202.478,152.448c0.011,0.299-0.21,0.539-0.56,0.539c-0.311,0-0.529-0.24-0.529-0.539c0-0.311,0.229-0.551,0.549-0.551
			C202.268,151.897,202.478,152.137,202.478,152.448z M201.499,158.643v-4.836h0.879v4.836H201.499z"/>
		<path d="M208.216,156.184c0,1.789-1.239,2.57-2.409,2.57c-1.309,0-2.318-0.961-2.318-2.49c0-1.619,1.06-2.568,2.398-2.568
			C207.276,153.696,208.216,154.706,208.216,156.184z M204.378,156.235c0,1.059,0.609,1.859,1.469,1.859
			c0.84,0,1.47-0.789,1.47-1.879c0-0.82-0.41-1.859-1.449-1.859S204.378,155.315,204.378,156.235z"/>
		<path d="M209.329,155.116c0-0.5-0.01-0.91-0.04-1.309h0.78l0.049,0.799h0.021c0.239-0.459,0.8-0.91,1.599-0.91
			c0.67,0,1.709,0.4,1.709,2.059v2.889h-0.879v-2.787c0-0.781-0.29-1.43-1.119-1.43c-0.58,0-1.029,0.41-1.18,0.898
			c-0.04,0.111-0.061,0.26-0.061,0.41v2.908h-0.879V155.116z"/>
		<path d="M219.146,159.393v0.5h-4.997v-0.5H219.146z"/>
		<path d="M223.397,155.485h-2.619v2.43h2.918v0.729h-3.787v-6.736h3.638v0.73h-2.769v2.129h2.619V155.485z"/>
		<path d="M225.069,153.807l0.949,2.717c0.16,0.441,0.289,0.84,0.39,1.24h0.03c0.109-0.4,0.25-0.799,0.41-1.24l0.939-2.717h0.919
			l-1.899,4.836h-0.84l-1.838-4.836H225.069z"/>
		<path d="M229.928,156.385c0.02,1.189,0.779,1.678,1.659,1.678c0.63,0,1.009-0.109,1.339-0.248l0.15,0.629
			c-0.311,0.141-0.84,0.299-1.609,0.299c-1.488,0-2.379-0.979-2.379-2.438s0.859-2.609,2.27-2.609c1.578,0,1.998,1.391,1.998,2.279
			c0,0.18-0.02,0.32-0.029,0.41H229.928z M232.506,155.754c0.011-0.559-0.229-1.428-1.219-1.428c-0.89,0-1.279,0.818-1.35,1.428
			H232.506z"/>
		<path d="M234.448,155.116c0-0.5-0.01-0.91-0.039-1.309h0.779l0.05,0.799h0.021c0.239-0.459,0.799-0.91,1.599-0.91
			c0.67,0,1.709,0.4,1.709,2.059v2.889h-0.88v-2.787c0-0.781-0.289-1.43-1.119-1.43c-0.58,0-1.029,0.41-1.18,0.898
			c-0.039,0.111-0.06,0.26-0.06,0.41v2.908h-0.88V155.116z"/>
		<path d="M241.018,152.417v1.391h1.259v0.668h-1.259v2.609c0,0.6,0.17,0.939,0.659,0.939c0.229,0,0.399-0.029,0.51-0.061l0.04,0.66
			c-0.17,0.07-0.439,0.119-0.779,0.119c-0.41,0-0.74-0.129-0.949-0.369c-0.25-0.26-0.34-0.689-0.34-1.26v-2.639h-0.75v-0.668h0.75
			v-1.16L241.018,152.417z"/>
		<path d="M243.149,157.745c0.26,0.17,0.719,0.35,1.158,0.35c0.641,0,0.939-0.32,0.939-0.721c0-0.42-0.25-0.648-0.898-0.889
			c-0.87-0.311-1.279-0.789-1.279-1.369c0-0.779,0.629-1.42,1.668-1.42c0.49,0,0.92,0.141,1.189,0.301l-0.219,0.639
			c-0.19-0.119-0.541-0.279-0.99-0.279c-0.52,0-0.81,0.299-0.81,0.66c0,0.398,0.29,0.58,0.919,0.818c0.84,0.32,1.27,0.74,1.27,1.459
			c0,0.85-0.659,1.449-1.809,1.449c-0.529,0-1.02-0.129-1.359-0.328L243.149,157.745z"/>
		<path d="M250.408,152.417v1.391h1.259v0.668h-1.259v2.609c0,0.6,0.17,0.939,0.659,0.939c0.23,0,0.4-0.029,0.51-0.061l0.041,0.66
			c-0.17,0.07-0.44,0.119-0.78,0.119c-0.409,0-0.739-0.129-0.949-0.369c-0.25-0.26-0.34-0.689-0.34-1.26v-2.639h-0.75v-0.668h0.75
			v-1.16L250.408,152.417z"/>
		<path d="M255.336,158.643l-0.07-0.609h-0.029c-0.271,0.381-0.79,0.721-1.479,0.721c-0.979,0-1.479-0.691-1.479-1.391
			c0-1.168,1.039-1.809,2.908-1.799v-0.1c0-0.4-0.109-1.119-1.1-1.119c-0.449,0-0.919,0.139-1.259,0.359l-0.2-0.58
			c0.4-0.26,0.98-0.43,1.59-0.43c1.479,0,1.839,1.01,1.839,1.979v1.811c0,0.42,0.021,0.828,0.079,1.158H255.336z M255.207,156.174
			c-0.96-0.02-2.049,0.15-2.049,1.09c0,0.57,0.38,0.84,0.829,0.84c0.63,0,1.029-0.4,1.17-0.811c0.029-0.09,0.05-0.189,0.05-0.279
			V156.174z"/>
		<path d="M257.438,158.643c0.02-0.33,0.04-0.818,0.04-1.248v-5.848h0.87v3.039h0.02c0.31-0.541,0.869-0.891,1.648-0.891
			c1.2,0,2.049,1,2.039,2.469c0,1.729-1.089,2.59-2.168,2.59c-0.7,0-1.26-0.271-1.619-0.91h-0.03l-0.04,0.799H257.438z
			 M258.348,156.706c0,0.109,0.02,0.219,0.039,0.318c0.17,0.609,0.68,1.029,1.32,1.029c0.919,0,1.469-0.748,1.469-1.857
			c0-0.971-0.5-1.801-1.439-1.801c-0.6,0-1.159,0.41-1.34,1.08c-0.02,0.1-0.049,0.221-0.049,0.359V156.706z"/>
		<path d="M263.167,151.547h0.88v7.096h-0.88V151.547z"/>
		<path d="M266.018,156.385c0.02,1.189,0.779,1.678,1.658,1.678c0.631,0,1.01-0.109,1.34-0.248l0.15,0.629
			c-0.311,0.141-0.84,0.299-1.609,0.299c-1.489,0-2.379-0.979-2.379-2.438s0.859-2.609,2.269-2.609c1.579,0,1.999,1.391,1.999,2.279
			c0,0.18-0.02,0.32-0.029,0.41H266.018z M268.596,155.754c0.01-0.559-0.23-1.428-1.219-1.428c-0.891,0-1.279,0.818-1.35,1.428
			H268.596z"/>
		<path d="M270.328,154.606c0-0.369,0.25-0.629,0.6-0.629c0.351,0,0.58,0.26,0.59,0.629c0,0.35-0.229,0.619-0.6,0.619
			C270.568,155.225,270.328,154.956,270.328,154.606z M270.328,158.133c0-0.369,0.25-0.629,0.6-0.629c0.351,0,0.58,0.26,0.59,0.629
			c0,0.35-0.229,0.621-0.6,0.621C270.568,158.754,270.328,158.483,270.328,158.133z"/>
		<path d="M167.219,159.893v-0.5h104.658v0.5H167.219z"/>
	</g>
	<g enable-background="new    ">
		<path d="M188.591,169.282v0.65h-2.469v-0.65H188.591z"/>
		<path d="M192.721,166.114c0.011,0.301-0.209,0.539-0.559,0.539c-0.311,0-0.53-0.238-0.53-0.539c0-0.311,0.229-0.549,0.55-0.549
			C192.512,165.565,192.721,165.803,192.721,166.114z M191.743,172.311v-4.838h0.879v4.838H191.743z"/>
		<path d="M198.26,165.215v5.846c0,0.43,0.01,0.92,0.039,1.25h-0.789l-0.04-0.84h-0.021c-0.27,0.539-0.859,0.949-1.648,0.949
			c-1.17,0-2.068-0.99-2.068-2.459c-0.011-1.609,0.988-2.598,2.168-2.598c0.74,0,1.24,0.35,1.459,0.738h0.021v-2.887H198.26z
			 M197.38,169.442c0-0.109-0.011-0.26-0.04-0.369c-0.13-0.561-0.609-1.02-1.27-1.02c-0.909,0-1.449,0.799-1.449,1.869
			c0,0.979,0.48,1.789,1.43,1.789c0.59,0,1.129-0.391,1.289-1.051c0.029-0.119,0.04-0.238,0.04-0.379V169.442z"/>
	</g>
	<g enable-background="new    ">
		<path d="M188.591,181.282v0.65h-2.469v-0.65H188.591z"/>
		<path d="M195.79,182.991c0,0.5,0.011,0.939,0.041,1.32h-0.78L195,183.52h-0.02c-0.23,0.391-0.74,0.9-1.6,0.9
			c-0.76,0-1.669-0.42-1.669-2.119v-2.828h0.88v2.678c0,0.92,0.279,1.539,1.079,1.539c0.589,0,0.999-0.408,1.159-0.799
			c0.05-0.129,0.08-0.289,0.08-0.449v-2.969h0.879V182.991z"/>
		<path d="M197.132,183.411c0.26,0.17,0.72,0.35,1.159,0.35c0.64,0,0.939-0.318,0.939-0.719c0-0.42-0.25-0.65-0.899-0.891
			c-0.87-0.309-1.279-0.789-1.279-1.369c0-0.779,0.63-1.418,1.669-1.418c0.49,0,0.92,0.139,1.189,0.299l-0.22,0.641
			c-0.19-0.121-0.54-0.281-0.989-0.281c-0.52,0-0.811,0.301-0.811,0.66c0,0.4,0.291,0.58,0.92,0.82c0.84,0.32,1.27,0.738,1.27,1.459
			c0,0.85-0.66,1.449-1.809,1.449c-0.53,0-1.02-0.131-1.359-0.33L197.132,183.411z"/>
		<path d="M201.702,182.051c0.02,1.189,0.779,1.68,1.659,1.68c0.63,0,1.009-0.109,1.339-0.25l0.15,0.629
			c-0.311,0.141-0.84,0.301-1.609,0.301c-1.488,0-2.379-0.98-2.379-2.439s0.859-2.607,2.27-2.607c1.578,0,1.998,1.389,1.998,2.277
			c0,0.182-0.02,0.32-0.029,0.41H201.702z M204.28,181.422c0.011-0.561-0.229-1.43-1.219-1.43c-0.89,0-1.279,0.82-1.35,1.43H204.28z
			"/>
		<path d="M206.221,180.983c0-0.57-0.01-1.061-0.039-1.51h0.77l0.029,0.949h0.041c0.219-0.648,0.749-1.059,1.339-1.059
			c0.1,0,0.17,0.01,0.249,0.029v0.83c-0.09-0.02-0.18-0.031-0.299-0.031c-0.62,0-1.06,0.471-1.18,1.131
			c-0.02,0.119-0.04,0.26-0.04,0.41v2.578h-0.87V180.983z"/>
		<path d="M213.759,185.061v0.498h-4.997v-0.498H213.759z"/>
		<path d="M215.471,178.114c0.01,0.301-0.21,0.539-0.56,0.539c-0.31,0-0.53-0.238-0.53-0.539c0-0.311,0.23-0.549,0.551-0.549
			C215.261,177.565,215.471,177.803,215.471,178.114z M214.492,184.311v-4.838h0.88v4.838H214.492z"/>
		<path d="M221.009,177.215v5.846c0,0.43,0.011,0.92,0.04,1.25h-0.789l-0.041-0.84h-0.02c-0.27,0.539-0.859,0.949-1.648,0.949
			c-1.17,0-2.069-0.99-2.069-2.459c-0.011-1.609,0.989-2.598,2.169-2.598c0.739,0,1.239,0.35,1.459,0.738h0.02v-2.887H221.009z
			 M220.129,181.442c0-0.109-0.01-0.26-0.039-0.369c-0.131-0.561-0.61-1.02-1.27-1.02c-0.91,0-1.449,0.799-1.449,1.869
			c0,0.979,0.479,1.789,1.43,1.789c0.589,0,1.129-0.391,1.289-1.051c0.029-0.119,0.039-0.238,0.039-0.379V181.442z"/>
	</g>
	<g enable-background="new    ">
		<path d="M187.259,207.569v0.648h-2.469v-0.648H187.259z"/>
		<path d="M193.858,210.417c-0.229,0.121-0.739,0.279-1.389,0.279c-1.459,0-2.408-0.988-2.408-2.469c0-1.488,1.02-2.568,2.598-2.568
			c0.52,0,0.98,0.131,1.22,0.25l-0.2,0.68c-0.209-0.119-0.539-0.229-1.02-0.229c-1.109,0-1.709,0.818-1.709,1.828
			c0,1.119,0.72,1.809,1.68,1.809c0.5,0,0.829-0.129,1.079-0.24L193.858,210.417z"/>
		<path d="M199.208,208.137c0,1.789-1.239,2.57-2.408,2.57c-1.31,0-2.318-0.961-2.318-2.49c0-1.619,1.059-2.568,2.398-2.568
			C198.268,205.649,199.208,206.659,199.208,208.137z M195.37,208.188c0,1.059,0.609,1.859,1.469,1.859
			c0.84,0,1.47-0.789,1.47-1.879c0-0.82-0.409-1.859-1.449-1.859C195.82,206.309,195.37,207.268,195.37,208.188z"/>
		<path d="M200.32,207.069c0-0.5-0.01-0.91-0.04-1.309h0.779l0.051,0.799h0.02c0.24-0.459,0.8-0.91,1.6-0.91
			c0.67,0,1.709,0.4,1.709,2.059v2.889h-0.88v-2.787c0-0.781-0.29-1.43-1.119-1.43c-0.58,0-1.03,0.41-1.18,0.898
			c-0.04,0.111-0.06,0.26-0.06,0.41v2.908h-0.88V207.069z"/>
		<path d="M206.081,205.76l0.949,2.717c0.16,0.441,0.289,0.84,0.39,1.24h0.03c0.109-0.4,0.25-0.799,0.41-1.24l0.939-2.717h0.919
			l-1.899,4.836h-0.84l-1.838-4.836H206.081z"/>
		<path d="M210.94,208.338c0.02,1.189,0.779,1.678,1.659,1.678c0.63,0,1.009-0.109,1.339-0.248l0.15,0.629
			c-0.311,0.141-0.84,0.299-1.609,0.299c-1.488,0-2.379-0.979-2.379-2.438s0.859-2.609,2.27-2.609c1.578,0,1.998,1.391,1.998,2.279
			c0,0.18-0.02,0.32-0.029,0.41H210.94z M213.518,207.708c0.011-0.559-0.229-1.428-1.219-1.428c-0.89,0-1.279,0.818-1.35,1.428
			H213.518z"/>
		<path d="M215.459,207.268c0-0.568-0.01-1.059-0.039-1.508h0.77l0.029,0.949h0.041c0.219-0.65,0.749-1.061,1.339-1.061
			c0.1,0,0.17,0.01,0.249,0.031v0.828c-0.09-0.02-0.18-0.029-0.299-0.029c-0.62,0-1.06,0.469-1.18,1.129
			c-0.02,0.121-0.04,0.26-0.04,0.41v2.578h-0.87V207.268z"/>
		<path d="M218.61,209.698c0.26,0.17,0.72,0.35,1.16,0.35c0.639,0,0.939-0.32,0.939-0.721c0-0.42-0.25-0.648-0.9-0.889
			c-0.869-0.311-1.279-0.789-1.279-1.369c0-0.779,0.63-1.42,1.67-1.42c0.489,0,0.919,0.141,1.189,0.301l-0.221,0.639
			c-0.189-0.119-0.539-0.279-0.989-0.279c-0.52,0-0.81,0.299-0.81,0.66c0,0.398,0.29,0.58,0.92,0.818
			c0.84,0.32,1.27,0.74,1.27,1.459c0,0.85-0.66,1.449-1.81,1.449c-0.53,0-1.02-0.129-1.359-0.328L218.61,209.698z"/>
		<path d="M223.669,204.401c0.011,0.299-0.21,0.539-0.56,0.539c-0.311,0-0.529-0.24-0.529-0.539c0-0.311,0.229-0.551,0.549-0.551
			C223.459,203.85,223.669,204.09,223.669,204.401z M222.69,210.596v-4.836h0.879v4.836H222.69z"/>
		<path d="M229.408,208.137c0,1.789-1.239,2.57-2.409,2.57c-1.309,0-2.318-0.961-2.318-2.49c0-1.619,1.06-2.568,2.398-2.568
			C228.467,205.649,229.408,206.659,229.408,208.137z M225.57,208.188c0,1.059,0.609,1.859,1.469,1.859
			c0.84,0,1.47-0.789,1.47-1.879c0-0.82-0.41-1.859-1.449-1.859S225.57,207.268,225.57,208.188z"/>
		<path d="M230.52,207.069c0-0.5-0.01-0.91-0.041-1.309h0.78l0.05,0.799h0.02c0.24-0.459,0.801-0.91,1.6-0.91
			c0.67,0,1.709,0.4,1.709,2.059v2.889h-0.879v-2.787c0-0.781-0.29-1.43-1.119-1.43c-0.58,0-1.03,0.41-1.18,0.898
			c-0.041,0.111-0.061,0.26-0.061,0.41v2.908h-0.879V207.069z"/>
		<path d="M240.337,211.346v0.5h-4.997v-0.5H240.337z"/>
		<path d="M241.559,208.338c0.021,1.189,0.78,1.678,1.66,1.678c0.629,0,1.009-0.109,1.339-0.248l0.149,0.629
			c-0.31,0.141-0.84,0.299-1.609,0.299c-1.488,0-2.378-0.979-2.378-2.438s0.859-2.609,2.269-2.609c1.579,0,1.999,1.391,1.999,2.279
			c0,0.18-0.021,0.32-0.03,0.41H241.559z M244.138,207.708c0.011-0.559-0.229-1.428-1.22-1.428c-0.889,0-1.279,0.818-1.349,1.428
			H244.138z"/>
		<path d="M246.419,205.76l0.95,2.717c0.159,0.441,0.289,0.84,0.389,1.24h0.03c0.11-0.4,0.25-0.799,0.41-1.24l0.939-2.717h0.919
			l-1.898,4.836h-0.84l-1.839-4.836H246.419z"/>
		<path d="M251.28,208.338c0.02,1.189,0.779,1.678,1.658,1.678c0.631,0,1.01-0.109,1.34-0.248l0.15,0.629
			c-0.311,0.141-0.84,0.299-1.609,0.299c-1.489,0-2.379-0.979-2.379-2.438s0.859-2.609,2.269-2.609c1.579,0,1.999,1.391,1.999,2.279
			c0,0.18-0.02,0.32-0.029,0.41H251.28z M253.858,207.708c0.01-0.559-0.23-1.428-1.219-1.428c-0.891,0-1.279,0.818-1.35,1.428
			H253.858z"/>
		<path d="M255.799,207.069c0-0.5-0.01-0.91-0.04-1.309h0.78l0.049,0.799h0.021c0.239-0.459,0.8-0.91,1.599-0.91
			c0.67,0,1.709,0.4,1.709,2.059v2.889h-0.879v-2.787c0-0.781-0.29-1.43-1.119-1.43c-0.58,0-1.029,0.41-1.18,0.898
			c-0.04,0.111-0.061,0.26-0.061,0.41v2.908h-0.879V207.069z"/>
		<path d="M262.37,204.37v1.391h1.259v0.668h-1.259v2.609c0,0.6,0.17,0.939,0.659,0.939c0.229,0,0.399-0.029,0.51-0.061l0.04,0.66
			c-0.17,0.07-0.439,0.119-0.779,0.119c-0.41,0-0.74-0.129-0.949-0.369c-0.25-0.26-0.34-0.689-0.34-1.26v-2.639h-0.75v-0.668h0.75
			v-1.16L262.37,204.37z"/>
	</g>
	<g enable-background="new    ">
		<path d="M187.66,194.708v0.65h-2.469v-0.65H187.66z"/>
		<path d="M190.811,194.479c0-0.621-0.021-1.121-0.041-1.58h0.79l0.04,0.83h0.02c0.36-0.59,0.93-0.939,1.72-0.939
			c1.169,0,2.049,0.988,2.049,2.459c0,1.738-1.06,2.598-2.198,2.598c-0.641,0-1.199-0.279-1.49-0.76h-0.02v2.629h-0.869V194.479z
			 M191.68,195.768c0,0.129,0.02,0.25,0.04,0.359c0.159,0.609,0.689,1.029,1.319,1.029c0.93,0,1.469-0.76,1.469-1.869
			c0-0.969-0.51-1.799-1.439-1.799c-0.6,0-1.158,0.43-1.328,1.09c-0.031,0.109-0.061,0.24-0.061,0.359V195.768z"/>
		<path d="M200.878,195.278c0,1.789-1.239,2.568-2.409,2.568c-1.309,0-2.318-0.959-2.318-2.488c0-1.619,1.06-2.568,2.398-2.568
			C199.938,192.79,200.878,193.799,200.878,195.278z M197.041,195.329c0,1.059,0.609,1.857,1.469,1.857
			c0.84,0,1.47-0.789,1.47-1.879c0-0.818-0.41-1.859-1.449-1.859S197.041,194.409,197.041,195.329z"/>
		<path d="M201.871,196.836c0.26,0.17,0.72,0.35,1.159,0.35c0.64,0,0.939-0.318,0.939-0.719c0-0.42-0.25-0.65-0.899-0.891
			c-0.87-0.309-1.279-0.789-1.279-1.369c0-0.779,0.63-1.418,1.669-1.418c0.49,0,0.92,0.139,1.189,0.299l-0.22,0.641
			c-0.19-0.121-0.54-0.281-0.989-0.281c-0.52,0-0.811,0.301-0.811,0.66c0,0.4,0.291,0.58,0.92,0.82c0.84,0.32,1.27,0.738,1.27,1.459
			c0,0.85-0.66,1.449-1.809,1.449c-0.53,0-1.02-0.131-1.359-0.33L201.871,196.836z"/>
		<path d="M206.93,191.54c0.01,0.301-0.211,0.539-0.561,0.539c-0.31,0-0.529-0.238-0.529-0.539c0-0.311,0.23-0.549,0.55-0.549
			C206.719,190.991,206.93,191.229,206.93,191.54z M205.95,197.737v-4.838h0.88v4.838H205.95z"/>
		<path d="M209.35,191.51v1.389h1.259v0.67h-1.259v2.607c0,0.602,0.17,0.939,0.659,0.939c0.229,0,0.399-0.029,0.51-0.059l0.04,0.66
			c-0.17,0.068-0.439,0.119-0.779,0.119c-0.41,0-0.74-0.131-0.949-0.369c-0.25-0.26-0.34-0.689-0.34-1.26v-2.639h-0.75v-0.67h0.75
			v-1.16L209.35,191.51z"/>
		<path d="M212.58,191.54c0.011,0.301-0.21,0.539-0.56,0.539c-0.311,0-0.529-0.238-0.529-0.539c0-0.311,0.229-0.549,0.549-0.549
			C212.37,190.991,212.58,191.229,212.58,191.54z M211.6,197.737v-4.838h0.879v4.838H211.6z"/>
		<path d="M218.318,195.278c0,1.789-1.239,2.568-2.409,2.568c-1.309,0-2.318-0.959-2.318-2.488c0-1.619,1.06-2.568,2.398-2.568
			C217.377,192.79,218.318,193.799,218.318,195.278z M214.48,195.329c0,1.059,0.609,1.857,1.469,1.857c0.84,0,1.47-0.789,1.47-1.879
			c0-0.818-0.41-1.859-1.449-1.859S214.48,194.409,214.48,195.329z"/>
		<path d="M219.43,194.208c0-0.498-0.01-0.908-0.04-1.309h0.78l0.049,0.799h0.021c0.239-0.459,0.8-0.908,1.599-0.908
			c0.67,0,1.709,0.398,1.709,2.059v2.889h-0.879v-2.789c0-0.779-0.29-1.43-1.119-1.43c-0.58,0-1.029,0.41-1.18,0.9
			c-0.04,0.109-0.061,0.26-0.061,0.41v2.908h-0.879V194.208z"/>
	</g>
	<rect x="231.491" y="57.102" fill="#DAB0D3" width="34.332" height="17.667"/>
	<g enable-background="new    ">
		<path fill="#2E3192" d="M243.006,66.983l-0.7,2.119h-0.899l2.289-6.736h1.049l2.299,6.736h-0.93l-0.719-2.119H243.006z
			 M245.214,66.304l-0.659-1.938c-0.15-0.439-0.25-0.84-0.35-1.229h-0.021c-0.101,0.399-0.21,0.81-0.34,1.22l-0.659,1.948H245.214z"
			/>
		<path fill="#2E3192" d="M248.037,62.446c0.419-0.07,0.97-0.13,1.669-0.13c0.859,0,1.489,0.2,1.889,0.56
			c0.37,0.319,0.59,0.81,0.59,1.409c0,0.609-0.18,1.09-0.52,1.439c-0.46,0.489-1.209,0.739-2.059,0.739c-0.26,0-0.5-0.01-0.7-0.06
			v2.698h-0.869V62.446z M248.906,65.694c0.19,0.05,0.431,0.07,0.72,0.07c1.049,0,1.689-0.51,1.689-1.439
			c0-0.89-0.63-1.319-1.59-1.319c-0.379,0-0.67,0.03-0.819,0.07V65.694z"/>
		<path fill="#2E3192" d="M254.225,62.366v6.736h-0.869v-6.736H254.225z"/>
	</g>
	<rect x="232.823" y="164.186" fill="#DAB0D3" width="34.334" height="17.667"/>
	<g enable-background="new    ">
		<path fill="#2E3192" d="M245.172,174.733l-0.7,2.119h-0.899l2.289-6.736h1.049l2.299,6.736h-0.93l-0.719-2.119H245.172z
			 M247.38,174.053l-0.659-1.938c-0.15-0.439-0.25-0.84-0.35-1.23h-0.021c-0.101,0.4-0.21,0.811-0.34,1.221l-0.659,1.947H247.38z"/>
		<path fill="#2E3192" d="M250.203,170.196c0.419-0.07,0.97-0.129,1.669-0.129c0.859,0,1.489,0.199,1.889,0.559
			c0.37,0.32,0.59,0.811,0.59,1.41c0,0.609-0.18,1.09-0.52,1.439c-0.46,0.488-1.209,0.738-2.059,0.738c-0.26,0-0.5-0.01-0.7-0.059
			v2.697h-0.869V170.196z M251.072,173.444c0.19,0.051,0.431,0.07,0.72,0.07c1.049,0,1.689-0.51,1.689-1.439
			c0-0.889-0.63-1.318-1.59-1.318c-0.379,0-0.67,0.029-0.819,0.07V173.444z"/>
		<path fill="#2E3192" d="M256.391,170.116v6.736h-0.869v-6.736H256.391z"/>
	</g>
	<rect x="15.491" y="46.685" fill="#FEE4A1" width="53.333" height="26.667"/>
	<g enable-background="new    ">
		<path fill="#2E3192" d="M23.453,56.616v3.988c0,1.509,0.67,2.148,1.569,2.148c1,0,1.639-0.66,1.639-2.148v-3.988h0.879v3.928
			c0,2.069-1.089,2.919-2.548,2.919c-1.379,0-2.419-0.79-2.419-2.879v-3.968H23.453z"/>
		<path fill="#2E3192" d="M28.934,62.293c0.39,0.24,0.959,0.439,1.559,0.439c0.89,0,1.409-0.47,1.409-1.148
			c0-0.63-0.36-0.99-1.269-1.34c-1.1-0.39-1.779-0.959-1.779-1.909c0-1.049,0.87-1.829,2.179-1.829c0.69,0,1.189,0.16,1.489,0.33
			l-0.24,0.71c-0.22-0.12-0.669-0.32-1.279-0.32c-0.919,0-1.269,0.55-1.269,1.01c0,0.63,0.41,0.939,1.339,1.299
			c1.14,0.44,1.719,0.99,1.719,1.979c0,1.039-0.77,1.938-2.359,1.938c-0.649,0-1.359-0.189-1.719-0.43L28.934,62.293z"/>
		<path fill="#2E3192" d="M37.472,60.194h-2.619v2.429h2.918v0.729h-3.788v-6.736h3.638v0.729h-2.769v2.129h2.619V60.194z"/>
		<path fill="#2E3192" d="M38.904,56.706c0.439-0.09,1.069-0.14,1.669-0.14c0.929,0,1.529,0.17,1.949,0.55
			c0.34,0.3,0.53,0.76,0.53,1.279c0,0.89-0.56,1.479-1.269,1.719v0.03c0.52,0.18,0.83,0.659,0.989,1.359
			c0.22,0.939,0.38,1.589,0.52,1.849h-0.899c-0.11-0.189-0.26-0.77-0.45-1.609c-0.2-0.93-0.56-1.279-1.349-1.309h-0.82v2.918h-0.869
			V56.706z M39.773,59.774h0.89c0.93,0,1.519-0.51,1.519-1.279c0-0.869-0.629-1.249-1.549-1.259c-0.42,0-0.72,0.04-0.86,0.079
			V59.774z"/>
		<path fill="#2E3192" d="M47.493,61.233l-0.7,2.119h-0.899l2.289-6.736h1.049l2.299,6.736h-0.93l-0.719-2.119H47.493z
			 M49.701,60.554l-0.66-1.938c-0.15-0.439-0.25-0.84-0.35-1.229h-0.02c-0.1,0.399-0.21,0.81-0.34,1.22l-0.66,1.948H49.701z"/>
		<path fill="#2E3192" d="M52.523,56.696c0.419-0.07,0.969-0.13,1.669-0.13c0.859,0,1.489,0.2,1.889,0.56
			c0.37,0.319,0.59,0.81,0.59,1.409c0,0.609-0.18,1.09-0.52,1.439c-0.46,0.489-1.209,0.739-2.059,0.739c-0.26,0-0.5-0.01-0.7-0.06
			v2.698h-0.869V56.696z M53.393,59.944c0.19,0.05,0.43,0.07,0.72,0.07c1.049,0,1.689-0.51,1.689-1.439
			c0-0.89-0.629-1.319-1.589-1.319c-0.38,0-0.67,0.03-0.82,0.07V59.944z"/>
		<path fill="#2E3192" d="M57.844,56.696c0.419-0.07,0.969-0.13,1.669-0.13c0.859,0,1.489,0.2,1.889,0.56
			c0.37,0.319,0.59,0.81,0.59,1.409c0,0.609-0.18,1.09-0.52,1.439c-0.46,0.489-1.209,0.739-2.059,0.739c-0.26,0-0.5-0.01-0.7-0.06
			v2.698h-0.869V56.696z M58.713,59.944c0.19,0.05,0.43,0.07,0.72,0.07c1.049,0,1.689-0.51,1.689-1.439
			c0-0.89-0.629-1.319-1.589-1.319c-0.38,0-0.67,0.03-0.82,0.07V59.944z"/>
	</g>
	<rect x="15.491" y="145.474" fill="#FEE4A1" width="53.333" height="26.667"/>
	<g enable-background="new    ">
		<path fill="#2E3192" d="M23.453,155.405v3.988c0,1.508,0.67,2.148,1.569,2.148c1,0,1.639-0.66,1.639-2.148v-3.988h0.879v3.928
			c0,2.068-1.089,2.918-2.548,2.918c-1.379,0-2.419-0.789-2.419-2.879v-3.967H23.453z"/>
		<path fill="#2E3192" d="M28.934,161.081c0.39,0.24,0.959,0.439,1.559,0.439c0.89,0,1.409-0.469,1.409-1.148
			c0-0.629-0.36-0.99-1.269-1.34c-1.1-0.389-1.779-0.959-1.779-1.908c0-1.049,0.87-1.83,2.179-1.83c0.69,0,1.189,0.16,1.489,0.33
			l-0.24,0.711c-0.22-0.121-0.669-0.32-1.279-0.32c-0.919,0-1.269,0.549-1.269,1.01c0,0.629,0.41,0.939,1.339,1.299
			c1.14,0.439,1.719,0.99,1.719,1.979c0,1.039-0.77,1.939-2.359,1.939c-0.649,0-1.359-0.189-1.719-0.43L28.934,161.081z"/>
		<path fill="#2E3192" d="M37.472,158.983h-2.619v2.428h2.918v0.73h-3.788v-6.736h3.638v0.729h-2.769v2.129h2.619V158.983z"/>
		<path fill="#2E3192" d="M38.904,155.495c0.439-0.09,1.069-0.141,1.669-0.141c0.929,0,1.529,0.17,1.949,0.551
			c0.34,0.299,0.53,0.76,0.53,1.279c0,0.889-0.56,1.479-1.269,1.719v0.029c0.52,0.18,0.83,0.66,0.989,1.359
			c0.22,0.939,0.38,1.59,0.52,1.85h-0.899c-0.11-0.189-0.26-0.77-0.45-1.609c-0.2-0.93-0.56-1.279-1.349-1.309h-0.82v2.918h-0.869
			V155.495z M39.773,158.563h0.89c0.93,0,1.519-0.51,1.519-1.279c0-0.869-0.629-1.25-1.549-1.26c-0.42,0-0.72,0.041-0.86,0.08
			V158.563z"/>
		<path fill="#2E3192" d="M47.493,160.022l-0.7,2.119h-0.899l2.289-6.736h1.049l2.299,6.736h-0.93l-0.719-2.119H47.493z
			 M49.701,159.342l-0.66-1.939c-0.15-0.439-0.25-0.84-0.35-1.229h-0.02c-0.1,0.398-0.21,0.809-0.34,1.219l-0.66,1.949H49.701z"/>
		<path fill="#2E3192" d="M52.523,155.485c0.419-0.07,0.969-0.131,1.669-0.131c0.859,0,1.489,0.201,1.889,0.561
			c0.37,0.318,0.59,0.809,0.59,1.408c0,0.609-0.18,1.09-0.52,1.439c-0.46,0.49-1.209,0.74-2.059,0.74c-0.26,0-0.5-0.01-0.7-0.061
			v2.699h-0.869V155.485z M53.393,158.733c0.19,0.049,0.43,0.07,0.72,0.07c1.049,0,1.689-0.51,1.689-1.439
			c0-0.891-0.629-1.32-1.589-1.32c-0.38,0-0.67,0.031-0.82,0.07V158.733z"/>
		<path fill="#2E3192" d="M57.844,155.485c0.419-0.07,0.969-0.131,1.669-0.131c0.859,0,1.489,0.201,1.889,0.561
			c0.37,0.318,0.59,0.809,0.59,1.408c0,0.609-0.18,1.09-0.52,1.439c-0.46,0.49-1.209,0.74-2.059,0.74c-0.26,0-0.5-0.01-0.7-0.061
			v2.699h-0.869V155.485z M58.713,158.733c0.19,0.049,0.43,0.07,0.72,0.07c1.049,0,1.689-0.51,1.689-1.439
			c0-0.891-0.629-1.32-1.589-1.32c-0.38,0-0.67,0.031-0.82,0.07V158.733z"/>
	</g>
	<rect x="15.491" y="234.808" fill="#FEE4A1" width="53.333" height="26.667"/>
	<g enable-background="new    ">
		<path fill="#2E3192" d="M23.453,244.739v3.988c0,1.508,0.67,2.148,1.569,2.148c1,0,1.639-0.66,1.639-2.148v-3.988h0.879v3.928
			c0,2.068-1.089,2.918-2.548,2.918c-1.379,0-2.419-0.789-2.419-2.879v-3.967H23.453z"/>
		<path fill="#2E3192" d="M28.934,250.415c0.39,0.24,0.959,0.439,1.559,0.439c0.89,0,1.409-0.469,1.409-1.148
			c0-0.629-0.36-0.99-1.269-1.34c-1.1-0.389-1.779-0.959-1.779-1.908c0-1.049,0.87-1.83,2.179-1.83c0.69,0,1.189,0.16,1.489,0.33
			l-0.24,0.711c-0.22-0.121-0.669-0.32-1.279-0.32c-0.919,0-1.269,0.549-1.269,1.01c0,0.629,0.41,0.939,1.339,1.299
			c1.14,0.439,1.719,0.99,1.719,1.979c0,1.039-0.77,1.939-2.359,1.939c-0.649,0-1.359-0.189-1.719-0.43L28.934,250.415z"/>
		<path fill="#2E3192" d="M37.472,248.317h-2.619v2.428h2.918v0.73h-3.788v-6.736h3.638v0.729h-2.769v2.129h2.619V248.317z"/>
		<path fill="#2E3192" d="M38.904,244.829c0.439-0.09,1.069-0.141,1.669-0.141c0.929,0,1.529,0.17,1.949,0.551
			c0.34,0.299,0.53,0.76,0.53,1.279c0,0.889-0.56,1.479-1.269,1.719v0.029c0.52,0.18,0.83,0.66,0.989,1.359
			c0.22,0.939,0.38,1.59,0.52,1.85h-0.899c-0.11-0.189-0.26-0.77-0.45-1.609c-0.2-0.93-0.56-1.279-1.349-1.309h-0.82v2.918h-0.869
			V244.829z M39.773,247.897h0.89c0.93,0,1.519-0.51,1.519-1.279c0-0.869-0.629-1.25-1.549-1.26c-0.42,0-0.72,0.041-0.86,0.08
			V247.897z"/>
		<path fill="#2E3192" d="M47.493,249.356l-0.7,2.119h-0.899l2.289-6.736h1.049l2.299,6.736h-0.93l-0.719-2.119H47.493z
			 M49.701,248.676l-0.66-1.939c-0.15-0.439-0.25-0.84-0.35-1.229h-0.02c-0.1,0.398-0.21,0.809-0.34,1.219l-0.66,1.949H49.701z"/>
		<path fill="#2E3192" d="M52.523,244.819c0.419-0.07,0.969-0.131,1.669-0.131c0.859,0,1.489,0.201,1.889,0.561
			c0.37,0.318,0.59,0.809,0.59,1.408c0,0.609-0.18,1.09-0.52,1.439c-0.46,0.49-1.209,0.74-2.059,0.74c-0.26,0-0.5-0.01-0.7-0.061
			v2.699h-0.869V244.819z M53.393,248.067c0.19,0.049,0.43,0.07,0.72,0.07c1.049,0,1.689-0.51,1.689-1.439
			c0-0.891-0.629-1.32-1.589-1.32c-0.38,0-0.67,0.031-0.82,0.07V248.067z"/>
		<path fill="#2E3192" d="M57.844,244.819c0.419-0.07,0.969-0.131,1.669-0.131c0.859,0,1.489,0.201,1.889,0.561
			c0.37,0.318,0.59,0.809,0.59,1.408c0,0.609-0.18,1.09-0.52,1.439c-0.46,0.49-1.209,0.74-2.059,0.74c-0.26,0-0.5-0.01-0.7-0.061
			v2.699h-0.869V244.819z M58.713,248.067c0.19,0.049,0.43,0.07,0.72,0.07c1.049,0,1.689-0.51,1.689-1.439
			c0-0.891-0.629-1.32-1.589-1.32c-0.38,0-0.67,0.031-0.82,0.07V248.067z"/>
	</g>
	<g>
		<path fill="#FFFFFF" d="M107.158,75.685"/>
	</g>
	<g>
		<g>
			<line fill="none" stroke="#000000" stroke-miterlimit="10" x1="107.158" y1="131.439" x2="107.158" y2="75.685"/>
			<g>
				<path d="M107.158,137.475c1.054-2.84,2.852-6.363,4.756-8.547l-4.756,1.72l-4.755-1.72
					C104.307,131.111,106.105,134.635,107.158,137.475z"/>
			</g>
		</g>
	</g>
	<g>
		<g>
			<line fill="none" stroke="#000000" stroke-miterlimit="10" x1="107.158" y1="217.334" x2="107.158" y2="178.141"/>
			<g>
				<path d="M107.158,223.37c1.054-2.84,2.852-6.363,4.756-8.547l-4.756,1.721l-4.755-1.721
					C104.307,217.006,106.105,220.53,107.158,223.37z"/>
			</g>
		</g>
	</g>
</g>
</svg>
