<?xml version="1.0" encoding="utf-8"?>
<!-- Generator: Adobe Illustrator 16.2.1, SVG Export Plug-In . SVG Version: 6.00 Build 0)  -->
<!DOCTYPE svg PUBLIC "-//W3C//DTD SVG 1.1//EN" "http://www.w3.org/Graphics/SVG/1.1/DTD/svg11.dtd">
<svg version="1.1" id="Layer_1" xmlns="http://www.w3.org/2000/svg" xmlns:xlink="http://www.w3.org/1999/xlink" x="0px" y="0px"
	 width="286.5px" height="293px" viewBox="0 0 286.5 293" enable-background="new 0 0 286.5 293" xml:space="preserve">
<rect x="3.877" y="3.019" fill="#FFFFFF" stroke="#000000" stroke-miterlimit="10" width="278.913" height="286.249"/>
<text transform="matrix(1 0 0 1 59.1206 27.9336)"><tspan x="0" y="0" fill="#BE1E2D" font-family="'MyriadPro-Regular'" font-size="12">STEP 2: CUSTOMER VISITS USER’S </tspan><tspan x="54.023" y="14.4" fill="#BE1E2D" font-family="'MyriadPro-Regular'" font-size="12">HOMEPAGE</tspan></text>
<rect x="67.991" y="57.185" fill="#FFFFFF" stroke="#000000" stroke-miterlimit="10" width="60.667" height="31.333"/>
<text transform="matrix(1 0 0 1 74.0298 70.5176)"><tspan x="0" y="0" font-family="'MyriadPro-Regular'" font-size="10">Homepage </tspan><tspan x="11.979" y="12" font-family="'MyriadPro-Regular'" font-size="10">Loads</tspan></text>
<rect x="68.324" y="218.641" fill="#FFFFFF" stroke="#000000" stroke-miterlimit="10" width="60.333" height="31.334"/>
<text transform="matrix(1 0 0 1 79.7959 231.2695)"><tspan x="0" y="0" font-family="'MyriadPro-Regular'" font-size="10">Message</tspan><tspan x="3.755" y="12" font-family="'MyriadPro-Regular'" font-size="10">Shown</tspan></text>
<g>
	<g>
		<line fill="none" stroke="#000000" stroke-miterlimit="10" x1="98.324" y1="212.605" x2="98.324" y2="88.518"/>
		<g>
			<path d="M98.324,218.641c1.054-2.84,2.852-6.363,4.756-8.547l-4.756,1.72l-4.755-1.72
				C95.474,212.277,97.271,215.801,98.324,218.641z"/>
		</g>
	</g>
</g>
<text transform="matrix(1 0 0 1 143.4414 62.8521)" font-family="'MyriadPro-Regular'" font-size="10" text-decoration=" underline">COMPILE  Message where:</text>
<text transform="matrix(1 0 0 1 145.3516 164.2852)" font-family="'MyriadPro-Regular'" font-size="10" text-decoration=" underline">POST  to Customers table:</text>
<text transform="matrix(1 0 0 1 142.5 208.2559)"><tspan x="0" y="0" font-family="'MyriadPro-Regular'" font-size="10" text-decoration=" underline">POST  to Customer_Activities</tspan><tspan x="48.859" y="12" font-family="'MyriadPro-Regular'" font-size="10" text-decoration=" underline">table:</tspan></text>
<text transform="matrix(1 0 0 1 142.6582 77.1846)"><tspan x="0" y="0" font-family="'MyriadPro-Regular'" font-size="10">- createdAt (customer_activities)</tspan><tspan x="0" y="12" font-family="'MyriadPro-Regular'" font-size="10">= most recent</tspan><tspan x="0" y="24" font-family="'MyriadPro-Regular'" font-size="10">- user_id = id</tspan><tspan x="0" y="36" font-family="'MyriadPro-Regular'" font-size="10">- conversion_id = id</tspan><tspan x="0" y="48" font-family="'MyriadPro-Regular'" font-size="10">- logo = associated with</tspan><tspan x="0" y="60" font-family="'MyriadPro-Regular'" font-size="10">customer_id</tspan></text>
<text transform="matrix(1 0 0 1 148.335 178.9961)" font-family="'MyriadPro-Regular'" font-size="10">- id</text>
<text transform="matrix(1 0 0 1 148.334 229.1025)"><tspan x="0" y="0" font-family="'MyriadPro-Regular'" font-size="10">- id</tspan><tspan x="0" y="12" font-family="'MyriadPro-Regular'" font-size="10">- event (view)</tspan><tspan x="0" y="24" font-family="'MyriadPro-Regular'" font-size="10">- props (message_id)</tspan><tspan x="0" y="36" font-family="'MyriadPro-Regular'" font-size="10">- user_id</tspan><tspan x="0" y="48" font-family="'MyriadPro-Regular'" font-size="10">- customer_id</tspan></text>
<rect x="218.657" y="82.602" fill="#DAB0D3" width="34.332" height="17.667"/>
<text transform="matrix(1 0 0 1 228.3242 94.6021)" fill="#2E3192" font-family="'MyriadPro-Regular'" font-size="10">API</text>
<rect x="218.657" y="171.52" fill="#DAB0D3" width="34.332" height="17.667"/>
<text transform="matrix(1 0 0 1 228.3242 183.5195)" fill="#2E3192" font-family="'MyriadPro-Regular'" font-size="10">API</text>
<rect x="218.657" y="220.27" fill="#DAB0D3" width="34.332" height="17.666"/>
<text transform="matrix(1 0 0 1 228.3242 232.2695)" fill="#2E3192" font-family="'MyriadPro-Regular'" font-size="10">API</text>
<rect x="10.211" y="59.936" fill="#FEE4A1" width="53.333" height="26.667"/>
<text transform="matrix(1 0 0 1 16.5444 76.603)" fill="#2E3192" font-family="'MyriadPro-Regular'" font-size="10">USER APP</text>
<rect x="10.211" y="220.975" fill="#FEE4A1" width="53.333" height="26.667"/>
<text transform="matrix(1 0 0 1 16.5444 237.6426)" fill="#2E3192" font-family="'MyriadPro-Regular'" font-size="10">USER APP</text>
</svg>
