<?xml version="1.0" encoding="utf-8"?>
<!-- Generator: Adobe Illustrator 16.2.1, SVG Export Plug-In . SVG Version: 6.00 Build 0)  -->
<!DOCTYPE svg PUBLIC "-//W3C//DTD SVG 1.1//EN" "http://www.w3.org/Graphics/SVG/1.1/DTD/svg11.dtd">
<svg version="1.1" id="Layer_1" xmlns="http://www.w3.org/2000/svg" xmlns:xlink="http://www.w3.org/1999/xlink" x="0px" y="0px"
	 width="286.5px" height="293px" viewBox="0 0 286.5 293" enable-background="new 0 0 286.5 293" xml:space="preserve">
<rect x="3.877" y="3.019" fill="#FFFFFF" stroke="#000000" stroke-miterlimit="10" width="278.913" height="286.249"/>
<g enable-background="new    ">
	<path fill="#BE1E2D" d="M59.888,26.662c0.468,0.288,1.151,0.528,1.871,0.528c1.067,0,1.691-0.564,1.691-1.38
		c0-0.756-0.432-1.188-1.523-1.606c-1.319-0.468-2.135-1.151-2.135-2.291c0-1.26,1.043-2.195,2.614-2.195
		c0.828,0,1.427,0.192,1.787,0.396l-0.288,0.852c-0.264-0.145-0.803-0.384-1.535-0.384c-1.103,0-1.523,0.659-1.523,1.211
		c0,0.756,0.492,1.127,1.607,1.56c1.367,0.527,2.063,1.187,2.063,2.374c0,1.248-0.923,2.327-2.831,2.327
		c-0.779,0-1.631-0.229-2.062-0.516L59.888,26.662z"/>
	<path fill="#BE1E2D" d="M67.483,20.737h-2.459V19.85h5.985v0.888h-2.471v7.196h-1.055V20.737z"/>
	<path fill="#BE1E2D" d="M76.098,24.144h-3.142v2.914h3.502v0.876h-4.545V19.85h4.366v0.876h-3.322v2.555h3.142V24.144z"/>
	<path fill="#BE1E2D" d="M77.816,19.946c0.503-0.084,1.163-0.156,2.003-0.156c1.031,0,1.787,0.24,2.267,0.672
		c0.444,0.384,0.708,0.972,0.708,1.69c0,0.732-0.216,1.308-0.624,1.728c-0.552,0.588-1.451,0.888-2.471,0.888
		c-0.312,0-0.6-0.013-0.839-0.072v3.238h-1.043V19.946z M78.859,23.844c0.228,0.061,0.516,0.084,0.863,0.084
		c1.259,0,2.027-0.611,2.027-1.727c0-1.067-0.755-1.584-1.907-1.584c-0.456,0-0.804,0.036-0.983,0.084V23.844z"/>
	<path fill="#BE1E2D" d="M86.372,27.934v-0.647l0.828-0.804c1.991-1.895,2.891-2.902,2.902-4.078c0-0.791-0.384-1.522-1.547-1.522
		c-0.708,0-1.295,0.359-1.655,0.659l-0.336-0.743c0.54-0.456,1.308-0.792,2.207-0.792c1.679,0,2.387,1.151,2.387,2.267
		c0,1.439-1.043,2.603-2.687,4.186l-0.624,0.576v0.023h3.502v0.876H86.372z"/>
	<path fill="#BE1E2D" d="M92.611,23.088c0-0.443,0.3-0.755,0.72-0.755s0.696,0.312,0.708,0.755c0,0.42-0.276,0.744-0.72,0.744
		C92.899,23.832,92.611,23.508,92.611,23.088z M92.611,27.322c0-0.444,0.3-0.756,0.72-0.756s0.696,0.312,0.708,0.756
		c0,0.42-0.276,0.743-0.72,0.743C92.899,28.065,92.611,27.742,92.611,27.322z"/>
	<path fill="#BE1E2D" d="M103.576,27.67c-0.384,0.191-1.151,0.384-2.135,0.384c-2.279,0-3.994-1.439-3.994-4.09
		c0-2.53,1.715-4.246,4.222-4.246c1.007,0,1.643,0.216,1.919,0.36l-0.252,0.852c-0.396-0.192-0.959-0.336-1.631-0.336
		c-1.895,0-3.154,1.211-3.154,3.334c0,1.979,1.139,3.25,3.106,3.25c0.635,0,1.283-0.132,1.703-0.336L103.576,27.67z"/>
	<path fill="#BE1E2D" d="M105.931,19.85v4.786c0,1.811,0.803,2.578,1.883,2.578c1.199,0,1.967-0.791,1.967-2.578V19.85h1.056v4.714
		c0,2.482-1.308,3.502-3.059,3.502c-1.655,0-2.902-0.947-2.902-3.454V19.85H105.931z"/>
	<path fill="#BE1E2D" d="M112.507,26.662c0.468,0.288,1.151,0.528,1.871,0.528c1.067,0,1.691-0.564,1.691-1.38
		c0-0.756-0.432-1.188-1.523-1.606c-1.319-0.468-2.135-1.151-2.135-2.291c0-1.26,1.043-2.195,2.615-2.195
		c0.828,0,1.427,0.192,1.787,0.396l-0.288,0.852c-0.264-0.145-0.803-0.384-1.535-0.384c-1.103,0-1.523,0.659-1.523,1.211
		c0,0.756,0.492,1.127,1.607,1.56c1.368,0.527,2.063,1.187,2.063,2.374c0,1.248-0.923,2.327-2.831,2.327
		c-0.779,0-1.631-0.229-2.062-0.516L112.507,26.662z"/>
	<path fill="#BE1E2D" d="M120.102,20.737h-2.459V19.85h5.985v0.888h-2.471v7.196h-1.055V20.737z"/>
	<path fill="#BE1E2D" d="M131.115,23.808c0,2.782-1.691,4.258-3.754,4.258c-2.135,0-3.634-1.655-3.634-4.102
		c0-2.566,1.595-4.246,3.754-4.246C129.688,19.718,131.115,21.409,131.115,23.808z M124.843,23.939c0,1.728,0.935,3.274,2.579,3.274
		c1.655,0,2.59-1.523,2.59-3.358c0-1.606-0.839-3.286-2.579-3.286C125.706,20.569,124.843,22.165,124.843,23.939z"/>
	<path fill="#BE1E2D" d="M139.287,24.384c-0.06-1.128-0.132-2.482-0.12-3.49h-0.036c-0.276,0.947-0.612,1.955-1.02,3.07
		l-1.427,3.922h-0.792l-1.307-3.85c-0.384-1.14-0.708-2.184-0.936-3.143h-0.024c-0.024,1.008-0.084,2.362-0.156,3.574l-0.216,3.466
		h-0.995l0.563-8.084h1.331l1.379,3.91c0.336,0.995,0.612,1.883,0.815,2.723h0.036c0.204-0.815,0.492-1.703,0.852-2.723l1.439-3.91
		h1.331l0.504,8.084h-1.02L139.287,24.384z"/>
	<path fill="#BE1E2D" d="M146.309,24.144h-3.142v2.914h3.501v0.876h-4.545V19.85h4.365v0.876h-3.322v2.555h3.142V24.144z"/>
	<path fill="#BE1E2D" d="M148.027,19.958c0.527-0.108,1.283-0.168,2.002-0.168c1.115,0,1.836,0.204,2.339,0.659
		c0.407,0.36,0.636,0.912,0.636,1.535c0,1.068-0.672,1.775-1.523,2.063v0.036c0.624,0.216,0.996,0.791,1.188,1.631
		c0.264,1.127,0.456,1.907,0.624,2.219h-1.079c-0.133-0.228-0.312-0.924-0.54-1.931c-0.239-1.115-0.672-1.535-1.619-1.571h-0.983
		v3.502h-1.043V19.958z M149.07,23.64h1.067c1.115,0,1.823-0.611,1.823-1.535c0-1.043-0.756-1.499-1.859-1.511
		c-0.504,0-0.863,0.048-1.031,0.096V23.64z"/>
	<path fill="#BE1E2D" d="M158.369,27.934l-2.639-8.084h1.128l1.259,3.982c0.348,1.091,0.648,2.074,0.864,3.022h0.024
		c0.227-0.936,0.562-1.955,0.923-3.011l1.367-3.994h1.116l-2.891,8.084H158.369z"/>
	<path fill="#BE1E2D" d="M164.334,19.85v8.084h-1.043V19.85H164.334z"/>
	<path fill="#BE1E2D" d="M166.015,26.662c0.468,0.288,1.151,0.528,1.871,0.528c1.067,0,1.69-0.564,1.69-1.38
		c0-0.756-0.432-1.188-1.522-1.606c-1.319-0.468-2.136-1.151-2.136-2.291c0-1.26,1.044-2.195,2.615-2.195
		c0.828,0,1.428,0.192,1.787,0.396l-0.288,0.852c-0.264-0.145-0.804-0.384-1.535-0.384c-1.103,0-1.522,0.659-1.522,1.211
		c0,0.756,0.491,1.127,1.606,1.56c1.368,0.527,2.063,1.187,2.063,2.374c0,1.248-0.924,2.327-2.831,2.327
		c-0.779,0-1.631-0.229-2.062-0.516L166.015,26.662z"/>
	<path fill="#BE1E2D" d="M173.117,19.85v8.084h-1.043V19.85H173.117z"/>
	<path fill="#BE1E2D" d="M176.478,20.737h-2.459V19.85h5.985v0.888h-2.471v7.196h-1.056V20.737z"/>
	<path fill="#BE1E2D" d="M180.69,26.662c0.468,0.288,1.151,0.528,1.871,0.528c1.067,0,1.69-0.564,1.69-1.38
		c0-0.756-0.432-1.188-1.522-1.606c-1.319-0.468-2.136-1.151-2.136-2.291c0-1.26,1.044-2.195,2.615-2.195
		c0.828,0,1.428,0.192,1.787,0.396l-0.288,0.852c-0.264-0.145-0.804-0.384-1.535-0.384c-1.103,0-1.522,0.659-1.522,1.211
		c0,0.756,0.491,1.127,1.606,1.56c1.368,0.527,2.063,1.187,2.063,2.374c0,1.248-0.924,2.327-2.831,2.327
		c-0.779,0-1.631-0.229-2.062-0.516L180.69,26.662z"/>
	<path fill="#BE1E2D" d="M190.338,19.85v4.786c0,1.811,0.803,2.578,1.883,2.578c1.199,0,1.967-0.791,1.967-2.578V19.85h1.056v4.714
		c0,2.482-1.308,3.502-3.059,3.502c-1.655,0-2.902-0.947-2.902-3.454V19.85H190.338z"/>
	<path fill="#BE1E2D" d="M196.914,26.662c0.468,0.288,1.151,0.528,1.871,0.528c1.067,0,1.691-0.564,1.691-1.38
		c0-0.756-0.432-1.188-1.523-1.606c-1.319-0.468-2.135-1.151-2.135-2.291c0-1.26,1.043-2.195,2.614-2.195
		c0.827,0,1.427,0.192,1.787,0.396l-0.288,0.852c-0.264-0.145-0.803-0.384-1.535-0.384c-1.104,0-1.523,0.659-1.523,1.211
		c0,0.756,0.492,1.127,1.607,1.56c1.367,0.527,2.062,1.187,2.062,2.374c0,1.248-0.923,2.327-2.83,2.327
		c-0.779,0-1.631-0.229-2.062-0.516L196.914,26.662z"/>
	<path fill="#BE1E2D" d="M207.16,24.144h-3.143v2.914h3.502v0.876h-4.545V19.85h4.365v0.876h-3.322v2.555h3.143V24.144z"/>
	<path fill="#BE1E2D" d="M208.878,19.958c0.528-0.108,1.283-0.168,2.003-0.168c1.115,0,1.835,0.204,2.338,0.659
		c0.408,0.36,0.637,0.912,0.637,1.535c0,1.068-0.672,1.775-1.523,2.063v0.036c0.623,0.216,0.995,0.791,1.188,1.631
		c0.264,1.127,0.455,1.907,0.623,2.219h-1.079c-0.132-0.228-0.312-0.924-0.54-1.931c-0.24-1.115-0.672-1.535-1.619-1.571h-0.982
		v3.502h-1.044V19.958z M209.922,23.64h1.066c1.115,0,1.823-0.611,1.823-1.535c0-1.043-0.755-1.499-1.858-1.511
		c-0.504,0-0.863,0.048-1.031,0.096V23.64z"/>
	<path fill="#BE1E2D" d="M216.736,19.718c-0.275,1.008-0.791,2.291-1.127,2.843l-0.672,0.084c0.264-0.708,0.576-1.955,0.708-2.818
		L216.736,19.718z"/>
	<path fill="#BE1E2D" d="M217.686,26.662c0.468,0.288,1.151,0.528,1.871,0.528c1.067,0,1.691-0.564,1.691-1.38
		c0-0.756-0.432-1.188-1.523-1.606c-1.319-0.468-2.135-1.151-2.135-2.291c0-1.26,1.043-2.195,2.614-2.195
		c0.827,0,1.427,0.192,1.787,0.396l-0.288,0.852c-0.264-0.145-0.803-0.384-1.535-0.384c-1.104,0-1.523,0.659-1.523,1.211
		c0,0.756,0.492,1.127,1.607,1.56c1.367,0.527,2.062,1.187,2.062,2.374c0,1.248-0.923,2.327-2.83,2.327
		c-0.779,0-1.631-0.229-2.062-0.516L217.686,26.662z"/>
</g>
<g enable-background="new    ">
	<path fill="#BE1E2D" d="M115.099,34.25v3.383h3.91V34.25h1.056v8.084h-1.056v-3.79h-3.91v3.79h-1.043V34.25H115.099z"/>
	<path fill="#BE1E2D" d="M128.787,38.208c0,2.782-1.691,4.258-3.754,4.258c-2.135,0-3.634-1.655-3.634-4.102
		c0-2.566,1.595-4.246,3.754-4.246C127.36,34.118,128.787,35.81,128.787,38.208z M122.515,38.34c0,1.728,0.935,3.274,2.578,3.274
		c1.655,0,2.591-1.523,2.591-3.358c0-1.606-0.839-3.286-2.579-3.286C123.378,34.97,122.515,36.565,122.515,38.34z"/>
	<path fill="#BE1E2D" d="M136.959,38.784c-0.06-1.128-0.132-2.482-0.12-3.49h-0.036c-0.276,0.947-0.612,1.955-1.02,3.07
		l-1.427,3.922h-0.792l-1.307-3.85c-0.384-1.14-0.708-2.184-0.936-3.143h-0.024c-0.024,1.008-0.084,2.362-0.156,3.574l-0.216,3.466
		h-0.995l0.563-8.084h1.332l1.379,3.91c0.336,0.995,0.612,1.883,0.815,2.723h0.036c0.204-0.815,0.492-1.703,0.852-2.723l1.439-3.91
		h1.331l0.504,8.084h-1.02L136.959,38.784z"/>
	<path fill="#BE1E2D" d="M143.98,38.544h-3.142v2.914h3.501v0.876h-4.545V34.25h4.365v0.876h-3.322v2.555h3.142V38.544z"/>
	<path fill="#BE1E2D" d="M145.699,34.347c0.503-0.084,1.162-0.156,2.002-0.156c1.031,0,1.787,0.24,2.268,0.672
		c0.443,0.384,0.707,0.972,0.707,1.69c0,0.732-0.216,1.308-0.623,1.728c-0.553,0.588-1.451,0.888-2.471,0.888
		c-0.312,0-0.6-0.013-0.84-0.072v3.238h-1.043V34.347z M146.742,38.244c0.228,0.061,0.516,0.084,0.863,0.084
		c1.26,0,2.027-0.611,2.027-1.727c0-1.067-0.756-1.584-1.907-1.584c-0.456,0-0.804,0.036-0.983,0.084V38.244z"/>
	<path fill="#BE1E2D" d="M152.382,39.791l-0.839,2.543h-1.08l2.746-8.084h1.26l2.758,8.084h-1.115l-0.863-2.543H152.382z
		 M155.032,38.976l-0.792-2.326c-0.18-0.528-0.299-1.008-0.419-1.476h-0.024c-0.119,0.479-0.252,0.972-0.408,1.463l-0.791,2.339
		H155.032z"/>
	<path fill="#BE1E2D" d="M164.391,41.975c-0.467,0.168-1.391,0.443-2.482,0.443c-1.223,0-2.23-0.312-3.021-1.067
		c-0.696-0.672-1.128-1.751-1.128-3.011c0.013-2.41,1.667-4.174,4.378-4.174c0.936,0,1.667,0.204,2.015,0.372l-0.252,0.852
		c-0.432-0.191-0.972-0.348-1.787-0.348c-1.967,0-3.25,1.224-3.25,3.25c0,2.051,1.235,3.263,3.118,3.263
		c0.684,0,1.151-0.097,1.392-0.216v-2.411h-1.644v-0.84h2.662V41.975z"/>
	<path fill="#BE1E2D" d="M170.176,38.544h-3.142v2.914h3.502v0.876h-4.546V34.25h4.366v0.876h-3.322v2.555h3.142V38.544z"/>
</g>
<rect x="67.991" y="57.185" fill="#FFFFFF" stroke="#000000" stroke-miterlimit="10" width="60.667" height="31.333"/>
<g enable-background="new    ">
	<path d="M75.659,63.781V66.6h3.258v-2.818h0.879v6.736h-0.879v-3.158h-3.258v3.158H74.79v-6.736H75.659z"/>
	<path d="M85.657,68.059c0,1.789-1.24,2.569-2.409,2.569c-1.31,0-2.319-0.96-2.319-2.489c0-1.619,1.059-2.568,2.398-2.568
		C84.717,65.57,85.657,66.58,85.657,68.059z M81.819,68.109c0,1.059,0.609,1.858,1.469,1.858c0.84,0,1.469-0.789,1.469-1.879
		c0-0.819-0.41-1.859-1.449-1.859C82.269,66.229,81.819,67.189,81.819,68.109z"/>
	<path d="M86.769,66.989c0-0.499-0.01-0.909-0.04-1.309h0.77l0.04,0.779h0.03c0.27-0.46,0.719-0.89,1.519-0.89
		c0.66,0,1.159,0.399,1.369,0.97h0.02c0.15-0.271,0.34-0.48,0.54-0.63c0.29-0.22,0.61-0.34,1.07-0.34c0.64,0,1.589,0.42,1.589,2.099
		v2.849h-0.859v-2.738c0-0.93-0.34-1.489-1.049-1.489c-0.5,0-0.89,0.37-1.04,0.8c-0.04,0.119-0.07,0.279-0.07,0.439v2.988h-0.86
		v-2.898c0-0.77-0.34-1.329-1.009-1.329c-0.55,0-0.95,0.439-1.089,0.879c-0.05,0.131-0.07,0.28-0.07,0.431v2.918h-0.86V66.989z"/>
	<path d="M95.599,68.259c0.02,1.189,0.78,1.679,1.659,1.679c0.63,0,1.009-0.109,1.339-0.249l0.15,0.629
		c-0.31,0.141-0.84,0.3-1.609,0.3c-1.489,0-2.378-0.979-2.378-2.438s0.859-2.608,2.269-2.608c1.579,0,1.999,1.39,1.999,2.278
		c0,0.181-0.02,0.32-0.03,0.41H95.599z M98.178,67.629c0.01-0.56-0.23-1.429-1.219-1.429c-0.89,0-1.279,0.819-1.349,1.429H98.178z"
		/>
	<path d="M100.119,67.26c0-0.62-0.02-1.12-0.04-1.579h0.79l0.04,0.829h0.02c0.36-0.59,0.93-0.939,1.719-0.939
		c1.169,0,2.049,0.989,2.049,2.459c0,1.738-1.06,2.599-2.199,2.599c-0.64,0-1.199-0.28-1.489-0.76h-0.02v2.628h-0.87V67.26z
		 M100.989,68.549c0,0.13,0.02,0.25,0.04,0.359c0.16,0.61,0.689,1.029,1.319,1.029c0.929,0,1.469-0.759,1.469-1.868
		c0-0.97-0.51-1.8-1.439-1.8c-0.6,0-1.159,0.43-1.329,1.09c-0.03,0.11-0.06,0.24-0.06,0.359V68.549z"/>
	<path d="M108.488,70.518l-0.07-0.609h-0.03c-0.27,0.38-0.79,0.72-1.479,0.72c-0.979,0-1.479-0.69-1.479-1.39
		c0-1.169,1.04-1.809,2.909-1.799v-0.101c0-0.399-0.11-1.119-1.1-1.119c-0.45,0-0.919,0.14-1.259,0.36l-0.2-0.58
		c0.4-0.26,0.979-0.43,1.589-0.43c1.479,0,1.839,1.01,1.839,1.979v1.81c0,0.42,0.02,0.829,0.08,1.159H108.488z M108.358,68.049
		c-0.959-0.02-2.049,0.15-2.049,1.09c0,0.569,0.379,0.839,0.83,0.839c0.629,0,1.029-0.399,1.169-0.81
		c0.03-0.09,0.05-0.189,0.05-0.279V68.049z"/>
	<path d="M114.797,65.681c-0.02,0.35-0.04,0.739-0.04,1.329v2.809c0,1.109-0.22,1.789-0.69,2.208c-0.47,0.44-1.149,0.58-1.759,0.58
		c-0.58,0-1.219-0.14-1.609-0.399l0.22-0.67c0.32,0.2,0.819,0.38,1.419,0.38c0.9,0,1.559-0.47,1.559-1.689v-0.539h-0.02
		c-0.27,0.449-0.79,0.81-1.54,0.81c-1.199,0-2.059-1.02-2.059-2.359c0-1.639,1.069-2.568,2.179-2.568
		c0.839,0,1.299,0.439,1.509,0.84h0.02l0.04-0.729H114.797z M113.887,67.589c0-0.149-0.01-0.279-0.05-0.399
		c-0.16-0.51-0.59-0.93-1.229-0.93c-0.839,0-1.439,0.71-1.439,1.829c0,0.949,0.479,1.739,1.429,1.739c0.54,0,1.029-0.34,1.219-0.899
		c0.05-0.15,0.07-0.32,0.07-0.47V67.589z"/>
	<path d="M116.708,68.259c0.02,1.189,0.78,1.679,1.659,1.679c0.63,0,1.009-0.109,1.339-0.249l0.15,0.629
		c-0.31,0.141-0.84,0.3-1.609,0.3c-1.489,0-2.378-0.979-2.378-2.438s0.859-2.608,2.269-2.608c1.579,0,1.999,1.39,1.999,2.278
		c0,0.181-0.02,0.32-0.03,0.41H116.708z M119.287,67.629c0.01-0.56-0.23-1.429-1.219-1.429c-0.89,0-1.279,0.819-1.349,1.429H119.287
		z"/>
</g>
<g enable-background="new    ">
	<path d="M86.769,75.781h0.869v6.007h2.878v0.729h-3.748V75.781z"/>
	<path d="M95.696,80.059c0,1.789-1.24,2.569-2.409,2.569c-1.31,0-2.319-0.96-2.319-2.489c0-1.619,1.06-2.568,2.398-2.568
		C94.756,77.57,95.696,78.58,95.696,80.059z M91.858,80.109c0,1.059,0.609,1.858,1.469,1.858c0.84,0,1.469-0.789,1.469-1.879
		c0-0.819-0.41-1.859-1.449-1.859C92.308,78.229,91.858,79.189,91.858,80.109z"/>
	<path d="M99.487,82.518l-0.07-0.609h-0.03c-0.27,0.38-0.79,0.72-1.479,0.72c-0.979,0-1.479-0.69-1.479-1.39
		c0-1.169,1.04-1.809,2.909-1.799v-0.101c0-0.399-0.11-1.119-1.1-1.119c-0.45,0-0.919,0.14-1.259,0.36l-0.2-0.58
		c0.4-0.26,0.979-0.43,1.589-0.43c1.479,0,1.839,1.01,1.839,1.979v1.81c0,0.42,0.02,0.829,0.08,1.159H99.487z M99.357,80.049
		c-0.959-0.02-2.049,0.15-2.049,1.09c0,0.569,0.379,0.839,0.83,0.839c0.629,0,1.029-0.399,1.169-0.81
		c0.03-0.09,0.05-0.189,0.05-0.279V80.049z"/>
	<path d="M105.806,75.422v5.847c0,0.43,0.01,0.919,0.04,1.249h-0.79l-0.04-0.84h-0.02c-0.27,0.54-0.859,0.95-1.649,0.95
		c-1.169,0-2.069-0.99-2.069-2.459c-0.01-1.609,0.989-2.599,2.169-2.599c0.739,0,1.239,0.35,1.459,0.739h0.02v-2.888H105.806z
		 M104.926,79.649c0-0.11-0.01-0.26-0.04-0.37c-0.13-0.56-0.61-1.02-1.269-1.02c-0.91,0-1.449,0.8-1.449,1.869
		c0,0.979,0.479,1.789,1.429,1.789c0.589,0,1.129-0.39,1.289-1.05c0.03-0.119,0.04-0.239,0.04-0.38V79.649z"/>
	<path d="M107.148,81.618c0.26,0.17,0.719,0.35,1.159,0.35c0.64,0,0.939-0.319,0.939-0.72c0-0.42-0.25-0.649-0.899-0.89
		c-0.87-0.31-1.279-0.789-1.279-1.369c0-0.779,0.629-1.419,1.669-1.419c0.49,0,0.919,0.14,1.189,0.3l-0.22,0.64
		c-0.19-0.12-0.54-0.28-0.99-0.28c-0.52,0-0.81,0.3-0.81,0.66c0,0.399,0.29,0.58,0.919,0.819c0.84,0.32,1.27,0.739,1.27,1.459
		c0,0.85-0.66,1.449-1.809,1.449c-0.53,0-1.02-0.13-1.359-0.329L107.148,81.618z"/>
</g>
<rect x="68.324" y="218.641" fill="#FFFFFF" stroke="#000000" stroke-miterlimit="10" width="60.333" height="31.334"/>
<g enable-background="new    ">
	<path d="M86.232,228.312c-0.05-0.939-0.11-2.069-0.1-2.909h-0.03c-0.23,0.79-0.51,1.63-0.85,2.559l-1.189,3.269h-0.66l-1.089-3.208
		c-0.32-0.949-0.59-1.819-0.779-2.619h-0.02c-0.02,0.84-0.07,1.97-0.13,2.979l-0.18,2.889h-0.83l0.47-6.736h1.109l1.149,3.258
		c0.28,0.83,0.51,1.569,0.68,2.27h0.03c0.17-0.68,0.41-1.42,0.71-2.27l1.199-3.258h1.109l0.42,6.736h-0.85L86.232,228.312z"/>
	<path d="M89.115,229.011c0.02,1.189,0.78,1.679,1.659,1.679c0.63,0,1.009-0.109,1.339-0.249l0.15,0.629
		c-0.31,0.141-0.84,0.3-1.609,0.3c-1.489,0-2.378-0.979-2.378-2.438s0.859-2.608,2.269-2.608c1.579,0,1.999,1.39,1.999,2.278
		c0,0.181-0.02,0.32-0.03,0.41H89.115z M91.693,228.381c0.01-0.56-0.23-1.429-1.219-1.429c-0.89,0-1.279,0.819-1.349,1.429H91.693z"
		/>
	<path d="M93.516,230.37c0.26,0.17,0.719,0.35,1.159,0.35c0.64,0,0.939-0.319,0.939-0.72c0-0.42-0.25-0.649-0.899-0.89
		c-0.87-0.31-1.279-0.789-1.279-1.369c0-0.779,0.629-1.419,1.669-1.419c0.49,0,0.919,0.14,1.189,0.3l-0.22,0.64
		c-0.19-0.12-0.54-0.28-0.99-0.28c-0.52,0-0.81,0.3-0.81,0.66c0,0.399,0.29,0.58,0.919,0.819c0.84,0.32,1.27,0.739,1.27,1.459
		c0,0.85-0.66,1.449-1.809,1.449c-0.53,0-1.02-0.13-1.359-0.329L93.516,230.37z"/>
	<path d="M97.476,230.37c0.26,0.17,0.719,0.35,1.159,0.35c0.64,0,0.939-0.319,0.939-0.72c0-0.42-0.25-0.649-0.899-0.89
		c-0.87-0.31-1.279-0.789-1.279-1.369c0-0.779,0.629-1.419,1.669-1.419c0.49,0,0.919,0.14,1.189,0.3l-0.22,0.64
		c-0.19-0.12-0.54-0.28-0.99-0.28c-0.52,0-0.81,0.3-0.81,0.66c0,0.399,0.29,0.58,0.919,0.819c0.84,0.32,1.27,0.739,1.27,1.459
		c0,0.85-0.66,1.449-1.809,1.449c-0.53,0-1.02-0.13-1.359-0.329L97.476,230.37z"/>
	<path d="M104.234,231.27l-0.07-0.609h-0.03c-0.27,0.38-0.79,0.72-1.479,0.72c-0.979,0-1.479-0.69-1.479-1.39
		c0-1.169,1.04-1.809,2.909-1.799v-0.101c0-0.399-0.11-1.119-1.1-1.119c-0.45,0-0.919,0.14-1.259,0.36l-0.2-0.58
		c0.4-0.26,0.979-0.43,1.589-0.43c1.479,0,1.839,1.01,1.839,1.979v1.81c0,0.42,0.02,0.829,0.08,1.159H104.234z M104.104,228.801
		c-0.959-0.02-2.049,0.15-2.049,1.09c0,0.569,0.379,0.839,0.83,0.839c0.629,0,1.029-0.399,1.169-0.81
		c0.03-0.09,0.05-0.189,0.05-0.279V228.801z"/>
	<path d="M110.543,226.433c-0.02,0.35-0.04,0.739-0.04,1.329v2.809c0,1.109-0.22,1.789-0.69,2.208c-0.47,0.44-1.149,0.58-1.759,0.58
		c-0.58,0-1.219-0.14-1.609-0.399l0.22-0.67c0.32,0.2,0.819,0.38,1.419,0.38c0.9,0,1.56-0.47,1.56-1.689v-0.539h-0.02
		c-0.27,0.449-0.79,0.81-1.54,0.81c-1.199,0-2.059-1.02-2.059-2.359c0-1.639,1.069-2.568,2.179-2.568
		c0.839,0,1.299,0.439,1.509,0.84h0.02l0.04-0.729H110.543z M109.633,228.341c0-0.149-0.01-0.279-0.05-0.399
		c-0.16-0.51-0.59-0.93-1.229-0.93c-0.839,0-1.439,0.71-1.439,1.829c0,0.949,0.479,1.739,1.429,1.739c0.54,0,1.029-0.34,1.219-0.899
		c0.05-0.15,0.07-0.32,0.07-0.47V228.341z"/>
	<path d="M112.455,229.011c0.02,1.189,0.78,1.679,1.659,1.679c0.63,0,1.009-0.109,1.339-0.249l0.15,0.629
		c-0.31,0.141-0.84,0.3-1.609,0.3c-1.489,0-2.378-0.979-2.378-2.438s0.859-2.608,2.269-2.608c1.579,0,1.999,1.39,1.999,2.278
		c0,0.181-0.02,0.32-0.03,0.41H112.455z M115.033,228.381c0.01-0.56-0.23-1.429-1.219-1.429c-0.89,0-1.279,0.819-1.349,1.429
		H115.033z"/>
</g>
<g enable-background="new    ">
	<path d="M84.19,242.21c0.39,0.24,0.959,0.439,1.559,0.439c0.89,0,1.409-0.47,1.409-1.148c0-0.63-0.36-0.99-1.269-1.34
		c-1.1-0.39-1.779-0.959-1.779-1.909c0-1.049,0.87-1.829,2.179-1.829c0.69,0,1.189,0.16,1.489,0.33l-0.24,0.71
		c-0.22-0.12-0.669-0.32-1.279-0.32c-0.919,0-1.269,0.55-1.269,1.01c0,0.63,0.41,0.939,1.339,1.299
		c1.14,0.44,1.719,0.99,1.719,1.979c0,1.039-0.77,1.938-2.359,1.938c-0.649,0-1.359-0.189-1.719-0.43L84.19,242.21z"/>
	<path d="M89.21,236.174h0.879v3.018h0.02c0.14-0.249,0.36-0.47,0.63-0.619c0.26-0.15,0.57-0.25,0.899-0.25
		c0.65,0,1.689,0.399,1.689,2.068v2.879h-0.879v-2.778c0-0.779-0.29-1.439-1.119-1.439c-0.57,0-1.02,0.399-1.18,0.88
		c-0.05,0.12-0.06,0.25-0.06,0.42v2.918H89.21V236.174z"/>
	<path d="M99.138,240.811c0,1.789-1.24,2.569-2.409,2.569c-1.31,0-2.319-0.96-2.319-2.489c0-1.619,1.059-2.568,2.398-2.568
		C98.198,238.322,99.138,239.332,99.138,240.811z M95.3,240.861c0,1.059,0.609,1.858,1.469,1.858c0.84,0,1.469-0.789,1.469-1.879
		c0-0.819-0.41-1.859-1.449-1.859C95.75,238.981,95.3,239.941,95.3,240.861z"/>
	<path d="M100.53,238.433l0.64,2.458c0.14,0.54,0.27,1.04,0.359,1.539h0.03c0.11-0.489,0.27-1.009,0.43-1.529l0.79-2.468h0.74
		l0.75,2.418c0.18,0.58,0.32,1.09,0.43,1.579h0.03c0.08-0.489,0.21-0.999,0.37-1.568l0.689-2.429h0.87l-1.559,4.837h-0.8
		l-0.739-2.309c-0.17-0.54-0.31-1.02-0.43-1.589h-0.02c-0.12,0.579-0.27,1.079-0.44,1.599l-0.78,2.299h-0.799l-1.459-4.837H100.53z"
		/>
	<path d="M107.54,239.741c0-0.499-0.01-0.909-0.04-1.309h0.78l0.05,0.799h0.02c0.24-0.459,0.8-0.909,1.599-0.909
		c0.67,0,1.709,0.399,1.709,2.059v2.889h-0.879v-2.788c0-0.78-0.29-1.43-1.119-1.43c-0.58,0-1.03,0.41-1.18,0.899
		c-0.04,0.11-0.06,0.26-0.06,0.41v2.908h-0.879V239.741z"/>
</g>
<g>
	<g>
		<line fill="none" stroke="#000000" stroke-miterlimit="10" x1="98.324" y1="212.605" x2="98.324" y2="88.518"/>
		<g>
			<path d="M98.324,218.641c1.054-2.84,2.852-6.363,4.756-8.547l-4.756,1.721l-4.755-1.721
				C95.474,212.277,97.271,215.801,98.324,218.641z"/>
		</g>
	</g>
</g>
<g>
	<path d="M148.908,62.633c-0.32,0.16-0.959,0.319-1.779,0.319c-1.898,0-3.328-1.199-3.328-3.408c0-2.108,1.43-3.538,3.519-3.538
		c0.839,0,1.369,0.181,1.599,0.3l-0.209,0.71c-0.33-0.16-0.8-0.279-1.359-0.279c-1.58,0-2.629,1.009-2.629,2.778
		c0,1.648,0.949,2.708,2.588,2.708c0.53,0,1.07-0.109,1.42-0.279L148.908,62.633z"/>
	<path d="M155.548,59.414c0,2.319-1.409,3.549-3.128,3.549c-1.779,0-3.029-1.38-3.029-3.419c0-2.139,1.33-3.538,3.129-3.538
		C154.358,56.006,155.548,57.415,155.548,59.414z M150.32,59.524c0,1.439,0.779,2.729,2.148,2.729c1.38,0,2.159-1.27,2.159-2.799
		c0-1.339-0.699-2.738-2.148-2.738C151.04,56.716,150.32,58.045,150.32,59.524z"/>
	<path d="M162.357,59.895c-0.049-0.939-0.109-2.069-0.1-2.909h-0.029c-0.23,0.79-0.51,1.63-0.85,2.559l-1.189,3.269h-0.66
		l-1.09-3.208c-0.319-0.949-0.59-1.819-0.779-2.619h-0.02c-0.02,0.84-0.07,1.97-0.13,2.979l-0.181,2.889h-0.829l0.47-6.736h1.109
		l1.149,3.258c0.28,0.83,0.51,1.569,0.68,2.27h0.03c0.17-0.68,0.41-1.42,0.709-2.27l1.199-3.258h1.109l0.42,6.736h-0.85
		L162.357,59.895z"/>
	<path d="M164.721,56.196c0.42-0.07,0.969-0.13,1.669-0.13c0.859,0,1.489,0.2,1.889,0.56c0.37,0.319,0.59,0.81,0.59,1.409
		c0,0.609-0.18,1.09-0.52,1.439c-0.46,0.489-1.21,0.739-2.06,0.739c-0.26,0-0.499-0.01-0.699-0.06v2.698h-0.869V56.196z
		 M165.59,59.444c0.189,0.05,0.43,0.07,0.72,0.07c1.05,0,1.688-0.51,1.688-1.439c0-0.89-0.629-1.319-1.588-1.319
		c-0.381,0-0.67,0.03-0.82,0.07V59.444z"/>
	<path d="M170.91,56.116v6.736h-0.869v-6.736H170.91z"/>
	<path d="M172.431,56.116h0.869v6.007h2.878v0.729h-3.747V56.116z"/>
	<path d="M180.639,59.694h-2.619v2.429h2.919v0.729h-3.788v-6.736h3.639v0.729h-2.77v2.129h2.619V59.694z"/>
	<path d="M191.987,59.895c-0.05-0.939-0.11-2.069-0.101-2.909h-0.029c-0.23,0.79-0.51,1.63-0.85,2.559l-1.189,3.269h-0.66
		l-1.089-3.208c-0.319-0.949-0.59-1.819-0.779-2.619h-0.021c-0.02,0.84-0.07,1.97-0.129,2.979l-0.181,2.889h-0.829l0.469-6.736
		h1.109l1.15,3.258c0.279,0.83,0.51,1.569,0.68,2.27h0.029c0.17-0.68,0.41-1.42,0.71-2.27l1.199-3.258h1.109l0.42,6.736h-0.85
		L191.987,59.895z"/>
	<path d="M194.869,60.594c0.021,1.189,0.78,1.679,1.66,1.679c0.629,0,1.009-0.109,1.339-0.249l0.149,0.629
		c-0.31,0.141-0.84,0.3-1.609,0.3c-1.488,0-2.378-0.979-2.378-2.438s0.859-2.608,2.269-2.608c1.579,0,1.999,1.39,1.999,2.278
		c0,0.181-0.021,0.32-0.03,0.41H194.869z M197.448,59.964c0.011-0.56-0.229-1.429-1.22-1.429c-0.889,0-1.279,0.819-1.349,1.429
		H197.448z"/>
	<path d="M199.27,61.953c0.26,0.17,0.72,0.35,1.16,0.35c0.639,0,0.939-0.319,0.939-0.72c0-0.42-0.25-0.649-0.9-0.89
		c-0.869-0.31-1.279-0.789-1.279-1.369c0-0.779,0.63-1.419,1.67-1.419c0.489,0,0.919,0.14,1.189,0.3l-0.221,0.64
		c-0.189-0.12-0.539-0.28-0.989-0.28c-0.52,0-0.81,0.3-0.81,0.66c0,0.399,0.29,0.58,0.92,0.819c0.84,0.32,1.27,0.739,1.27,1.459
		c0,0.85-0.66,1.449-1.81,1.449c-0.53,0-1.02-0.13-1.359-0.329L199.27,61.953z"/>
	<path d="M203.23,61.953c0.26,0.17,0.719,0.35,1.158,0.35c0.641,0,0.939-0.319,0.939-0.72c0-0.42-0.25-0.649-0.898-0.89
		c-0.87-0.31-1.279-0.789-1.279-1.369c0-0.779,0.629-1.419,1.668-1.419c0.49,0,0.92,0.14,1.189,0.3l-0.219,0.64
		c-0.19-0.12-0.541-0.28-0.99-0.28c-0.52,0-0.81,0.3-0.81,0.66c0,0.399,0.29,0.58,0.919,0.819c0.84,0.32,1.27,0.739,1.27,1.459
		c0,0.85-0.659,1.449-1.809,1.449c-0.529,0-1.02-0.13-1.359-0.329L203.23,61.953z"/>
	<path d="M209.988,62.853l-0.07-0.609h-0.029c-0.271,0.38-0.79,0.72-1.479,0.72c-0.979,0-1.479-0.69-1.479-1.39
		c0-1.169,1.039-1.809,2.908-1.799v-0.101c0-0.399-0.109-1.119-1.1-1.119c-0.449,0-0.919,0.14-1.259,0.36l-0.2-0.58
		c0.4-0.26,0.98-0.43,1.59-0.43c1.479,0,1.839,1.01,1.839,1.979v1.81c0,0.42,0.021,0.829,0.079,1.159H209.988z M209.858,60.384
		c-0.96-0.02-2.049,0.15-2.049,1.09c0,0.569,0.38,0.839,0.829,0.839c0.63,0,1.029-0.399,1.17-0.81c0.029-0.09,0.05-0.189,0.05-0.279
		V60.384z"/>
	<path d="M216.298,58.016c-0.021,0.35-0.04,0.739-0.04,1.329v2.809c0,1.109-0.22,1.789-0.689,2.208
		c-0.471,0.44-1.149,0.58-1.76,0.58c-0.579,0-1.219-0.14-1.608-0.399l0.22-0.67c0.32,0.2,0.819,0.38,1.419,0.38
		c0.899,0,1.56-0.47,1.56-1.689v-0.539h-0.02c-0.271,0.449-0.79,0.81-1.54,0.81c-1.199,0-2.059-1.02-2.059-2.359
		c0-1.639,1.069-2.568,2.179-2.568c0.84,0,1.299,0.439,1.51,0.84h0.02l0.04-0.729H216.298z M215.389,59.924
		c0-0.149-0.01-0.279-0.051-0.399c-0.16-0.51-0.59-0.93-1.229-0.93c-0.84,0-1.439,0.71-1.439,1.829c0,0.949,0.479,1.739,1.43,1.739
		c0.539,0,1.029-0.34,1.219-0.899c0.05-0.15,0.07-0.32,0.07-0.47V59.924z"/>
	<path d="M218.209,60.594c0.021,1.189,0.78,1.679,1.66,1.679c0.629,0,1.009-0.109,1.339-0.249l0.149,0.629
		c-0.31,0.141-0.84,0.3-1.609,0.3c-1.488,0-2.378-0.979-2.378-2.438s0.859-2.608,2.269-2.608c1.579,0,1.999,1.39,1.999,2.278
		c0,0.181-0.021,0.32-0.03,0.41H218.209z M220.788,59.964c0.011-0.56-0.229-1.429-1.22-1.429c-0.889,0-1.279,0.819-1.349,1.429
		H220.788z"/>
	<path d="M225.199,58.016l0.641,2.458c0.139,0.54,0.27,1.04,0.359,1.539h0.029c0.11-0.489,0.271-1.009,0.43-1.529l0.79-2.468h0.739
		l0.75,2.418c0.18,0.58,0.32,1.09,0.43,1.579h0.03c0.079-0.489,0.21-0.999,0.37-1.568l0.689-2.429h0.869l-1.559,4.837h-0.801
		l-0.738-2.309c-0.17-0.54-0.311-1.02-0.431-1.589h-0.02c-0.12,0.579-0.271,1.079-0.44,1.599l-0.779,2.299h-0.799l-1.46-4.837
		H225.199z"/>
	<path d="M232.209,55.757h0.88v3.018h0.021c0.14-0.249,0.359-0.47,0.629-0.619c0.26-0.15,0.57-0.25,0.9-0.25
		c0.649,0,1.688,0.399,1.688,2.068v2.879h-0.88v-2.778c0-0.779-0.289-1.439-1.119-1.439c-0.569,0-1.02,0.399-1.18,0.88
		c-0.049,0.12-0.06,0.25-0.06,0.42v2.918h-0.88V55.757z"/>
	<path d="M238.249,60.594c0.021,1.189,0.78,1.679,1.659,1.679c0.63,0,1.01-0.109,1.34-0.249l0.149,0.629
		c-0.31,0.141-0.84,0.3-1.609,0.3c-1.489,0-2.378-0.979-2.378-2.438s0.859-2.608,2.268-2.608c1.58,0,2,1.39,2,2.278
		c0,0.181-0.021,0.32-0.03,0.41H238.249z M240.828,59.964c0.01-0.56-0.23-1.429-1.22-1.429c-0.89,0-1.279,0.819-1.349,1.429H240.828
		z"/>
	<path d="M242.77,59.524c0-0.569-0.01-1.06-0.041-1.509h0.77l0.031,0.949h0.039c0.221-0.649,0.75-1.06,1.34-1.06
		c0.1,0,0.17,0.01,0.25,0.03v0.829c-0.09-0.02-0.18-0.03-0.301-0.03c-0.619,0-1.059,0.47-1.179,1.13
		c-0.021,0.12-0.04,0.26-0.04,0.41v2.578h-0.869V59.524z"/>
	<path d="M246.43,60.594c0.02,1.189,0.779,1.679,1.658,1.679c0.631,0,1.01-0.109,1.34-0.249l0.15,0.629
		c-0.311,0.141-0.84,0.3-1.609,0.3c-1.489,0-2.379-0.979-2.379-2.438s0.859-2.608,2.269-2.608c1.579,0,1.999,1.39,1.999,2.278
		c0,0.181-0.02,0.32-0.029,0.41H246.43z M249.008,59.964c0.01-0.56-0.23-1.429-1.219-1.429c-0.891,0-1.279,0.819-1.35,1.429H249.008
		z"/>
	<path d="M250.739,58.814c0-0.369,0.25-0.629,0.6-0.629c0.351,0,0.58,0.26,0.59,0.629c0,0.351-0.229,0.62-0.6,0.62
		C250.979,59.435,250.739,59.165,250.739,58.814z M250.739,62.343c0-0.37,0.25-0.63,0.6-0.63c0.351,0,0.58,0.26,0.59,0.63
		c0,0.35-0.229,0.62-0.6,0.62C250.979,62.963,250.739,62.692,250.739,62.343z"/>
	<path d="M143.441,64.103v-0.5h108.848v0.5H143.441z"/>
</g>
<g>
	<path d="M146.111,157.629c0.42-0.07,0.969-0.13,1.669-0.13c0.859,0,1.489,0.2,1.889,0.56c0.37,0.319,0.59,0.81,0.59,1.409
		c0,0.609-0.18,1.09-0.52,1.439c-0.46,0.489-1.21,0.739-2.06,0.739c-0.26,0-0.499-0.01-0.699-0.06v2.698h-0.869V157.629z
		 M146.98,160.877c0.189,0.05,0.43,0.07,0.72,0.07c1.05,0,1.688-0.51,1.688-1.439c0-0.89-0.629-1.319-1.588-1.319
		c-0.381,0-0.67,0.03-0.82,0.07V160.877z"/>
	<path d="M157.188,160.847c0,2.319-1.408,3.549-3.128,3.549c-1.779,0-3.028-1.38-3.028-3.419c0-2.139,1.329-3.538,3.129-3.538
		C155.998,157.438,157.188,158.848,157.188,160.847z M151.961,160.957c0,1.439,0.779,2.729,2.148,2.729
		c1.379,0,2.159-1.27,2.159-2.799c0-1.339-0.7-2.738-2.149-2.738C152.68,158.148,151.961,159.478,151.961,160.957z"/>
	<path d="M158.201,163.226c0.39,0.24,0.959,0.439,1.559,0.439c0.891,0,1.41-0.47,1.41-1.148c0-0.63-0.36-0.99-1.27-1.34
		c-1.1-0.39-1.779-0.959-1.779-1.909c0-1.049,0.869-1.829,2.179-1.829c0.69,0,1.189,0.16,1.489,0.33l-0.24,0.71
		c-0.219-0.12-0.669-0.32-1.279-0.32c-0.919,0-1.269,0.55-1.269,1.01c0,0.63,0.409,0.939,1.339,1.299
		c1.14,0.44,1.719,0.99,1.719,1.979c0,1.039-0.77,1.938-2.358,1.938c-0.649,0-1.358-0.189-1.719-0.43L158.201,163.226z"/>
	<path d="M164.53,158.288h-2.049v-0.739h4.987v0.739h-2.059v5.997h-0.88V158.288z"/>
	<path d="M173.49,158.059v1.39h1.26v0.669h-1.26v2.608c0,0.601,0.17,0.939,0.66,0.939c0.229,0,0.399-0.029,0.51-0.06l0.039,0.66
		c-0.17,0.069-0.439,0.119-0.779,0.119c-0.41,0-0.74-0.13-0.949-0.369c-0.25-0.26-0.34-0.689-0.34-1.26v-2.639h-0.75v-0.669h0.75
		v-1.16L173.49,158.059z"/>
	<path d="M180.059,161.826c0,1.789-1.24,2.569-2.408,2.569c-1.311,0-2.319-0.96-2.319-2.489c0-1.619,1.06-2.568,2.398-2.568
		C179.119,159.338,180.059,160.348,180.059,161.826z M176.221,161.877c0,1.059,0.609,1.858,1.469,1.858
		c0.84,0,1.469-0.789,1.469-1.879c0-0.819-0.409-1.859-1.449-1.859C176.67,159.997,176.221,160.957,176.221,161.877z"/>
	<path d="M188.027,164.065c-0.319,0.16-0.959,0.319-1.778,0.319c-1.899,0-3.328-1.199-3.328-3.408c0-2.108,1.429-3.538,3.519-3.538
		c0.839,0,1.369,0.181,1.599,0.3l-0.21,0.71c-0.33-0.16-0.799-0.279-1.359-0.279c-1.579,0-2.629,1.009-2.629,2.778
		c0,1.648,0.95,2.708,2.589,2.708c0.53,0,1.069-0.109,1.419-0.279L188.027,164.065z"/>
	<path d="M193.019,162.966c0,0.5,0.011,0.939,0.04,1.319h-0.779l-0.051-0.79h-0.02c-0.23,0.391-0.74,0.9-1.6,0.9
		c-0.76,0-1.668-0.42-1.668-2.119v-2.828h0.879v2.678c0,0.92,0.279,1.539,1.08,1.539c0.589,0,0.999-0.409,1.158-0.799
		c0.051-0.13,0.08-0.29,0.08-0.45v-2.968h0.88V162.966z"/>
	<path d="M194.361,163.386c0.26,0.17,0.719,0.35,1.158,0.35c0.641,0,0.939-0.319,0.939-0.72c0-0.42-0.25-0.649-0.898-0.89
		c-0.87-0.31-1.279-0.789-1.279-1.369c0-0.779,0.629-1.419,1.668-1.419c0.49,0,0.92,0.14,1.189,0.3l-0.219,0.64
		c-0.19-0.12-0.541-0.28-0.99-0.28c-0.52,0-0.81,0.3-0.81,0.66c0,0.399,0.29,0.58,0.919,0.819c0.84,0.32,1.27,0.739,1.27,1.459
		c0,0.85-0.659,1.449-1.809,1.449c-0.529,0-1.02-0.13-1.359-0.329L194.361,163.386z"/>
	<path d="M199.5,158.059v1.39h1.26v0.669h-1.26v2.608c0,0.601,0.17,0.939,0.66,0.939c0.229,0,0.399-0.029,0.51-0.06l0.039,0.66
		c-0.17,0.069-0.439,0.119-0.779,0.119c-0.41,0-0.74-0.13-0.949-0.369c-0.25-0.26-0.34-0.689-0.34-1.26v-2.639h-0.75v-0.669h0.75
		v-1.16L199.5,158.059z"/>
	<path d="M206.068,161.826c0,1.789-1.24,2.569-2.408,2.569c-1.311,0-2.319-0.96-2.319-2.489c0-1.619,1.06-2.568,2.398-2.568
		C205.129,159.338,206.068,160.348,206.068,161.826z M202.23,161.877c0,1.059,0.609,1.858,1.469,1.858
		c0.84,0,1.469-0.789,1.469-1.879c0-0.819-0.409-1.859-1.449-1.859C202.68,159.997,202.23,160.957,202.23,161.877z"/>
	<path d="M207.18,160.757c0-0.499-0.01-0.909-0.039-1.309h0.77l0.039,0.779h0.031c0.27-0.46,0.719-0.89,1.519-0.89
		c0.659,0,1.159,0.399,1.369,0.97h0.021c0.149-0.271,0.34-0.48,0.539-0.63c0.29-0.22,0.609-0.34,1.07-0.34
		c0.639,0,1.588,0.42,1.588,2.099v2.849h-0.859v-2.738c0-0.93-0.34-1.489-1.049-1.489c-0.5,0-0.89,0.37-1.039,0.8
		c-0.041,0.119-0.07,0.279-0.07,0.439v2.988h-0.859v-2.898c0-0.77-0.34-1.329-1.01-1.329c-0.55,0-0.949,0.439-1.09,0.879
		c-0.05,0.131-0.069,0.28-0.069,0.431v2.918h-0.86V160.757z"/>
	<path d="M216.01,162.026c0.021,1.189,0.78,1.679,1.66,1.679c0.629,0,1.009-0.109,1.339-0.249l0.149,0.629
		c-0.31,0.141-0.84,0.3-1.609,0.3c-1.488,0-2.378-0.979-2.378-2.438s0.859-2.608,2.269-2.608c1.579,0,1.999,1.39,1.999,2.278
		c0,0.181-0.021,0.32-0.03,0.41H216.01z M218.589,161.396c0.011-0.56-0.229-1.429-1.22-1.429c-0.889,0-1.279,0.819-1.349,1.429
		H218.589z"/>
	<path d="M220.53,160.957c0-0.569-0.01-1.06-0.04-1.509h0.77l0.03,0.949h0.04c0.22-0.649,0.75-1.06,1.34-1.06
		c0.1,0,0.169,0.01,0.249,0.03v0.829c-0.09-0.02-0.18-0.03-0.3-0.03c-0.619,0-1.06,0.47-1.18,1.13c-0.02,0.12-0.039,0.26-0.039,0.41
		v2.578h-0.87V160.957z"/>
	<path d="M223.681,163.386c0.26,0.17,0.72,0.35,1.159,0.35c0.64,0,0.939-0.319,0.939-0.72c0-0.42-0.25-0.649-0.899-0.89
		c-0.87-0.31-1.279-0.789-1.279-1.369c0-0.779,0.63-1.419,1.669-1.419c0.49,0,0.92,0.14,1.189,0.3l-0.22,0.64
		c-0.19-0.12-0.54-0.28-0.989-0.28c-0.52,0-0.811,0.3-0.811,0.66c0,0.399,0.291,0.58,0.92,0.819c0.84,0.32,1.27,0.739,1.27,1.459
		c0,0.85-0.66,1.449-1.809,1.449c-0.53,0-1.02-0.13-1.359-0.329L223.681,163.386z"/>
	<path d="M230.939,158.059v1.39h1.26v0.669h-1.26v2.608c0,0.601,0.17,0.939,0.66,0.939c0.229,0,0.399-0.029,0.51-0.06l0.039,0.66
		c-0.17,0.069-0.439,0.119-0.779,0.119c-0.41,0-0.74-0.13-0.949-0.369c-0.25-0.26-0.34-0.689-0.34-1.26v-2.639h-0.75v-0.669h0.75
		v-1.16L230.939,158.059z"/>
	<path d="M235.869,164.285l-0.07-0.609h-0.03c-0.27,0.38-0.79,0.72-1.479,0.72c-0.979,0-1.479-0.69-1.479-1.39
		c0-1.169,1.039-1.809,2.908-1.799v-0.101c0-0.399-0.109-1.119-1.1-1.119c-0.449,0-0.92,0.14-1.26,0.36l-0.199-0.58
		c0.4-0.26,0.979-0.43,1.589-0.43c1.479,0,1.839,1.01,1.839,1.979v1.81c0,0.42,0.021,0.829,0.08,1.159H235.869z M235.738,161.816
		c-0.959-0.02-2.049,0.15-2.049,1.09c0,0.569,0.38,0.839,0.83,0.839c0.629,0,1.029-0.399,1.169-0.81
		c0.03-0.09,0.05-0.189,0.05-0.279V161.816z"/>
	<path d="M237.97,164.285c0.021-0.33,0.04-0.819,0.04-1.249v-5.847h0.869v3.038h0.021c0.31-0.54,0.87-0.89,1.649-0.89
		c1.199,0,2.049,0.999,2.039,2.469c0,1.729-1.09,2.589-2.17,2.589c-0.699,0-1.259-0.271-1.619-0.91h-0.029l-0.04,0.8H237.97z
		 M238.879,162.347c0,0.109,0.021,0.22,0.041,0.319c0.17,0.609,0.68,1.029,1.318,1.029c0.92,0,1.47-0.749,1.47-1.858
		c0-0.97-0.5-1.8-1.439-1.8c-0.6,0-1.159,0.41-1.339,1.08c-0.021,0.1-0.051,0.22-0.051,0.359V162.347z"/>
	<path d="M243.699,157.189h0.88v7.096h-0.88V157.189z"/>
	<path d="M246.549,162.026c0.021,1.189,0.78,1.679,1.66,1.679c0.629,0,1.009-0.109,1.339-0.249l0.149,0.629
		c-0.31,0.141-0.84,0.3-1.609,0.3c-1.488,0-2.378-0.979-2.378-2.438s0.859-2.608,2.269-2.608c1.579,0,1.999,1.39,1.999,2.278
		c0,0.181-0.021,0.32-0.03,0.41H246.549z M249.128,161.396c0.011-0.56-0.229-1.429-1.22-1.429c-0.889,0-1.279,0.819-1.349,1.429
		H249.128z"/>
	<path d="M250.859,160.247c0-0.369,0.25-0.629,0.601-0.629c0.35,0,0.579,0.26,0.589,0.629c0,0.351-0.229,0.62-0.6,0.62
		C251.1,160.867,250.859,160.598,250.859,160.247z M250.859,163.775c0-0.37,0.25-0.63,0.601-0.63c0.35,0,0.579,0.26,0.589,0.63
		c0,0.35-0.229,0.62-0.6,0.62C251.1,164.396,250.859,164.125,250.859,163.775z"/>
	<path d="M145.352,165.535v-0.5H252.41v0.5H145.352z"/>
</g>
<g>
	<path d="M143.26,201.6c0.419-0.07,0.969-0.13,1.669-0.13c0.859,0,1.489,0.2,1.889,0.56c0.37,0.319,0.59,0.81,0.59,1.409
		c0,0.609-0.18,1.09-0.52,1.439c-0.46,0.489-1.21,0.739-2.06,0.739c-0.26,0-0.499-0.01-0.699-0.06v2.698h-0.869V201.6z
		 M144.129,204.848c0.189,0.05,0.43,0.07,0.72,0.07c1.05,0,1.688-0.51,1.688-1.439c0-0.89-0.629-1.319-1.588-1.319
		c-0.381,0-0.67,0.03-0.82,0.07V204.848z"/>
	<path d="M154.336,204.817c0,2.319-1.408,3.549-3.128,3.549c-1.779,0-3.028-1.38-3.028-3.419c0-2.139,1.329-3.538,3.129-3.538
		C153.146,201.409,154.336,202.818,154.336,204.817z M149.109,204.928c0,1.439,0.779,2.729,2.148,2.729
		c1.379,0,2.159-1.27,2.159-2.799c0-1.339-0.7-2.738-2.149-2.738C149.828,202.119,149.109,203.448,149.109,204.928z"/>
	<path d="M155.35,207.196c0.39,0.24,0.959,0.439,1.559,0.439c0.891,0,1.41-0.47,1.41-1.148c0-0.63-0.36-0.99-1.27-1.34
		c-1.1-0.39-1.779-0.959-1.779-1.909c0-1.049,0.869-1.829,2.179-1.829c0.69,0,1.189,0.16,1.489,0.33l-0.24,0.71
		c-0.219-0.12-0.669-0.32-1.279-0.32c-0.919,0-1.269,0.55-1.269,1.01c0,0.63,0.409,0.939,1.339,1.299
		c1.14,0.44,1.719,0.99,1.719,1.979c0,1.039-0.77,1.938-2.358,1.938c-0.649,0-1.358-0.189-1.719-0.43L155.35,207.196z"/>
	<path d="M161.679,202.259h-2.049v-0.739h4.987v0.739h-2.059v5.997h-0.88V202.259z"/>
	<path d="M170.639,202.029v1.39h1.26v0.669h-1.26v2.608c0,0.601,0.17,0.939,0.66,0.939c0.229,0,0.399-0.029,0.51-0.06l0.039,0.66
		c-0.17,0.069-0.439,0.119-0.779,0.119c-0.41,0-0.74-0.13-0.949-0.369c-0.25-0.26-0.34-0.689-0.34-1.26v-2.639h-0.75v-0.669h0.75
		v-1.16L170.639,202.029z"/>
	<path d="M177.207,205.797c0,1.789-1.24,2.569-2.408,2.569c-1.311,0-2.319-0.96-2.319-2.489c0-1.619,1.06-2.568,2.398-2.568
		C176.268,203.309,177.207,204.318,177.207,205.797z M173.369,205.848c0,1.059,0.609,1.858,1.469,1.858
		c0.84,0,1.469-0.789,1.469-1.879c0-0.819-0.409-1.859-1.449-1.859C173.818,203.968,173.369,204.928,173.369,205.848z"/>
	<path d="M185.176,208.036c-0.319,0.16-0.959,0.319-1.778,0.319c-1.899,0-3.328-1.199-3.328-3.408c0-2.108,1.429-3.538,3.519-3.538
		c0.839,0,1.369,0.181,1.599,0.3l-0.21,0.71c-0.33-0.16-0.799-0.279-1.359-0.279c-1.579,0-2.629,1.009-2.629,2.778
		c0,1.648,0.95,2.708,2.589,2.708c0.53,0,1.069-0.109,1.419-0.279L185.176,208.036z"/>
	<path d="M190.167,206.937c0,0.5,0.011,0.939,0.04,1.319h-0.779l-0.051-0.79h-0.02c-0.23,0.391-0.74,0.9-1.6,0.9
		c-0.76,0-1.668-0.42-1.668-2.119v-2.828h0.879v2.678c0,0.92,0.279,1.539,1.08,1.539c0.589,0,0.999-0.409,1.158-0.799
		c0.051-0.13,0.08-0.29,0.08-0.45v-2.968h0.88V206.937z"/>
	<path d="M191.51,207.356c0.26,0.17,0.719,0.35,1.158,0.35c0.641,0,0.939-0.319,0.939-0.72c0-0.42-0.25-0.649-0.898-0.89
		c-0.87-0.31-1.279-0.789-1.279-1.369c0-0.779,0.629-1.419,1.668-1.419c0.49,0,0.92,0.14,1.189,0.3l-0.219,0.64
		c-0.19-0.12-0.541-0.28-0.99-0.28c-0.52,0-0.81,0.3-0.81,0.66c0,0.399,0.29,0.58,0.919,0.819c0.84,0.32,1.27,0.739,1.27,1.459
		c0,0.85-0.659,1.449-1.809,1.449c-0.529,0-1.02-0.13-1.359-0.329L191.51,207.356z"/>
	<path d="M196.648,202.029v1.39h1.26v0.669h-1.26v2.608c0,0.601,0.17,0.939,0.66,0.939c0.229,0,0.399-0.029,0.51-0.06l0.039,0.66
		c-0.17,0.069-0.439,0.119-0.779,0.119c-0.41,0-0.74-0.13-0.949-0.369c-0.25-0.26-0.34-0.689-0.34-1.26v-2.639h-0.75v-0.669h0.75
		v-1.16L196.648,202.029z"/>
	<path d="M203.217,205.797c0,1.789-1.24,2.569-2.408,2.569c-1.311,0-2.319-0.96-2.319-2.489c0-1.619,1.06-2.568,2.398-2.568
		C202.277,203.309,203.217,204.318,203.217,205.797z M199.379,205.848c0,1.059,0.609,1.858,1.469,1.858
		c0.84,0,1.469-0.789,1.469-1.879c0-0.819-0.409-1.859-1.449-1.859C199.828,203.968,199.379,204.928,199.379,205.848z"/>
	<path d="M204.328,204.728c0-0.499-0.01-0.909-0.039-1.309h0.77l0.039,0.779h0.031c0.27-0.46,0.719-0.89,1.519-0.89
		c0.659,0,1.159,0.399,1.369,0.97h0.021c0.149-0.271,0.34-0.48,0.539-0.63c0.29-0.22,0.609-0.34,1.07-0.34
		c0.639,0,1.588,0.42,1.588,2.099v2.849h-0.859v-2.738c0-0.93-0.34-1.489-1.049-1.489c-0.5,0-0.89,0.37-1.039,0.8
		c-0.041,0.119-0.07,0.279-0.07,0.439v2.988h-0.859v-2.898c0-0.77-0.34-1.329-1.01-1.329c-0.55,0-0.949,0.439-1.09,0.879
		c-0.05,0.131-0.069,0.28-0.069,0.431v2.918h-0.86V204.728z"/>
	<path d="M213.158,205.997c0.021,1.189,0.78,1.679,1.66,1.679c0.629,0,1.009-0.109,1.339-0.249l0.149,0.629
		c-0.31,0.141-0.84,0.3-1.609,0.3c-1.488,0-2.378-0.979-2.378-2.438s0.859-2.608,2.269-2.608c1.579,0,1.999,1.39,1.999,2.278
		c0,0.181-0.021,0.32-0.03,0.41H213.158z M215.737,205.367c0.011-0.56-0.229-1.429-1.22-1.429c-0.889,0-1.279,0.819-1.349,1.429
		H215.737z"/>
	<path d="M217.679,204.928c0-0.569-0.01-1.06-0.04-1.509h0.77l0.03,0.949h0.04c0.22-0.649,0.75-1.06,1.34-1.06
		c0.1,0,0.169,0.01,0.249,0.03v0.829c-0.09-0.02-0.18-0.03-0.3-0.03c-0.619,0-1.06,0.47-1.18,1.13c-0.02,0.12-0.039,0.26-0.039,0.41
		v2.578h-0.87V204.928z"/>
	<path d="M225.217,209.006v0.499h-4.998v-0.499H225.217z"/>
	<path d="M227.068,206.137l-0.699,2.119h-0.9l2.289-6.736h1.049l2.299,6.736h-0.929l-0.72-2.119H227.068z M229.277,205.457
		l-0.66-1.938c-0.15-0.439-0.25-0.84-0.35-1.229h-0.02c-0.101,0.399-0.211,0.81-0.34,1.22l-0.66,1.948H229.277z"/>
	<path d="M235.396,208.076c-0.229,0.12-0.739,0.279-1.389,0.279c-1.459,0-2.408-0.989-2.408-2.469c0-1.488,1.02-2.568,2.598-2.568
		c0.52,0,0.98,0.13,1.22,0.25l-0.2,0.68c-0.209-0.12-0.539-0.229-1.02-0.229c-1.109,0-1.709,0.819-1.709,1.829
		c0,1.119,0.72,1.809,1.68,1.809c0.5,0,0.829-0.13,1.079-0.24L235.396,208.076z"/>
	<path d="M237.618,202.029v1.39h1.259v0.669h-1.259v2.608c0,0.601,0.17,0.939,0.659,0.939c0.23,0,0.4-0.029,0.51-0.06l0.041,0.66
		c-0.17,0.069-0.44,0.119-0.78,0.119c-0.409,0-0.739-0.13-0.949-0.369c-0.25-0.26-0.34-0.689-0.34-1.26v-2.639h-0.75v-0.669h0.75
		v-1.16L237.618,202.029z"/>
	<path d="M240.848,202.06c0.011,0.3-0.209,0.539-0.559,0.539c-0.311,0-0.53-0.239-0.53-0.539c0-0.311,0.229-0.55,0.55-0.55
		C240.639,201.51,240.848,201.749,240.848,202.06z M239.869,208.256v-4.837h0.879v4.837H239.869z"/>
	<path d="M242.549,203.419l0.949,2.718c0.16,0.44,0.289,0.84,0.39,1.239h0.03c0.109-0.399,0.25-0.799,0.41-1.239l0.939-2.718h0.919
		l-1.899,4.837h-0.84l-1.838-4.837H242.549z"/>
	<path d="M247.998,202.06c0.01,0.3-0.211,0.539-0.561,0.539c-0.31,0-0.529-0.239-0.529-0.539c0-0.311,0.23-0.55,0.55-0.55
		C247.787,201.51,247.998,201.749,247.998,202.06z M247.018,208.256v-4.837h0.88v4.837H247.018z"/>
	<path d="M250.418,202.029v1.39h1.26v0.669h-1.26v2.608c0,0.601,0.17,0.939,0.66,0.939c0.229,0,0.399-0.029,0.51-0.06l0.039,0.66
		c-0.17,0.069-0.439,0.119-0.779,0.119c-0.41,0-0.74-0.13-0.949-0.369c-0.25-0.26-0.34-0.689-0.34-1.26v-2.639h-0.75v-0.669h0.75
		v-1.16L250.418,202.029z"/>
	<path d="M253.647,202.06c0.011,0.3-0.21,0.539-0.56,0.539c-0.311,0-0.529-0.239-0.529-0.539c0-0.311,0.229-0.55,0.549-0.55
		C253.438,201.51,253.647,201.749,253.647,202.06z M252.668,208.256v-4.837h0.879v4.837H252.668z"/>
	<path d="M255.498,205.997c0.02,1.189,0.779,1.679,1.658,1.679c0.631,0,1.01-0.109,1.34-0.249l0.15,0.629
		c-0.311,0.141-0.84,0.3-1.609,0.3c-1.489,0-2.379-0.979-2.379-2.438s0.859-2.608,2.269-2.608c1.579,0,1.999,1.39,1.999,2.278
		c0,0.181-0.02,0.32-0.029,0.41H255.498z M258.076,205.367c0.01-0.56-0.23-1.429-1.219-1.429c-0.891,0-1.279,0.819-1.35,1.429
		H258.076z"/>
	<path d="M259.898,207.356c0.26,0.17,0.719,0.35,1.159,0.35c0.64,0,0.939-0.319,0.939-0.72c0-0.42-0.25-0.649-0.899-0.89
		c-0.869-0.31-1.279-0.789-1.279-1.369c0-0.779,0.629-1.419,1.669-1.419c0.489,0,0.919,0.14,1.189,0.3l-0.22,0.64
		c-0.189-0.12-0.54-0.28-0.99-0.28c-0.52,0-0.809,0.3-0.809,0.66c0,0.399,0.289,0.58,0.919,0.819c0.84,0.32,1.27,0.739,1.27,1.459
		c0,0.85-0.659,1.449-1.81,1.449c-0.529,0-1.02-0.13-1.359-0.329L259.898,207.356z"/>
	<path d="M142.5,209.506v-0.5h120.748v0.5H142.5z"/>
</g>
<g>
	<path d="M193.148,214.029v1.39h1.259v0.669h-1.259v2.608c0,0.601,0.17,0.939,0.659,0.939c0.229,0,0.399-0.029,0.51-0.06l0.04,0.66
		c-0.17,0.069-0.439,0.119-0.779,0.119c-0.41,0-0.74-0.13-0.949-0.369c-0.25-0.26-0.34-0.689-0.34-1.26v-2.639h-0.75v-0.669h0.75
		v-1.16L193.148,214.029z"/>
	<path d="M198.077,220.256l-0.069-0.609h-0.031c-0.27,0.38-0.789,0.72-1.479,0.72c-0.979,0-1.479-0.69-1.479-1.39
		c0-1.169,1.04-1.809,2.909-1.799v-0.101c0-0.399-0.11-1.119-1.1-1.119c-0.45,0-0.92,0.14-1.26,0.36l-0.199-0.58
		c0.399-0.26,0.979-0.43,1.588-0.43c1.48,0,1.84,1.01,1.84,1.979v1.81c0,0.42,0.02,0.829,0.08,1.159H198.077z M197.947,217.787
		c-0.959-0.02-2.049,0.15-2.049,1.09c0,0.569,0.379,0.839,0.83,0.839c0.629,0,1.029-0.399,1.168-0.81
		c0.031-0.09,0.051-0.189,0.051-0.279V217.787z"/>
	<path d="M200.178,220.256c0.021-0.33,0.041-0.819,0.041-1.249v-5.847h0.869v3.038h0.02c0.311-0.54,0.87-0.89,1.649-0.89
		c1.2,0,2.049,0.999,2.039,2.469c0,1.729-1.089,2.589-2.169,2.589c-0.699,0-1.26-0.271-1.619-0.91h-0.029l-0.041,0.8H200.178z
		 M201.088,218.317c0,0.109,0.02,0.22,0.04,0.319c0.17,0.609,0.68,1.029,1.319,1.029c0.92,0,1.469-0.749,1.469-1.858
		c0-0.97-0.5-1.8-1.439-1.8c-0.6,0-1.158,0.41-1.339,1.08c-0.021,0.1-0.05,0.22-0.05,0.359V218.317z"/>
	<path d="M205.908,213.16h0.879v7.096h-0.879V213.16z"/>
	<path d="M208.758,217.997c0.02,1.189,0.779,1.679,1.659,1.679c0.63,0,1.009-0.109,1.339-0.249l0.15,0.629
		c-0.311,0.141-0.84,0.3-1.609,0.3c-1.488,0-2.379-0.979-2.379-2.438s0.859-2.608,2.27-2.608c1.578,0,1.998,1.39,1.998,2.278
		c0,0.181-0.02,0.32-0.029,0.41H208.758z M211.336,217.367c0.011-0.56-0.229-1.429-1.219-1.429c-0.89,0-1.279,0.819-1.35,1.429
		H211.336z"/>
	<path d="M213.068,216.218c0-0.369,0.25-0.629,0.6-0.629s0.58,0.26,0.59,0.629c0,0.351-0.23,0.62-0.6,0.62
		C213.309,216.838,213.068,216.568,213.068,216.218z M213.068,219.746c0-0.37,0.25-0.63,0.6-0.63s0.58,0.26,0.59,0.63
		c0,0.35-0.23,0.62-0.6,0.62C213.309,220.366,213.068,220.096,213.068,219.746z"/>
	<path d="M191.359,221.506v-0.5h23.259v0.5H191.359z"/>
</g>
<g enable-background="new    ">
	<path d="M145.427,74.156v0.649h-2.469v-0.649H145.427z"/>
	<path d="M152.025,77.005c-0.229,0.12-0.739,0.279-1.389,0.279c-1.459,0-2.408-0.989-2.408-2.469c0-1.488,1.02-2.568,2.598-2.568
		c0.52,0,0.98,0.13,1.22,0.25l-0.2,0.68c-0.209-0.12-0.539-0.229-1.02-0.229c-1.109,0-1.709,0.819-1.709,1.829
		c0,1.119,0.72,1.809,1.68,1.809c0.5,0,0.829-0.13,1.079-0.24L152.025,77.005z"/>
	<path d="M153.058,73.856c0-0.569-0.01-1.06-0.04-1.509h0.77l0.03,0.949h0.04c0.22-0.649,0.75-1.06,1.34-1.06
		c0.1,0,0.169,0.01,0.249,0.03v0.829c-0.09-0.02-0.18-0.03-0.3-0.03c-0.619,0-1.06,0.47-1.18,1.13c-0.02,0.12-0.039,0.26-0.039,0.41
		v2.578h-0.87V73.856z"/>
	<path d="M156.717,74.926c0.021,1.189,0.78,1.679,1.66,1.679c0.629,0,1.009-0.109,1.339-0.249l0.149,0.629
		c-0.31,0.141-0.84,0.3-1.609,0.3c-1.488,0-2.378-0.979-2.378-2.438s0.859-2.608,2.269-2.608c1.579,0,1.999,1.39,1.999,2.278
		c0,0.181-0.021,0.32-0.03,0.41H156.717z M159.296,74.296c0.011-0.56-0.229-1.429-1.22-1.429c-0.889,0-1.279,0.819-1.349,1.429
		H159.296z"/>
	<path d="M163.916,77.185l-0.07-0.609h-0.029c-0.271,0.38-0.79,0.72-1.479,0.72c-0.979,0-1.479-0.69-1.479-1.39
		c0-1.169,1.039-1.809,2.908-1.799v-0.101c0-0.399-0.109-1.119-1.1-1.119c-0.449,0-0.919,0.14-1.259,0.36l-0.2-0.58
		c0.4-0.26,0.98-0.43,1.59-0.43c1.479,0,1.839,1.01,1.839,1.979v1.81c0,0.42,0.021,0.829,0.079,1.159H163.916z M163.786,74.716
		c-0.96-0.02-2.049,0.15-2.049,1.09c0,0.569,0.38,0.839,0.829,0.839c0.63,0,1.029-0.399,1.17-0.81c0.029-0.09,0.05-0.189,0.05-0.279
		V74.716z"/>
	<path d="M167.077,70.958v1.39h1.259v0.669h-1.259v2.608c0,0.601,0.17,0.939,0.659,0.939c0.23,0,0.4-0.029,0.51-0.06l0.041,0.66
		c-0.17,0.069-0.44,0.119-0.78,0.119c-0.409,0-0.739-0.13-0.949-0.369c-0.25-0.26-0.34-0.689-0.34-1.26v-2.639h-0.75v-0.669h0.75
		v-1.16L167.077,70.958z"/>
	<path d="M169.758,74.926c0.02,1.189,0.779,1.679,1.658,1.679c0.631,0,1.01-0.109,1.34-0.249l0.15,0.629
		c-0.311,0.141-0.84,0.3-1.609,0.3c-1.489,0-2.379-0.979-2.379-2.438s0.859-2.608,2.269-2.608c1.579,0,1.999,1.39,1.999,2.278
		c0,0.181-0.02,0.32-0.029,0.41H169.758z M172.336,74.296c0.01-0.56-0.23-1.429-1.219-1.429c-0.891,0-1.279,0.819-1.35,1.429
		H172.336z"/>
	<path d="M178.455,70.089v5.847c0,0.43,0.01,0.919,0.04,1.249h-0.79l-0.039-0.84h-0.021c-0.27,0.54-0.859,0.95-1.649,0.95
		c-1.169,0-2.068-0.99-2.068-2.459c-0.01-1.609,0.989-2.599,2.169-2.599c0.739,0,1.239,0.35,1.459,0.739h0.021v-2.888H178.455z
		 M177.576,74.316c0-0.11-0.011-0.26-0.041-0.37c-0.129-0.56-0.609-1.02-1.269-1.02c-0.909,0-1.449,0.8-1.449,1.869
		c0,0.979,0.479,1.789,1.429,1.789c0.59,0,1.13-0.39,1.289-1.05c0.03-0.119,0.041-0.239,0.041-0.38V74.316z"/>
	<path d="M181.037,75.065l-0.7,2.119h-0.899l2.289-6.736h1.049l2.299,6.736h-0.93l-0.719-2.119H181.037z M183.245,74.386
		l-0.659-1.938c-0.15-0.439-0.25-0.84-0.35-1.229h-0.021c-0.101,0.399-0.21,0.81-0.34,1.22l-0.659,1.948H183.245z"/>
	<path d="M186.997,70.958v1.39h1.259v0.669h-1.259v2.608c0,0.601,0.17,0.939,0.659,0.939c0.23,0,0.4-0.029,0.51-0.06l0.041,0.66
		c-0.17,0.069-0.44,0.119-0.78,0.119c-0.409,0-0.739-0.13-0.949-0.369c-0.25-0.26-0.34-0.689-0.34-1.26v-2.639h-0.75v-0.669h0.75
		v-1.16L186.997,70.958z"/>
	<path d="M193.276,70.248c-0.729,0.979-1.259,2.279-1.259,4.088c0,1.779,0.549,3.059,1.259,4.058h-0.69
		c-0.629-0.829-1.309-2.108-1.309-4.058c0.01-1.969,0.68-3.248,1.309-4.088H193.276z"/>
	<path d="M197.655,77.005c-0.229,0.12-0.739,0.279-1.39,0.279c-1.459,0-2.408-0.989-2.408-2.469c0-1.488,1.02-2.568,2.599-2.568
		c0.52,0,0.979,0.13,1.22,0.25l-0.2,0.68c-0.21-0.12-0.54-0.229-1.02-0.229c-1.109,0-1.709,0.819-1.709,1.829
		c0,1.119,0.72,1.809,1.679,1.809c0.5,0,0.83-0.13,1.08-0.24L197.655,77.005z"/>
	<path d="M202.734,75.865c0,0.5,0.011,0.939,0.041,1.319h-0.78l-0.05-0.79h-0.02c-0.23,0.391-0.74,0.9-1.6,0.9
		c-0.76,0-1.669-0.42-1.669-2.119v-2.828h0.88v2.678c0,0.92,0.279,1.539,1.079,1.539c0.589,0,0.999-0.409,1.159-0.799
		c0.05-0.13,0.08-0.29,0.08-0.45v-2.968h0.879V75.865z"/>
	<path d="M204.078,76.285c0.26,0.17,0.719,0.35,1.158,0.35c0.641,0,0.939-0.319,0.939-0.72c0-0.42-0.25-0.649-0.898-0.89
		c-0.87-0.31-1.279-0.789-1.279-1.369c0-0.779,0.629-1.419,1.668-1.419c0.49,0,0.92,0.14,1.189,0.3l-0.219,0.64
		c-0.19-0.12-0.541-0.28-0.99-0.28c-0.52,0-0.81,0.3-0.81,0.66c0,0.399,0.29,0.58,0.919,0.819c0.84,0.32,1.27,0.739,1.27,1.459
		c0,0.85-0.659,1.449-1.809,1.449c-0.529,0-1.02-0.13-1.359-0.329L204.078,76.285z"/>
	<path d="M209.217,70.958v1.39h1.26v0.669h-1.26v2.608c0,0.601,0.17,0.939,0.66,0.939c0.229,0,0.399-0.029,0.51-0.06l0.039,0.66
		c-0.17,0.069-0.439,0.119-0.779,0.119c-0.41,0-0.74-0.13-0.949-0.369c-0.25-0.26-0.34-0.689-0.34-1.26v-2.639h-0.75v-0.669h0.75
		v-1.16L209.217,70.958z"/>
	<path d="M215.785,74.726c0,1.789-1.24,2.569-2.409,2.569c-1.31,0-2.319-0.96-2.319-2.489c0-1.619,1.06-2.568,2.398-2.568
		C214.845,72.237,215.785,73.247,215.785,74.726z M211.947,74.776c0,1.059,0.609,1.858,1.469,1.858c0.84,0,1.469-0.789,1.469-1.879
		c0-0.819-0.41-1.859-1.449-1.859S211.947,73.856,211.947,74.776z"/>
	<path d="M216.896,73.656c0-0.499-0.01-0.909-0.039-1.309h0.77l0.039,0.779h0.031c0.27-0.46,0.719-0.89,1.519-0.89
		c0.659,0,1.159,0.399,1.369,0.97h0.021c0.149-0.271,0.34-0.48,0.539-0.63c0.29-0.22,0.609-0.34,1.07-0.34
		c0.639,0,1.588,0.42,1.588,2.099v2.849h-0.859v-2.738c0-0.93-0.34-1.489-1.049-1.489c-0.5,0-0.89,0.37-1.039,0.8
		c-0.041,0.119-0.07,0.279-0.07,0.439v2.988h-0.859v-2.898c0-0.77-0.34-1.329-1.01-1.329c-0.55,0-0.949,0.439-1.09,0.879
		c-0.05,0.131-0.069,0.28-0.069,0.431v2.918h-0.86V73.656z"/>
	<path d="M225.727,74.926c0.02,1.189,0.779,1.679,1.659,1.679c0.63,0,1.009-0.109,1.339-0.249l0.15,0.629
		c-0.311,0.141-0.84,0.3-1.609,0.3c-1.488,0-2.379-0.979-2.379-2.438s0.859-2.608,2.27-2.608c1.578,0,1.998,1.39,1.998,2.278
		c0,0.181-0.02,0.32-0.029,0.41H225.727z M228.305,74.296c0.011-0.56-0.229-1.429-1.219-1.429c-0.89,0-1.279,0.819-1.35,1.429
		H228.305z"/>
	<path d="M230.247,73.856c0-0.569-0.01-1.06-0.04-1.509h0.77l0.03,0.949h0.04c0.22-0.649,0.75-1.06,1.34-1.06
		c0.1,0,0.169,0.01,0.249,0.03v0.829c-0.09-0.02-0.18-0.03-0.3-0.03c-0.619,0-1.06,0.47-1.18,1.13c-0.02,0.12-0.039,0.26-0.039,0.41
		v2.578h-0.87V73.856z"/>
	<path d="M237.784,77.935v0.499h-4.997v-0.499H237.784z"/>
	<path d="M241.195,77.185l-0.07-0.609h-0.029c-0.271,0.38-0.79,0.72-1.479,0.72c-0.979,0-1.479-0.69-1.479-1.39
		c0-1.169,1.039-1.809,2.908-1.799v-0.101c0-0.399-0.109-1.119-1.1-1.119c-0.449,0-0.919,0.14-1.259,0.36l-0.2-0.58
		c0.4-0.26,0.98-0.43,1.59-0.43c1.479,0,1.839,1.01,1.839,1.979v1.81c0,0.42,0.021,0.829,0.079,1.159H241.195z M241.065,74.716
		c-0.96-0.02-2.049,0.15-2.049,1.09c0,0.569,0.38,0.839,0.829,0.839c0.63,0,1.029-0.399,1.17-0.81c0.029-0.09,0.05-0.189,0.05-0.279
		V74.716z"/>
	<path d="M246.785,77.005c-0.23,0.12-0.74,0.279-1.389,0.279c-1.46,0-2.409-0.989-2.409-2.469c0-1.488,1.02-2.568,2.599-2.568
		c0.52,0,0.979,0.13,1.219,0.25l-0.199,0.68c-0.21-0.12-0.54-0.229-1.02-0.229c-1.109,0-1.709,0.819-1.709,1.829
		c0,1.119,0.719,1.809,1.679,1.809c0.5,0,0.829-0.13,1.079-0.24L246.785,77.005z"/>
	<path d="M249.006,70.958v1.39h1.26v0.669h-1.26v2.608c0,0.601,0.17,0.939,0.66,0.939c0.23,0,0.4-0.029,0.51-0.06l0.04,0.66
		c-0.17,0.069-0.44,0.119-0.78,0.119c-0.409,0-0.739-0.13-0.949-0.369c-0.25-0.26-0.34-0.689-0.34-1.26v-2.639h-0.75v-0.669h0.75
		v-1.16L249.006,70.958z"/>
	<path d="M252.236,70.988c0.01,0.3-0.211,0.539-0.561,0.539c-0.31,0-0.529-0.239-0.529-0.539c0-0.311,0.23-0.55,0.55-0.55
		C252.025,70.438,252.236,70.678,252.236,70.988z M251.256,77.185v-4.837h0.88v4.837H251.256z"/>
	<path d="M253.937,72.348l0.95,2.718c0.159,0.44,0.289,0.84,0.389,1.239h0.03c0.11-0.399,0.25-0.799,0.41-1.239l0.939-2.718h0.919
		l-1.898,4.837h-0.84l-1.839-4.837H253.937z"/>
	<path d="M259.386,70.988c0.011,0.3-0.21,0.539-0.56,0.539c-0.311,0-0.529-0.239-0.529-0.539c0-0.311,0.229-0.55,0.549-0.55
		C259.176,70.438,259.386,70.678,259.386,70.988z M258.406,77.185v-4.837h0.879v4.837H258.406z"/>
	<path d="M261.806,70.958v1.39h1.259v0.669h-1.259v2.608c0,0.601,0.17,0.939,0.659,0.939c0.23,0,0.4-0.029,0.51-0.06l0.041,0.66
		c-0.17,0.069-0.44,0.119-0.78,0.119c-0.409,0-0.739-0.13-0.949-0.369c-0.25-0.26-0.34-0.689-0.34-1.26v-2.639h-0.75v-0.669h0.75
		v-1.16L261.806,70.958z"/>
	<path d="M265.035,70.988c0.011,0.3-0.209,0.539-0.559,0.539c-0.311,0-0.53-0.239-0.53-0.539c0-0.311,0.229-0.55,0.55-0.55
		C264.826,70.438,265.035,70.678,265.035,70.988z M264.057,77.185v-4.837h0.879v4.837H264.057z"/>
	<path d="M266.886,74.926c0.021,1.189,0.78,1.679,1.659,1.679c0.63,0,1.01-0.109,1.34-0.249l0.149,0.629
		c-0.31,0.141-0.84,0.3-1.609,0.3c-1.489,0-2.378-0.979-2.378-2.438s0.859-2.608,2.268-2.608c1.58,0,2,1.39,2,2.278
		c0,0.181-0.021,0.32-0.03,0.41H266.886z M269.465,74.296c0.01-0.56-0.23-1.429-1.22-1.429c-0.89,0-1.279,0.819-1.349,1.429H269.465
		z"/>
	<path d="M271.287,76.285c0.26,0.17,0.719,0.35,1.158,0.35c0.641,0,0.939-0.319,0.939-0.72c0-0.42-0.25-0.649-0.898-0.89
		c-0.87-0.31-1.279-0.789-1.279-1.369c0-0.779,0.629-1.419,1.668-1.419c0.49,0,0.92,0.14,1.189,0.3l-0.219,0.64
		c-0.19-0.12-0.541-0.28-0.99-0.28c-0.52,0-0.81,0.3-0.81,0.66c0,0.399,0.29,0.58,0.919,0.819c0.84,0.32,1.27,0.739,1.27,1.459
		c0,0.85-0.659,1.449-1.809,1.449c-0.529,0-1.02-0.13-1.359-0.329L271.287,76.285z"/>
	<path d="M274.836,78.394c0.711-0.989,1.26-2.288,1.26-4.088c0-1.788-0.539-3.067-1.26-4.058h0.68c0.641,0.82,1.311,2.1,1.311,4.068
		c0,1.959-0.67,3.228-1.311,4.077H274.836z"/>
</g>
<g enable-background="new    ">
	<path d="M143.058,85.816v-0.6h5.157v0.6H143.058z M143.058,87.775v-0.6h5.157v0.6H143.058z"/>
	<path d="M151.468,85.656c0-0.499-0.01-0.909-0.04-1.309h0.77l0.04,0.779h0.03c0.27-0.46,0.719-0.89,1.52-0.89
		c0.659,0,1.158,0.399,1.369,0.97h0.02c0.15-0.271,0.34-0.48,0.539-0.63c0.291-0.22,0.61-0.34,1.07-0.34
		c0.64,0,1.589,0.42,1.589,2.099v2.849h-0.859v-2.738c0-0.93-0.34-1.489-1.05-1.489c-0.5,0-0.889,0.37-1.039,0.8
		c-0.04,0.119-0.07,0.279-0.07,0.439v2.988h-0.859v-2.898c0-0.77-0.34-1.329-1.01-1.329c-0.549,0-0.949,0.439-1.089,0.879
		c-0.05,0.131-0.069,0.28-0.069,0.431v2.918h-0.86V85.656z"/>
	<path d="M164.186,86.726c0,1.789-1.24,2.569-2.408,2.569c-1.311,0-2.319-0.96-2.319-2.489c0-1.619,1.06-2.568,2.398-2.568
		C163.246,84.237,164.186,85.247,164.186,86.726z M160.348,86.776c0,1.059,0.609,1.858,1.469,1.858c0.84,0,1.469-0.789,1.469-1.879
		c0-0.819-0.409-1.859-1.449-1.859C160.797,84.896,160.348,85.856,160.348,86.776z"/>
	<path d="M165.178,88.285c0.26,0.17,0.719,0.35,1.159,0.35c0.64,0,0.939-0.319,0.939-0.72c0-0.42-0.25-0.649-0.899-0.89
		c-0.869-0.31-1.279-0.789-1.279-1.369c0-0.779,0.629-1.419,1.669-1.419c0.489,0,0.919,0.14,1.189,0.3l-0.22,0.64
		c-0.189-0.12-0.54-0.28-0.99-0.28c-0.52,0-0.809,0.3-0.809,0.66c0,0.399,0.289,0.58,0.919,0.819c0.84,0.32,1.27,0.739,1.27,1.459
		c0,0.85-0.659,1.449-1.81,1.449c-0.529,0-1.02-0.13-1.359-0.329L165.178,88.285z"/>
	<path d="M170.316,82.958v1.39h1.26v0.669h-1.26v2.608c0,0.601,0.17,0.939,0.66,0.939c0.23,0,0.4-0.029,0.51-0.06l0.04,0.66
		c-0.17,0.069-0.44,0.119-0.78,0.119c-0.409,0-0.739-0.13-0.949-0.369c-0.25-0.26-0.34-0.689-0.34-1.26v-2.639h-0.75v-0.669h0.75
		v-1.16L170.316,82.958z"/>
	<path d="M174.688,85.856c0-0.569-0.01-1.06-0.04-1.509h0.77l0.03,0.949h0.04c0.22-0.649,0.749-1.06,1.339-1.06
		c0.1,0,0.17,0.01,0.25,0.03v0.829c-0.09-0.02-0.18-0.03-0.3-0.03c-0.62,0-1.06,0.47-1.179,1.13c-0.021,0.12-0.041,0.26-0.041,0.41
		v2.578h-0.869V85.856z"/>
	<path d="M178.348,86.926c0.02,1.189,0.779,1.679,1.658,1.679c0.631,0,1.01-0.109,1.34-0.249l0.15,0.629
		c-0.311,0.141-0.84,0.3-1.609,0.3c-1.489,0-2.379-0.979-2.379-2.438s0.859-2.608,2.269-2.608c1.579,0,1.999,1.39,1.999,2.278
		c0,0.181-0.02,0.32-0.029,0.41H178.348z M180.926,86.296c0.01-0.56-0.23-1.429-1.219-1.429c-0.891,0-1.279,0.819-1.35,1.429
		H180.926z"/>
	<path d="M186.315,89.005c-0.229,0.12-0.739,0.279-1.39,0.279c-1.459,0-2.408-0.989-2.408-2.469c0-1.488,1.02-2.568,2.599-2.568
		c0.52,0,0.979,0.13,1.22,0.25l-0.2,0.68c-0.21-0.12-0.54-0.229-1.02-0.229c-1.109,0-1.709,0.819-1.709,1.829
		c0,1.119,0.72,1.809,1.679,1.809c0.5,0,0.83-0.13,1.08-0.24L186.315,89.005z"/>
	<path d="M187.777,86.926c0.02,1.189,0.779,1.679,1.658,1.679c0.631,0,1.01-0.109,1.34-0.249l0.15,0.629
		c-0.311,0.141-0.84,0.3-1.609,0.3c-1.489,0-2.379-0.979-2.379-2.438s0.859-2.608,2.269-2.608c1.579,0,1.999,1.39,1.999,2.278
		c0,0.181-0.02,0.32-0.029,0.41H187.777z M190.355,86.296c0.01-0.56-0.23-1.429-1.219-1.429c-0.891,0-1.279,0.819-1.35,1.429
		H190.355z"/>
	<path d="M192.297,85.656c0-0.499-0.01-0.909-0.039-1.309h0.779l0.05,0.799h0.021c0.239-0.459,0.799-0.909,1.599-0.909
		c0.67,0,1.709,0.399,1.709,2.059v2.889h-0.88v-2.788c0-0.78-0.289-1.43-1.119-1.43c-0.58,0-1.029,0.41-1.18,0.899
		c-0.039,0.11-0.06,0.26-0.06,0.41v2.908h-0.88V85.656z"/>
	<path d="M198.867,82.958v1.39h1.259v0.669h-1.259v2.608c0,0.601,0.17,0.939,0.659,0.939c0.229,0,0.399-0.029,0.51-0.06l0.04,0.66
		c-0.17,0.069-0.439,0.119-0.779,0.119c-0.41,0-0.74-0.13-0.949-0.369c-0.25-0.26-0.34-0.689-0.34-1.26v-2.639h-0.75v-0.669h0.75
		v-1.16L198.867,82.958z"/>
</g>
<g enable-background="new    ">
	<path d="M145.427,98.156v0.649h-2.469v-0.649H145.427z"/>
	<path d="M152.625,99.865c0,0.5,0.011,0.939,0.041,1.319h-0.78l-0.05-0.79h-0.02c-0.23,0.391-0.74,0.9-1.6,0.9
		c-0.76,0-1.669-0.42-1.669-2.119v-2.828h0.88v2.678c0,0.92,0.279,1.539,1.079,1.539c0.589,0,0.999-0.409,1.159-0.799
		c0.05-0.13,0.08-0.29,0.08-0.45v-2.968h0.879V99.865z"/>
	<path d="M153.968,100.285c0.26,0.17,0.72,0.35,1.159,0.35c0.64,0,0.939-0.319,0.939-0.72c0-0.42-0.25-0.649-0.899-0.89
		c-0.87-0.31-1.279-0.789-1.279-1.369c0-0.779,0.63-1.419,1.669-1.419c0.49,0,0.92,0.14,1.189,0.3l-0.22,0.64
		c-0.19-0.12-0.54-0.28-0.989-0.28c-0.52,0-0.811,0.3-0.811,0.66c0,0.399,0.291,0.58,0.92,0.819c0.84,0.32,1.27,0.739,1.27,1.459
		c0,0.85-0.66,1.449-1.809,1.449c-0.53,0-1.02-0.13-1.359-0.329L153.968,100.285z"/>
	<path d="M158.537,98.926c0.02,1.189,0.779,1.679,1.659,1.679c0.63,0,1.009-0.109,1.339-0.249l0.15,0.629
		c-0.311,0.141-0.84,0.3-1.609,0.3c-1.488,0-2.379-0.979-2.379-2.438s0.859-2.608,2.27-2.608c1.578,0,1.998,1.39,1.998,2.278
		c0,0.181-0.02,0.32-0.029,0.41H158.537z M161.115,98.296c0.011-0.56-0.229-1.429-1.219-1.429c-0.89,0-1.279,0.819-1.35,1.429
		H161.115z"/>
	<path d="M163.057,97.856c0-0.569-0.01-1.06-0.039-1.509h0.77l0.029,0.949h0.041c0.219-0.649,0.749-1.06,1.339-1.06
		c0.1,0,0.17,0.01,0.249,0.03v0.829c-0.09-0.02-0.18-0.03-0.299-0.03c-0.62,0-1.06,0.47-1.18,1.13c-0.02,0.12-0.04,0.26-0.04,0.41
		v2.578h-0.87V97.856z"/>
	<path d="M170.595,101.935v0.499h-4.997v-0.499H170.595z"/>
	<path d="M172.307,94.988c0.01,0.3-0.21,0.539-0.56,0.539c-0.31,0-0.53-0.239-0.53-0.539c0-0.311,0.23-0.55,0.551-0.55
		C172.097,94.438,172.307,94.678,172.307,94.988z M171.327,101.185v-4.837h0.88v4.837H171.327z"/>
	<path d="M177.845,94.089v5.847c0,0.43,0.011,0.919,0.04,1.249h-0.789l-0.041-0.84h-0.02c-0.27,0.54-0.859,0.95-1.648,0.95
		c-1.17,0-2.069-0.99-2.069-2.459c-0.011-1.609,0.989-2.599,2.169-2.599c0.739,0,1.239,0.35,1.459,0.739h0.02v-2.888H177.845z
		 M176.965,98.316c0-0.11-0.01-0.26-0.039-0.37c-0.131-0.56-0.61-1.02-1.27-1.02c-0.91,0-1.449,0.8-1.449,1.869
		c0,0.979,0.479,1.789,1.43,1.789c0.589,0,1.129-0.39,1.289-1.05c0.029-0.119,0.039-0.239,0.039-0.38V98.316z"/>
	<path d="M181.098,97.816v-0.6h5.157v0.6H181.098z M181.098,99.775v-0.6h5.157v0.6H181.098z"/>
	<path d="M190.486,94.988c0.01,0.3-0.21,0.539-0.56,0.539c-0.31,0-0.53-0.239-0.53-0.539c0-0.311,0.23-0.55,0.551-0.55
		C190.276,94.438,190.486,94.678,190.486,94.988z M189.507,101.185v-4.837h0.88v4.837H189.507z"/>
	<path d="M196.024,94.089v5.847c0,0.43,0.011,0.919,0.04,1.249h-0.789l-0.041-0.84h-0.02c-0.27,0.54-0.859,0.95-1.648,0.95
		c-1.17,0-2.069-0.99-2.069-2.459c-0.011-1.609,0.989-2.599,2.169-2.599c0.739,0,1.239,0.35,1.459,0.739h0.02v-2.888H196.024z
		 M195.145,98.316c0-0.11-0.01-0.26-0.039-0.37c-0.131-0.56-0.61-1.02-1.27-1.02c-0.91,0-1.449,0.8-1.449,1.869
		c0,0.979,0.479,1.789,1.43,1.789c0.589,0,1.129-0.39,1.289-1.05c0.029-0.119,0.039-0.239,0.039-0.38V98.316z"/>
</g>
<g enable-background="new    ">
	<path d="M145.427,110.156v0.649h-2.469v-0.649H145.427z"/>
	<path d="M152.025,113.005c-0.229,0.12-0.739,0.279-1.389,0.279c-1.459,0-2.408-0.989-2.408-2.469c0-1.488,1.02-2.568,2.598-2.568
		c0.52,0,0.98,0.13,1.22,0.25l-0.2,0.68c-0.209-0.12-0.539-0.229-1.02-0.229c-1.109,0-1.709,0.819-1.709,1.829
		c0,1.119,0.72,1.809,1.68,1.809c0.5,0,0.829-0.13,1.079-0.24L152.025,113.005z"/>
	<path d="M157.375,110.726c0,1.789-1.239,2.569-2.408,2.569c-1.31,0-2.318-0.96-2.318-2.489c0-1.619,1.059-2.568,2.398-2.568
		C156.436,108.237,157.375,109.247,157.375,110.726z M153.537,110.776c0,1.059,0.609,1.858,1.469,1.858
		c0.84,0,1.47-0.789,1.47-1.879c0-0.819-0.409-1.859-1.449-1.859C153.987,108.896,153.537,109.856,153.537,110.776z"/>
	<path d="M158.487,109.656c0-0.499-0.01-0.909-0.04-1.309h0.779l0.051,0.799h0.02c0.24-0.459,0.8-0.909,1.6-0.909
		c0.67,0,1.709,0.399,1.709,2.059v2.889h-0.88v-2.788c0-0.78-0.29-1.43-1.119-1.43c-0.58,0-1.03,0.41-1.18,0.899
		c-0.04,0.11-0.06,0.26-0.06,0.41v2.908h-0.88V109.656z"/>
	<path d="M164.248,108.348l0.949,2.718c0.16,0.44,0.289,0.84,0.39,1.239h0.03c0.109-0.399,0.25-0.799,0.41-1.239l0.939-2.718h0.919
		l-1.899,4.837h-0.84l-1.838-4.837H164.248z"/>
	<path d="M169.107,110.926c0.02,1.189,0.779,1.679,1.659,1.679c0.63,0,1.009-0.109,1.339-0.249l0.15,0.629
		c-0.311,0.141-0.84,0.3-1.609,0.3c-1.488,0-2.379-0.979-2.379-2.438s0.859-2.608,2.27-2.608c1.578,0,1.998,1.39,1.998,2.278
		c0,0.181-0.02,0.32-0.029,0.41H169.107z M171.686,110.296c0.011-0.56-0.229-1.429-1.219-1.429c-0.89,0-1.279,0.819-1.35,1.429
		H171.686z"/>
	<path d="M173.627,109.856c0-0.569-0.01-1.06-0.039-1.509h0.77l0.029,0.949h0.041c0.219-0.649,0.749-1.06,1.339-1.06
		c0.1,0,0.17,0.01,0.249,0.03v0.829c-0.09-0.02-0.18-0.03-0.299-0.03c-0.62,0-1.06,0.47-1.18,1.13c-0.02,0.12-0.04,0.26-0.04,0.41
		v2.578h-0.87V109.856z"/>
	<path d="M176.777,112.285c0.26,0.17,0.72,0.35,1.16,0.35c0.639,0,0.939-0.319,0.939-0.72c0-0.42-0.25-0.649-0.9-0.89
		c-0.869-0.31-1.279-0.789-1.279-1.369c0-0.779,0.63-1.419,1.67-1.419c0.489,0,0.919,0.14,1.189,0.3l-0.221,0.64
		c-0.189-0.12-0.539-0.28-0.989-0.28c-0.52,0-0.81,0.3-0.81,0.66c0,0.399,0.29,0.58,0.92,0.819c0.84,0.32,1.27,0.739,1.27,1.459
		c0,0.85-0.66,1.449-1.81,1.449c-0.53,0-1.02-0.13-1.359-0.329L176.777,112.285z"/>
	<path d="M181.837,106.988c0.011,0.3-0.21,0.539-0.56,0.539c-0.311,0-0.529-0.239-0.529-0.539c0-0.311,0.229-0.55,0.549-0.55
		C181.627,106.438,181.837,106.678,181.837,106.988z M180.857,113.185v-4.837h0.879v4.837H180.857z"/>
	<path d="M187.575,110.726c0,1.789-1.239,2.569-2.409,2.569c-1.309,0-2.318-0.96-2.318-2.489c0-1.619,1.06-2.568,2.398-2.568
		C186.635,108.237,187.575,109.247,187.575,110.726z M183.737,110.776c0,1.059,0.609,1.858,1.469,1.858
		c0.84,0,1.47-0.789,1.47-1.879c0-0.819-0.41-1.859-1.449-1.859S183.737,109.856,183.737,110.776z"/>
	<path d="M188.688,109.656c0-0.499-0.01-0.909-0.041-1.309h0.78l0.05,0.799h0.02c0.24-0.459,0.801-0.909,1.6-0.909
		c0.67,0,1.709,0.399,1.709,2.059v2.889h-0.879v-2.788c0-0.78-0.29-1.43-1.119-1.43c-0.58,0-1.03,0.41-1.18,0.899
		c-0.041,0.11-0.061,0.26-0.061,0.41v2.908h-0.879V109.656z"/>
	<path d="M198.505,113.935v0.499h-4.997v-0.499H198.505z"/>
	<path d="M200.217,106.988c0.01,0.3-0.21,0.539-0.56,0.539c-0.31,0-0.53-0.239-0.53-0.539c0-0.311,0.23-0.55,0.551-0.55
		C200.007,106.438,200.217,106.678,200.217,106.988z M199.237,113.185v-4.837h0.88v4.837H199.237z"/>
	<path d="M205.755,106.089v5.847c0,0.43,0.011,0.919,0.04,1.249h-0.789l-0.041-0.84h-0.02c-0.27,0.54-0.859,0.95-1.648,0.95
		c-1.17,0-2.069-0.99-2.069-2.459c-0.011-1.609,0.989-2.599,2.169-2.599c0.739,0,1.239,0.35,1.459,0.739h0.02v-2.888H205.755z
		 M204.875,110.316c0-0.11-0.01-0.26-0.039-0.37c-0.131-0.56-0.61-1.02-1.27-1.02c-0.91,0-1.449,0.8-1.449,1.869
		c0,0.979,0.479,1.789,1.43,1.789c0.589,0,1.129-0.39,1.289-1.05c0.029-0.119,0.039-0.239,0.039-0.38V110.316z"/>
	<path d="M209.008,109.816v-0.6h5.156v0.6H209.008z M209.008,111.775v-0.6h5.156v0.6H209.008z"/>
	<path d="M218.396,106.988c0.01,0.3-0.21,0.539-0.56,0.539c-0.31,0-0.53-0.239-0.53-0.539c0-0.311,0.23-0.55,0.551-0.55
		C218.187,106.438,218.396,106.678,218.396,106.988z M217.417,113.185v-4.837h0.88v4.837H217.417z"/>
	<path d="M223.935,106.089v5.847c0,0.43,0.011,0.919,0.04,1.249h-0.789l-0.041-0.84h-0.02c-0.27,0.54-0.859,0.95-1.648,0.95
		c-1.17,0-2.069-0.99-2.069-2.459c-0.011-1.609,0.989-2.599,2.169-2.599c0.739,0,1.239,0.35,1.459,0.739h0.02v-2.888H223.935z
		 M223.055,110.316c0-0.11-0.01-0.26-0.039-0.37c-0.131-0.56-0.61-1.02-1.27-1.02c-0.91,0-1.449,0.8-1.449,1.869
		c0,0.979,0.479,1.789,1.43,1.789c0.589,0,1.129-0.39,1.289-1.05c0.029-0.119,0.039-0.239,0.039-0.38V110.316z"/>
</g>
<g enable-background="new    ">
	<path d="M145.427,122.156v0.649h-2.469v-0.649H145.427z"/>
	<path d="M148.578,118.089h0.879v7.096h-0.879V118.089z"/>
	<path d="M155.315,122.726c0,1.789-1.239,2.569-2.409,2.569c-1.309,0-2.318-0.96-2.318-2.489c0-1.619,1.06-2.568,2.398-2.568
		C154.375,120.237,155.315,121.247,155.315,122.726z M151.478,122.776c0,1.059,0.609,1.858,1.469,1.858
		c0.84,0,1.47-0.789,1.47-1.879c0-0.819-0.41-1.859-1.449-1.859S151.478,121.856,151.478,122.776z"/>
	<path d="M160.596,120.348c-0.021,0.35-0.041,0.739-0.041,1.329v2.809c0,1.109-0.22,1.789-0.689,2.208
		c-0.47,0.44-1.148,0.58-1.759,0.58c-0.579,0-1.22-0.14-1.609-0.399l0.22-0.67c0.32,0.2,0.82,0.38,1.42,0.38
		c0.899,0,1.559-0.47,1.559-1.689v-0.539h-0.02c-0.27,0.449-0.789,0.81-1.539,0.81c-1.199,0-2.059-1.02-2.059-2.359
		c0-1.639,1.068-2.568,2.178-2.568c0.84,0,1.3,0.439,1.51,0.84h0.02l0.041-0.729H160.596z M159.686,122.256
		c0-0.149-0.01-0.279-0.05-0.399c-0.16-0.51-0.59-0.93-1.229-0.93c-0.84,0-1.439,0.71-1.439,1.829c0,0.949,0.48,1.739,1.43,1.739
		c0.539,0,1.029-0.34,1.219-0.899c0.051-0.15,0.07-0.32,0.07-0.47V122.256z"/>
	<path d="M166.395,122.726c0,1.789-1.239,2.569-2.408,2.569c-1.31,0-2.318-0.96-2.318-2.489c0-1.619,1.059-2.568,2.398-2.568
		C165.455,120.237,166.395,121.247,166.395,122.726z M162.557,122.776c0,1.059,0.609,1.858,1.469,1.858
		c0.84,0,1.47-0.789,1.47-1.879c0-0.819-0.409-1.859-1.449-1.859C163.007,120.896,162.557,121.856,162.557,122.776z"/>
	<path d="M169.297,121.816v-0.6h5.158v0.6H169.297z M169.297,123.775v-0.6h5.158v0.6H169.297z"/>
	<path d="M180.386,125.185l-0.069-0.609h-0.031c-0.27,0.38-0.789,0.72-1.479,0.72c-0.979,0-1.479-0.69-1.479-1.39
		c0-1.169,1.04-1.809,2.909-1.799v-0.101c0-0.399-0.11-1.119-1.1-1.119c-0.45,0-0.92,0.14-1.26,0.36l-0.199-0.58
		c0.399-0.26,0.979-0.43,1.588-0.43c1.48,0,1.84,1.01,1.84,1.979v1.81c0,0.42,0.02,0.829,0.08,1.159H180.386z M180.256,122.716
		c-0.959-0.02-2.049,0.15-2.049,1.09c0,0.569,0.379,0.839,0.83,0.839c0.629,0,1.029-0.399,1.168-0.81
		c0.031-0.09,0.051-0.189,0.051-0.279V122.716z"/>
	<path d="M182.407,124.285c0.26,0.17,0.72,0.35,1.159,0.35c0.64,0,0.939-0.319,0.939-0.72c0-0.42-0.25-0.649-0.899-0.89
		c-0.87-0.31-1.279-0.789-1.279-1.369c0-0.779,0.63-1.419,1.669-1.419c0.49,0,0.92,0.14,1.189,0.3l-0.22,0.64
		c-0.19-0.12-0.54-0.28-0.989-0.28c-0.52,0-0.811,0.3-0.811,0.66c0,0.399,0.291,0.58,0.92,0.819c0.84,0.32,1.27,0.739,1.27,1.459
		c0,0.85-0.66,1.449-1.809,1.449c-0.53,0-1.02-0.13-1.359-0.329L182.407,124.285z"/>
	<path d="M186.367,124.285c0.26,0.17,0.719,0.35,1.159,0.35c0.64,0,0.939-0.319,0.939-0.72c0-0.42-0.25-0.649-0.899-0.89
		c-0.869-0.31-1.279-0.789-1.279-1.369c0-0.779,0.629-1.419,1.669-1.419c0.489,0,0.919,0.14,1.189,0.3l-0.22,0.64
		c-0.189-0.12-0.54-0.28-0.99-0.28c-0.52,0-0.809,0.3-0.809,0.66c0,0.399,0.289,0.58,0.919,0.819c0.84,0.32,1.27,0.739,1.27,1.459
		c0,0.85-0.659,1.449-1.81,1.449c-0.529,0-1.02-0.13-1.359-0.329L186.367,124.285z"/>
	<path d="M194.824,122.726c0,1.789-1.239,2.569-2.408,2.569c-1.31,0-2.318-0.96-2.318-2.489c0-1.619,1.059-2.568,2.398-2.568
		C193.885,120.237,194.824,121.247,194.824,122.726z M190.986,122.776c0,1.059,0.609,1.858,1.469,1.858
		c0.84,0,1.47-0.789,1.47-1.879c0-0.819-0.409-1.859-1.449-1.859C191.437,120.896,190.986,121.856,190.986,122.776z"/>
	<path d="M199.385,125.005c-0.229,0.12-0.739,0.279-1.389,0.279c-1.459,0-2.408-0.989-2.408-2.469c0-1.488,1.02-2.568,2.598-2.568
		c0.52,0,0.98,0.13,1.22,0.25l-0.2,0.68c-0.209-0.12-0.539-0.229-1.02-0.229c-1.109,0-1.709,0.819-1.709,1.829
		c0,1.119,0.72,1.809,1.68,1.809c0.5,0,0.829-0.13,1.079-0.24L199.385,125.005z"/>
	<path d="M201.396,118.988c0.01,0.3-0.21,0.539-0.56,0.539c-0.31,0-0.53-0.239-0.53-0.539c0-0.311,0.23-0.55,0.551-0.55
		C201.187,118.438,201.396,118.678,201.396,118.988z M200.417,125.185v-4.837h0.88v4.837H200.417z"/>
	<path d="M205.436,125.185l-0.07-0.609h-0.029c-0.271,0.38-0.79,0.72-1.479,0.72c-0.979,0-1.479-0.69-1.479-1.39
		c0-1.169,1.039-1.809,2.908-1.799v-0.101c0-0.399-0.109-1.119-1.1-1.119c-0.449,0-0.919,0.14-1.259,0.36l-0.2-0.58
		c0.4-0.26,0.98-0.43,1.59-0.43c1.479,0,1.839,1.01,1.839,1.979v1.81c0,0.42,0.021,0.829,0.079,1.159H205.436z M205.306,122.716
		c-0.96-0.02-2.049,0.15-2.049,1.09c0,0.569,0.38,0.839,0.829,0.839c0.63,0,1.029-0.399,1.17-0.81c0.029-0.09,0.05-0.189,0.05-0.279
		V122.716z"/>
	<path d="M208.596,118.958v1.39h1.26v0.669h-1.26v2.608c0,0.601,0.17,0.939,0.66,0.939c0.23,0,0.4-0.029,0.51-0.06l0.04,0.66
		c-0.17,0.069-0.44,0.119-0.78,0.119c-0.409,0-0.739-0.13-0.949-0.369c-0.25-0.26-0.34-0.689-0.34-1.26v-2.639h-0.75v-0.669h0.75
		v-1.16L208.596,118.958z"/>
	<path d="M211.276,122.926c0.021,1.189,0.78,1.679,1.659,1.679c0.63,0,1.01-0.109,1.34-0.249l0.149,0.629
		c-0.31,0.141-0.84,0.3-1.609,0.3c-1.489,0-2.378-0.979-2.378-2.438s0.859-2.608,2.268-2.608c1.58,0,2,1.39,2,2.278
		c0,0.181-0.021,0.32-0.03,0.41H211.276z M213.855,122.296c0.01-0.56-0.23-1.429-1.22-1.429c-0.89,0-1.279,0.819-1.349,1.429
		H213.855z"/>
	<path d="M219.975,118.089v5.847c0,0.43,0.01,0.919,0.039,1.249h-0.789l-0.04-0.84h-0.021c-0.27,0.54-0.859,0.95-1.648,0.95
		c-1.17,0-2.068-0.99-2.068-2.459c-0.011-1.609,0.988-2.599,2.168-2.599c0.74,0,1.24,0.35,1.459,0.739h0.021v-2.888H219.975z
		 M219.095,122.316c0-0.11-0.011-0.26-0.04-0.37c-0.13-0.56-0.609-1.02-1.27-1.02c-0.909,0-1.449,0.8-1.449,1.869
		c0,0.979,0.48,1.789,1.43,1.789c0.59,0,1.129-0.39,1.289-1.05c0.029-0.119,0.04-0.239,0.04-0.38V122.316z"/>
	<path d="M223.906,120.348l0.641,2.458c0.139,0.54,0.27,1.04,0.359,1.539h0.029c0.11-0.489,0.271-1.009,0.43-1.529l0.79-2.468h0.739
		l0.75,2.418c0.18,0.58,0.32,1.09,0.43,1.579h0.03c0.079-0.489,0.21-0.999,0.37-1.568l0.689-2.429h0.869l-1.559,4.837h-0.801
		l-0.738-2.309c-0.17-0.54-0.311-1.02-0.431-1.589h-0.02c-0.12,0.579-0.271,1.079-0.44,1.599l-0.779,2.299h-0.799l-1.46-4.837
		H223.906z"/>
	<path d="M231.896,118.988c0.01,0.3-0.211,0.539-0.561,0.539c-0.31,0-0.529-0.239-0.529-0.539c0-0.311,0.23-0.55,0.55-0.55
		C231.686,118.438,231.896,118.678,231.896,118.988z M230.916,125.185v-4.837h0.88v4.837H230.916z"/>
	<path d="M234.316,118.958v1.39h1.259v0.669h-1.259v2.608c0,0.601,0.17,0.939,0.659,0.939c0.229,0,0.399-0.029,0.51-0.06l0.04,0.66
		c-0.17,0.069-0.439,0.119-0.779,0.119c-0.41,0-0.74-0.13-0.949-0.369c-0.25-0.26-0.34-0.689-0.34-1.26v-2.639h-0.75v-0.669h0.75
		v-1.16L234.316,118.958z"/>
	<path d="M236.566,118.089h0.879v3.018h0.021c0.14-0.249,0.36-0.47,0.63-0.619c0.26-0.15,0.57-0.25,0.899-0.25
		c0.649,0,1.688,0.399,1.688,2.068v2.879h-0.879v-2.778c0-0.779-0.29-1.439-1.119-1.439c-0.57,0-1.02,0.399-1.18,0.88
		c-0.05,0.12-0.061,0.25-0.061,0.42v2.918h-0.879V118.089z"/>
</g>
<g enable-background="new    ">
	<path d="M146.836,137.005c-0.23,0.12-0.74,0.279-1.389,0.279c-1.46,0-2.409-0.989-2.409-2.469c0-1.488,1.02-2.568,2.599-2.568
		c0.52,0,0.979,0.13,1.219,0.25l-0.199,0.68c-0.21-0.12-0.54-0.229-1.02-0.229c-1.109,0-1.709,0.819-1.709,1.829
		c0,1.119,0.719,1.809,1.679,1.809c0.5,0,0.829-0.13,1.079-0.24L146.836,137.005z"/>
	<path d="M151.916,135.865c0,0.5,0.01,0.939,0.039,1.319h-0.779l-0.05-0.79h-0.021c-0.229,0.391-0.739,0.9-1.599,0.9
		c-0.76,0-1.669-0.42-1.669-2.119v-2.828h0.879v2.678c0,0.92,0.28,1.539,1.08,1.539c0.59,0,1-0.409,1.159-0.799
		c0.05-0.13,0.08-0.29,0.08-0.45v-2.968h0.88V135.865z"/>
	<path d="M153.258,136.285c0.26,0.17,0.719,0.35,1.159,0.35c0.64,0,0.939-0.319,0.939-0.72c0-0.42-0.25-0.649-0.899-0.89
		c-0.869-0.31-1.279-0.789-1.279-1.369c0-0.779,0.629-1.419,1.669-1.419c0.489,0,0.919,0.14,1.189,0.3l-0.22,0.64
		c-0.189-0.12-0.54-0.28-0.99-0.28c-0.52,0-0.809,0.3-0.809,0.66c0,0.399,0.289,0.58,0.919,0.819c0.84,0.32,1.27,0.739,1.27,1.459
		c0,0.85-0.659,1.449-1.81,1.449c-0.529,0-1.02-0.13-1.359-0.329L153.258,136.285z"/>
	<path d="M158.396,130.958v1.39h1.26v0.669h-1.26v2.608c0,0.601,0.17,0.939,0.66,0.939c0.23,0,0.4-0.029,0.51-0.06l0.04,0.66
		c-0.17,0.069-0.44,0.119-0.78,0.119c-0.409,0-0.739-0.13-0.949-0.369c-0.25-0.26-0.34-0.689-0.34-1.26v-2.639h-0.75v-0.669h0.75
		v-1.16L158.396,130.958z"/>
	<path d="M164.965,134.726c0,1.789-1.239,2.569-2.408,2.569c-1.31,0-2.318-0.96-2.318-2.489c0-1.619,1.059-2.568,2.398-2.568
		C164.025,132.237,164.965,133.247,164.965,134.726z M161.127,134.776c0,1.059,0.609,1.858,1.469,1.858
		c0.84,0,1.47-0.789,1.47-1.879c0-0.819-0.409-1.859-1.449-1.859C161.577,132.896,161.127,133.856,161.127,134.776z"/>
	<path d="M166.078,133.656c0-0.499-0.01-0.909-0.041-1.309h0.77l0.041,0.779h0.029c0.27-0.46,0.72-0.89,1.52-0.89
		c0.66,0,1.159,0.399,1.369,0.97h0.02c0.15-0.271,0.34-0.48,0.54-0.63c0.29-0.22,0.61-0.34,1.069-0.34c0.641,0,1.59,0.42,1.59,2.099
		v2.849h-0.859v-2.738c0-0.93-0.34-1.489-1.05-1.489c-0.5,0-0.89,0.37-1.04,0.8c-0.039,0.119-0.069,0.279-0.069,0.439v2.988h-0.86
		v-2.898c0-0.77-0.34-1.329-1.009-1.329c-0.55,0-0.95,0.439-1.089,0.879c-0.051,0.131-0.07,0.28-0.07,0.431v2.918h-0.859V133.656z"
		/>
	<path d="M174.907,134.926c0.021,1.189,0.78,1.679,1.659,1.679c0.63,0,1.01-0.109,1.34-0.249l0.149,0.629
		c-0.31,0.141-0.84,0.3-1.609,0.3c-1.489,0-2.378-0.979-2.378-2.438s0.859-2.608,2.268-2.608c1.58,0,2,1.39,2,2.278
		c0,0.181-0.021,0.32-0.03,0.41H174.907z M177.486,134.296c0.01-0.56-0.23-1.429-1.22-1.429c-0.89,0-1.279,0.819-1.349,1.429
		H177.486z"/>
	<path d="M179.428,133.856c0-0.569-0.01-1.06-0.041-1.509h0.77l0.031,0.949h0.039c0.221-0.649,0.75-1.06,1.34-1.06
		c0.1,0,0.17,0.01,0.25,0.03v0.829c-0.09-0.02-0.18-0.03-0.301-0.03c-0.619,0-1.059,0.47-1.179,1.13
		c-0.021,0.12-0.04,0.26-0.04,0.41v2.578h-0.869V133.856z"/>
	<path d="M186.965,137.935v0.499h-4.997v-0.499H186.965z"/>
	<path d="M188.677,130.988c0.011,0.3-0.21,0.539-0.56,0.539c-0.311,0-0.529-0.239-0.529-0.539c0-0.311,0.229-0.55,0.549-0.55
		C188.467,130.438,188.677,130.678,188.677,130.988z M187.697,137.185v-4.837h0.879v4.837H187.697z"/>
	<path d="M194.215,130.089v5.847c0,0.43,0.01,0.919,0.04,1.249h-0.79l-0.039-0.84h-0.021c-0.27,0.54-0.859,0.95-1.649,0.95
		c-1.169,0-2.068-0.99-2.068-2.459c-0.01-1.609,0.989-2.599,2.169-2.599c0.739,0,1.239,0.35,1.459,0.739h0.021v-2.888H194.215z
		 M193.336,134.316c0-0.11-0.011-0.26-0.041-0.37c-0.129-0.56-0.609-1.02-1.269-1.02c-0.909,0-1.449,0.8-1.449,1.869
		c0,0.979,0.479,1.789,1.429,1.789c0.59,0,1.13-0.39,1.289-1.05c0.03-0.119,0.041-0.239,0.041-0.38V134.316z"/>
</g>
<g enable-background="new    ">
	<path d="M151.104,175.968v0.649h-2.469v-0.649H151.104z"/>
	<path d="M155.234,172.8c0.01,0.3-0.211,0.539-0.561,0.539c-0.31,0-0.529-0.239-0.529-0.539c0-0.311,0.23-0.55,0.55-0.55
		C155.023,172.25,155.234,172.489,155.234,172.8z M154.254,178.996v-4.837h0.88v4.837H154.254z"/>
	<path d="M160.771,171.9v5.847c0,0.43,0.011,0.919,0.041,1.249h-0.79l-0.04-0.84h-0.02c-0.27,0.54-0.859,0.95-1.649,0.95
		c-1.169,0-2.069-0.99-2.069-2.459c-0.01-1.609,0.99-2.599,2.17-2.599c0.738,0,1.238,0.35,1.459,0.739h0.02V171.9H160.771z
		 M159.893,176.128c0-0.11-0.01-0.26-0.04-0.37c-0.13-0.56-0.61-1.02-1.27-1.02c-0.909,0-1.448,0.8-1.448,1.869
		c0,0.979,0.479,1.789,1.429,1.789c0.589,0,1.13-0.39,1.289-1.05c0.03-0.119,0.04-0.239,0.04-0.38V176.128z"/>
</g>
<g enable-background="new    ">
	<path d="M151.103,226.074v0.649h-2.469v-0.649H151.103z"/>
	<path d="M155.232,222.906c0.011,0.3-0.209,0.539-0.559,0.539c-0.311,0-0.53-0.239-0.53-0.539c0-0.311,0.229-0.55,0.55-0.55
		C155.023,222.356,155.232,222.596,155.232,222.906z M154.254,229.103v-4.837h0.879v4.837H154.254z"/>
	<path d="M160.771,222.007v5.847c0,0.43,0.01,0.919,0.039,1.249h-0.789l-0.04-0.84h-0.021c-0.27,0.54-0.859,0.95-1.648,0.95
		c-1.17,0-2.068-0.99-2.068-2.459c-0.011-1.609,0.988-2.599,2.168-2.599c0.74,0,1.24,0.35,1.459,0.739h0.021v-2.888H160.771z
		 M159.892,226.234c0-0.11-0.011-0.26-0.04-0.37c-0.13-0.56-0.609-1.02-1.27-1.02c-0.909,0-1.449,0.8-1.449,1.869
		c0,0.979,0.48,1.789,1.43,1.789c0.59,0,1.129-0.39,1.289-1.05c0.029-0.119,0.04-0.239,0.04-0.38V226.234z"/>
</g>
<g enable-background="new    ">
	<path d="M151.103,238.074v0.649h-2.469v-0.649H151.103z"/>
	<path d="M154.743,238.844c0.021,1.189,0.78,1.679,1.659,1.679c0.63,0,1.01-0.109,1.34-0.249l0.149,0.629
		c-0.31,0.141-0.84,0.3-1.609,0.3c-1.489,0-2.378-0.979-2.378-2.438s0.859-2.608,2.268-2.608c1.58,0,2,1.39,2,2.278
		c0,0.181-0.021,0.32-0.03,0.41H154.743z M157.322,238.214c0.01-0.56-0.23-1.429-1.22-1.429c-0.89,0-1.279,0.819-1.349,1.429
		H157.322z"/>
	<path d="M159.604,236.266l0.949,2.718c0.16,0.44,0.289,0.84,0.39,1.239h0.03c0.109-0.399,0.25-0.799,0.41-1.239l0.939-2.718h0.919
		l-1.899,4.837h-0.84l-1.838-4.837H159.604z"/>
	<path d="M164.463,238.844c0.02,1.189,0.779,1.679,1.659,1.679c0.63,0,1.009-0.109,1.339-0.249l0.15,0.629
		c-0.311,0.141-0.84,0.3-1.609,0.3c-1.488,0-2.379-0.979-2.379-2.438s0.859-2.608,2.27-2.608c1.578,0,1.998,1.39,1.998,2.278
		c0,0.181-0.02,0.32-0.029,0.41H164.463z M167.041,238.214c0.011-0.56-0.229-1.429-1.219-1.429c-0.89,0-1.279,0.819-1.35,1.429
		H167.041z"/>
	<path d="M168.982,237.574c0-0.499-0.01-0.909-0.039-1.309h0.779l0.05,0.799h0.021c0.239-0.459,0.799-0.909,1.599-0.909
		c0.67,0,1.709,0.399,1.709,2.059v2.889h-0.88v-2.788c0-0.78-0.289-1.43-1.119-1.43c-0.58,0-1.029,0.41-1.18,0.899
		c-0.039,0.11-0.06,0.26-0.06,0.41v2.908h-0.88V237.574z"/>
	<path d="M175.553,234.876v1.39h1.26v0.669h-1.26v2.608c0,0.601,0.17,0.939,0.66,0.939c0.229,0,0.399-0.029,0.51-0.06l0.039,0.66
		c-0.17,0.069-0.439,0.119-0.779,0.119c-0.41,0-0.74-0.13-0.949-0.369c-0.25-0.26-0.34-0.689-0.34-1.26v-2.639h-0.75v-0.669h0.75
		v-1.16L175.553,234.876z"/>
	<path d="M181.832,234.166c-0.729,0.979-1.26,2.279-1.26,4.088c0,1.779,0.55,3.059,1.26,4.058h-0.689
		c-0.63-0.829-1.31-2.108-1.31-4.058c0.01-1.969,0.68-3.248,1.31-4.088H181.832z"/>
	<path d="M183.103,236.266l0.95,2.718c0.159,0.44,0.289,0.84,0.389,1.239h0.03c0.11-0.399,0.25-0.799,0.41-1.239l0.939-2.718h0.919
		l-1.898,4.837h-0.84l-1.839-4.837H183.103z"/>
	<path d="M188.553,234.906c0.01,0.3-0.211,0.539-0.561,0.539c-0.31,0-0.529-0.239-0.529-0.539c0-0.311,0.23-0.55,0.55-0.55
		C188.342,234.356,188.553,234.596,188.553,234.906z M187.572,241.103v-4.837h0.88v4.837H187.572z"/>
	<path d="M190.402,238.844c0.02,1.189,0.779,1.679,1.659,1.679c0.63,0,1.009-0.109,1.339-0.249l0.15,0.629
		c-0.311,0.141-0.84,0.3-1.609,0.3c-1.488,0-2.379-0.979-2.379-2.438s0.859-2.608,2.27-2.608c1.578,0,1.998,1.39,1.998,2.278
		c0,0.181-0.02,0.32-0.029,0.41H190.402z M192.98,238.214c0.011-0.56-0.229-1.429-1.219-1.429c-0.89,0-1.279,0.819-1.35,1.429
		H192.98z"/>
	<path d="M195.272,236.266l0.64,2.458c0.14,0.54,0.27,1.04,0.359,1.539h0.03c0.11-0.489,0.271-1.009,0.43-1.529l0.79-2.468h0.739
		l0.749,2.418c0.18,0.58,0.32,1.09,0.43,1.579h0.03c0.08-0.489,0.21-0.999,0.37-1.568l0.689-2.429h0.869l-1.559,4.837h-0.8
		l-0.739-2.309c-0.17-0.54-0.311-1.02-0.43-1.589h-0.02c-0.121,0.579-0.271,1.079-0.44,1.599l-0.78,2.299h-0.799l-1.459-4.837
		H195.272z"/>
	<path d="M201.752,242.312c0.711-0.989,1.26-2.288,1.26-4.088c0-1.788-0.539-3.067-1.26-4.058h0.68
		c0.641,0.82,1.311,2.1,1.311,4.068c0,1.959-0.67,3.228-1.311,4.077H201.752z"/>
</g>
<g enable-background="new    ">
	<path d="M151.103,250.074v0.649h-2.469v-0.649H151.103z"/>
	<path d="M154.254,249.845c0-0.62-0.021-1.12-0.041-1.579h0.79l0.04,0.829h0.02c0.36-0.59,0.93-0.939,1.72-0.939
		c1.169,0,2.049,0.989,2.049,2.459c0,1.738-1.06,2.599-2.198,2.599c-0.641,0-1.199-0.28-1.49-0.76h-0.02v2.628h-0.869V249.845z
		 M155.123,251.134c0,0.13,0.02,0.25,0.04,0.359c0.159,0.61,0.689,1.029,1.319,1.029c0.93,0,1.469-0.759,1.469-1.868
		c0-0.97-0.51-1.8-1.439-1.8c-0.6,0-1.158,0.43-1.328,1.09c-0.031,0.11-0.061,0.24-0.061,0.359V251.134z"/>
	<path d="M159.943,249.774c0-0.569-0.01-1.06-0.04-1.509h0.77l0.03,0.949h0.04c0.22-0.649,0.749-1.06,1.339-1.06
		c0.1,0,0.17,0.01,0.25,0.03v0.829c-0.09-0.02-0.18-0.03-0.3-0.03c-0.62,0-1.06,0.47-1.179,1.13c-0.021,0.12-0.041,0.26-0.041,0.41
		v2.578h-0.869V249.774z"/>
	<path d="M167.491,250.644c0,1.789-1.239,2.569-2.409,2.569c-1.309,0-2.318-0.96-2.318-2.489c0-1.619,1.06-2.568,2.398-2.568
		C166.551,248.155,167.491,249.165,167.491,250.644z M163.653,250.694c0,1.059,0.609,1.858,1.469,1.858
		c0.84,0,1.47-0.789,1.47-1.879c0-0.819-0.41-1.859-1.449-1.859S163.653,249.774,163.653,250.694z"/>
	<path d="M168.604,249.845c0-0.62-0.021-1.12-0.041-1.579h0.79l0.04,0.829h0.02c0.36-0.59,0.93-0.939,1.72-0.939
		c1.169,0,2.049,0.989,2.049,2.459c0,1.738-1.06,2.599-2.198,2.599c-0.641,0-1.199-0.28-1.49-0.76h-0.02v2.628h-0.869V249.845z
		 M169.473,251.134c0,0.13,0.02,0.25,0.04,0.359c0.159,0.61,0.689,1.029,1.319,1.029c0.93,0,1.469-0.759,1.469-1.868
		c0-0.97-0.51-1.8-1.439-1.8c-0.6,0-1.158,0.43-1.328,1.09c-0.031,0.11-0.061,0.24-0.061,0.359V251.134z"/>
	<path d="M174.174,252.203c0.26,0.17,0.719,0.35,1.158,0.35c0.641,0,0.939-0.319,0.939-0.72c0-0.42-0.25-0.649-0.898-0.89
		c-0.87-0.31-1.279-0.789-1.279-1.369c0-0.779,0.629-1.419,1.668-1.419c0.49,0,0.92,0.14,1.189,0.3l-0.219,0.64
		c-0.19-0.12-0.541-0.28-0.99-0.28c-0.52,0-0.81,0.3-0.81,0.66c0,0.399,0.29,0.58,0.919,0.819c0.84,0.32,1.27,0.739,1.27,1.459
		c0,0.85-0.659,1.449-1.809,1.449c-0.529,0-1.02-0.13-1.359-0.329L174.174,252.203z"/>
	<path d="M182.282,246.166c-0.729,0.979-1.259,2.279-1.259,4.088c0,1.779,0.549,3.059,1.259,4.058h-0.69
		c-0.629-0.829-1.309-2.108-1.309-4.058c0.01-1.969,0.68-3.248,1.309-4.088H182.282z"/>
	<path d="M183.213,249.574c0-0.499-0.01-0.909-0.04-1.309h0.77l0.04,0.779h0.03c0.27-0.46,0.72-0.89,1.519-0.89
		c0.66,0,1.16,0.399,1.369,0.97h0.021c0.149-0.271,0.34-0.48,0.54-0.63c0.289-0.22,0.609-0.34,1.069-0.34
		c0.64,0,1.589,0.42,1.589,2.099v2.849h-0.859v-2.738c0-0.93-0.34-1.489-1.049-1.489c-0.5,0-0.891,0.37-1.04,0.8
		c-0.04,0.119-0.069,0.279-0.069,0.439v2.988h-0.86v-2.898c0-0.77-0.34-1.329-1.009-1.329c-0.551,0-0.95,0.439-1.09,0.879
		c-0.051,0.131-0.07,0.28-0.07,0.431v2.918h-0.859V249.574z"/>
	<path d="M192.043,250.844c0.02,1.189,0.779,1.679,1.658,1.679c0.631,0,1.01-0.109,1.34-0.249l0.15,0.629
		c-0.311,0.141-0.84,0.3-1.609,0.3c-1.489,0-2.379-0.979-2.379-2.438s0.859-2.608,2.269-2.608c1.579,0,1.999,1.39,1.999,2.278
		c0,0.181-0.02,0.32-0.029,0.41H192.043z M194.621,250.214c0.01-0.56-0.23-1.429-1.219-1.429c-0.891,0-1.279,0.819-1.35,1.429
		H194.621z"/>
	<path d="M196.443,252.203c0.26,0.17,0.719,0.35,1.158,0.35c0.641,0,0.939-0.319,0.939-0.72c0-0.42-0.25-0.649-0.898-0.89
		c-0.87-0.31-1.279-0.789-1.279-1.369c0-0.779,0.629-1.419,1.668-1.419c0.49,0,0.92,0.14,1.189,0.3l-0.219,0.64
		c-0.19-0.12-0.541-0.28-0.99-0.28c-0.52,0-0.81,0.3-0.81,0.66c0,0.399,0.29,0.58,0.919,0.819c0.84,0.32,1.27,0.739,1.27,1.459
		c0,0.85-0.659,1.449-1.809,1.449c-0.529,0-1.02-0.13-1.359-0.329L196.443,252.203z"/>
	<path d="M200.402,252.203c0.26,0.17,0.72,0.35,1.16,0.35c0.639,0,0.939-0.319,0.939-0.72c0-0.42-0.25-0.649-0.9-0.89
		c-0.869-0.31-1.279-0.789-1.279-1.369c0-0.779,0.63-1.419,1.67-1.419c0.489,0,0.919,0.14,1.189,0.3l-0.221,0.64
		c-0.189-0.12-0.539-0.28-0.989-0.28c-0.52,0-0.81,0.3-0.81,0.66c0,0.399,0.29,0.58,0.92,0.819c0.84,0.32,1.27,0.739,1.27,1.459
		c0,0.85-0.66,1.449-1.81,1.449c-0.53,0-1.02-0.13-1.359-0.329L200.402,252.203z"/>
	<path d="M207.161,253.103l-0.069-0.609h-0.031c-0.27,0.38-0.789,0.72-1.479,0.72c-0.979,0-1.479-0.69-1.479-1.39
		c0-1.169,1.04-1.809,2.909-1.799v-0.101c0-0.399-0.11-1.119-1.1-1.119c-0.45,0-0.92,0.14-1.26,0.36l-0.199-0.58
		c0.399-0.26,0.979-0.43,1.588-0.43c1.48,0,1.84,1.01,1.84,1.979v1.81c0,0.42,0.02,0.829,0.08,1.159H207.161z M207.031,250.634
		c-0.959-0.02-2.049,0.15-2.049,1.09c0,0.569,0.379,0.839,0.83,0.839c0.629,0,1.029-0.399,1.168-0.81
		c0.031-0.09,0.051-0.189,0.051-0.279V250.634z"/>
	<path d="M213.471,248.266c-0.02,0.35-0.04,0.739-0.04,1.329v2.809c0,1.109-0.22,1.789-0.69,2.208
		c-0.469,0.44-1.148,0.58-1.758,0.58c-0.58,0-1.22-0.14-1.609-0.399l0.22-0.67c0.319,0.2,0.819,0.38,1.419,0.38
		c0.9,0,1.56-0.47,1.56-1.689v-0.539h-0.021c-0.27,0.449-0.789,0.81-1.539,0.81c-1.199,0-2.059-1.02-2.059-2.359
		c0-1.639,1.069-2.568,2.179-2.568c0.839,0,1.3,0.439,1.509,0.84h0.021l0.04-0.729H213.471z M212.561,250.174
		c0-0.149-0.01-0.279-0.049-0.399c-0.16-0.51-0.59-0.93-1.23-0.93c-0.839,0-1.438,0.71-1.438,1.829c0,0.949,0.479,1.739,1.429,1.739
		c0.54,0,1.029-0.34,1.22-0.899c0.05-0.15,0.069-0.32,0.069-0.47V250.174z"/>
	<path d="M215.383,250.844c0.02,1.189,0.779,1.679,1.658,1.679c0.631,0,1.01-0.109,1.34-0.249l0.15,0.629
		c-0.311,0.141-0.84,0.3-1.609,0.3c-1.489,0-2.379-0.979-2.379-2.438s0.859-2.608,2.269-2.608c1.579,0,1.999,1.39,1.999,2.278
		c0,0.181-0.02,0.32-0.029,0.41H215.383z M217.961,250.214c0.01-0.56-0.23-1.429-1.219-1.429c-0.891,0-1.279,0.819-1.35,1.429
		H217.961z"/>
	<path d="M224.17,253.853v0.499h-4.997v-0.499H224.17z"/>
	<path d="M225.882,246.906c0.011,0.3-0.21,0.539-0.56,0.539c-0.311,0-0.529-0.239-0.529-0.539c0-0.311,0.229-0.55,0.549-0.55
		C225.672,246.356,225.882,246.596,225.882,246.906z M224.902,253.103v-4.837h0.879v4.837H224.902z"/>
	<path d="M231.42,246.007v5.847c0,0.43,0.01,0.919,0.04,1.249h-0.79l-0.039-0.84h-0.021c-0.27,0.54-0.859,0.95-1.649,0.95
		c-1.169,0-2.068-0.99-2.068-2.459c-0.01-1.609,0.989-2.599,2.169-2.599c0.739,0,1.239,0.35,1.459,0.739h0.021v-2.888H231.42z
		 M230.541,250.234c0-0.11-0.011-0.26-0.041-0.37c-0.129-0.56-0.609-1.02-1.269-1.02c-0.909,0-1.449,0.8-1.449,1.869
		c0,0.979,0.479,1.789,1.429,1.789c0.59,0,1.13-0.39,1.289-1.05c0.03-0.119,0.041-0.239,0.041-0.38V250.234z"/>
	<path d="M232.353,254.312c0.71-0.989,1.259-2.288,1.259-4.088c0-1.788-0.539-3.067-1.259-4.058h0.68c0.64,0.82,1.31,2.1,1.31,4.068
		c0,1.959-0.67,3.228-1.31,4.077H232.353z"/>
</g>
<g enable-background="new    ">
	<path d="M151.103,262.074v0.649h-2.469v-0.649H151.103z"/>
	<path d="M158.301,263.783c0,0.5,0.011,0.939,0.041,1.319h-0.78l-0.05-0.79h-0.02c-0.23,0.391-0.74,0.9-1.6,0.9
		c-0.76,0-1.669-0.42-1.669-2.119v-2.828h0.88v2.678c0,0.92,0.279,1.539,1.079,1.539c0.589,0,0.999-0.409,1.159-0.799
		c0.05-0.13,0.08-0.29,0.08-0.45v-2.968h0.879V263.783z"/>
	<path d="M159.644,264.203c0.26,0.17,0.72,0.35,1.159,0.35c0.64,0,0.939-0.319,0.939-0.72c0-0.42-0.25-0.649-0.899-0.89
		c-0.87-0.31-1.279-0.789-1.279-1.369c0-0.779,0.63-1.419,1.669-1.419c0.49,0,0.92,0.14,1.189,0.3l-0.22,0.64
		c-0.19-0.12-0.54-0.28-0.989-0.28c-0.52,0-0.811,0.3-0.811,0.66c0,0.399,0.291,0.58,0.92,0.819c0.84,0.32,1.27,0.739,1.27,1.459
		c0,0.85-0.66,1.449-1.809,1.449c-0.53,0-1.02-0.13-1.359-0.329L159.644,264.203z"/>
	<path d="M164.213,262.844c0.02,1.189,0.779,1.679,1.659,1.679c0.63,0,1.009-0.109,1.339-0.249l0.15,0.629
		c-0.311,0.141-0.84,0.3-1.609,0.3c-1.488,0-2.379-0.979-2.379-2.438s0.859-2.608,2.27-2.608c1.578,0,1.998,1.39,1.998,2.278
		c0,0.181-0.02,0.32-0.029,0.41H164.213z M166.791,262.214c0.011-0.56-0.229-1.429-1.219-1.429c-0.89,0-1.279,0.819-1.35,1.429
		H166.791z"/>
	<path d="M168.732,261.774c0-0.569-0.01-1.06-0.039-1.509h0.77l0.029,0.949h0.041c0.219-0.649,0.749-1.06,1.339-1.06
		c0.1,0,0.17,0.01,0.249,0.03v0.829c-0.09-0.02-0.18-0.03-0.299-0.03c-0.62,0-1.06,0.47-1.18,1.13c-0.02,0.12-0.04,0.26-0.04,0.41
		v2.578h-0.87V261.774z"/>
	<path d="M176.271,265.853v0.499h-4.997v-0.499H176.271z"/>
	<path d="M177.982,258.906c0.01,0.3-0.21,0.539-0.56,0.539c-0.31,0-0.53-0.239-0.53-0.539c0-0.311,0.23-0.55,0.551-0.55
		C177.772,258.356,177.982,258.596,177.982,258.906z M177.003,265.103v-4.837h0.88v4.837H177.003z"/>
	<path d="M183.521,258.007v5.847c0,0.43,0.011,0.919,0.04,1.249h-0.789l-0.041-0.84h-0.02c-0.27,0.54-0.859,0.95-1.648,0.95
		c-1.17,0-2.069-0.99-2.069-2.459c-0.011-1.609,0.989-2.599,2.169-2.599c0.739,0,1.239,0.35,1.459,0.739h0.02v-2.888H183.521z
		 M182.641,262.234c0-0.11-0.01-0.26-0.039-0.37c-0.131-0.56-0.61-1.02-1.27-1.02c-0.91,0-1.449,0.8-1.449,1.869
		c0,0.979,0.479,1.789,1.43,1.789c0.589,0,1.129-0.39,1.289-1.05c0.029-0.119,0.039-0.239,0.039-0.38V262.234z"/>
</g>
<g enable-background="new    ">
	<path d="M151.103,274.074v0.649h-2.469v-0.649H151.103z"/>
	<path d="M157.701,276.923c-0.229,0.12-0.739,0.279-1.389,0.279c-1.459,0-2.408-0.989-2.408-2.469c0-1.488,1.02-2.568,2.598-2.568
		c0.52,0,0.98,0.13,1.22,0.25l-0.2,0.68c-0.209-0.12-0.539-0.229-1.02-0.229c-1.109,0-1.709,0.819-1.709,1.829
		c0,1.119,0.72,1.809,1.68,1.809c0.5,0,0.829-0.13,1.079-0.24L157.701,276.923z"/>
	<path d="M162.781,275.783c0,0.5,0.01,0.939,0.04,1.319h-0.78l-0.049-0.79h-0.021c-0.229,0.391-0.739,0.9-1.599,0.9
		c-0.76,0-1.67-0.42-1.67-2.119v-2.828h0.88v2.678c0,0.92,0.28,1.539,1.079,1.539c0.59,0,1-0.409,1.16-0.799
		c0.049-0.13,0.08-0.29,0.08-0.45v-2.968h0.879V275.783z"/>
	<path d="M164.123,276.203c0.26,0.17,0.72,0.35,1.16,0.35c0.639,0,0.939-0.319,0.939-0.72c0-0.42-0.25-0.649-0.9-0.89
		c-0.869-0.31-1.279-0.789-1.279-1.369c0-0.779,0.63-1.419,1.67-1.419c0.489,0,0.919,0.14,1.189,0.3l-0.221,0.64
		c-0.189-0.12-0.539-0.28-0.989-0.28c-0.52,0-0.81,0.3-0.81,0.66c0,0.399,0.29,0.58,0.92,0.819c0.84,0.32,1.27,0.739,1.27,1.459
		c0,0.85-0.66,1.449-1.81,1.449c-0.53,0-1.02-0.13-1.359-0.329L164.123,276.203z"/>
	<path d="M169.263,270.876v1.39h1.259v0.669h-1.259v2.608c0,0.601,0.17,0.939,0.659,0.939c0.23,0,0.4-0.029,0.51-0.06l0.041,0.66
		c-0.17,0.069-0.44,0.119-0.78,0.119c-0.409,0-0.739-0.13-0.949-0.369c-0.25-0.26-0.34-0.689-0.34-1.26v-2.639h-0.75v-0.669h0.75
		v-1.16L169.263,270.876z"/>
	<path d="M175.831,274.644c0,1.789-1.239,2.569-2.409,2.569c-1.309,0-2.318-0.96-2.318-2.489c0-1.619,1.06-2.568,2.398-2.568
		C174.891,272.155,175.831,273.165,175.831,274.644z M171.993,274.694c0,1.059,0.609,1.858,1.469,1.858
		c0.84,0,1.47-0.789,1.47-1.879c0-0.819-0.41-1.859-1.449-1.859S171.993,273.774,171.993,274.694z"/>
	<path d="M176.943,273.574c0-0.499-0.01-0.909-0.04-1.309h0.77l0.04,0.779h0.03c0.27-0.46,0.72-0.89,1.519-0.89
		c0.66,0,1.16,0.399,1.369,0.97h0.021c0.149-0.271,0.34-0.48,0.54-0.63c0.289-0.22,0.609-0.34,1.069-0.34
		c0.64,0,1.589,0.42,1.589,2.099v2.849h-0.859v-2.738c0-0.93-0.34-1.489-1.049-1.489c-0.5,0-0.891,0.37-1.04,0.8
		c-0.04,0.119-0.069,0.279-0.069,0.439v2.988h-0.86v-2.898c0-0.77-0.34-1.329-1.009-1.329c-0.551,0-0.95,0.439-1.09,0.879
		c-0.051,0.131-0.07,0.28-0.07,0.431v2.918h-0.859V273.574z"/>
	<path d="M185.773,274.844c0.02,1.189,0.779,1.679,1.658,1.679c0.631,0,1.01-0.109,1.34-0.249l0.15,0.629
		c-0.311,0.141-0.84,0.3-1.609,0.3c-1.489,0-2.379-0.979-2.379-2.438s0.859-2.608,2.269-2.608c1.579,0,1.999,1.39,1.999,2.278
		c0,0.181-0.02,0.32-0.029,0.41H185.773z M188.352,274.214c0.01-0.56-0.23-1.429-1.219-1.429c-0.891,0-1.279,0.819-1.35,1.429
		H188.352z"/>
	<path d="M190.293,273.774c0-0.569-0.01-1.06-0.04-1.509h0.77l0.03,0.949h0.04c0.22-0.649,0.749-1.06,1.339-1.06
		c0.1,0,0.17,0.01,0.25,0.03v0.829c-0.09-0.02-0.18-0.03-0.3-0.03c-0.62,0-1.06,0.47-1.179,1.13c-0.021,0.12-0.041,0.26-0.041,0.41
		v2.578h-0.869V273.774z"/>
	<path d="M197.83,277.853v0.499h-4.996v-0.499H197.83z"/>
	<path d="M199.543,270.906c0.01,0.3-0.211,0.539-0.561,0.539c-0.31,0-0.529-0.239-0.529-0.539c0-0.311,0.23-0.55,0.55-0.55
		C199.332,270.356,199.543,270.596,199.543,270.906z M198.562,277.103v-4.837h0.88v4.837H198.562z"/>
	<path d="M205.08,270.007v5.847c0,0.43,0.011,0.919,0.041,1.249h-0.79l-0.04-0.84h-0.02c-0.27,0.54-0.859,0.95-1.649,0.95
		c-1.169,0-2.069-0.99-2.069-2.459c-0.01-1.609,0.99-2.599,2.17-2.599c0.738,0,1.238,0.35,1.459,0.739h0.02v-2.888H205.08z
		 M204.201,274.234c0-0.11-0.01-0.26-0.04-0.37c-0.13-0.56-0.61-1.02-1.27-1.02c-0.909,0-1.448,0.8-1.448,1.869
		c0,0.979,0.479,1.789,1.429,1.789c0.589,0,1.13-0.39,1.289-1.05c0.03-0.119,0.04-0.239,0.04-0.38V274.234z"/>
</g>
<rect x="218.657" y="82.602" fill="#DAB0D3" width="34.331" height="17.667"/>
<g enable-background="new    ">
	<path fill="#2E3192" d="M230.174,92.483l-0.7,2.119h-0.899l2.289-6.736h1.049l2.299,6.736h-0.93l-0.719-2.119H230.174z
		 M232.382,91.804l-0.659-1.938c-0.15-0.439-0.25-0.84-0.35-1.229h-0.021c-0.101,0.399-0.21,0.81-0.34,1.22l-0.659,1.948H232.382z"
		/>
	<path fill="#2E3192" d="M235.204,87.946c0.419-0.07,0.97-0.13,1.669-0.13c0.859,0,1.489,0.2,1.889,0.56
		c0.37,0.319,0.59,0.81,0.59,1.409c0,0.609-0.18,1.09-0.52,1.439c-0.46,0.489-1.209,0.739-2.059,0.739c-0.26,0-0.5-0.01-0.7-0.06
		v2.698h-0.869V87.946z M236.073,91.194c0.19,0.05,0.431,0.07,0.72,0.07c1.049,0,1.689-0.51,1.689-1.439
		c0-0.89-0.63-1.319-1.59-1.319c-0.379,0-0.67,0.03-0.819,0.07V91.194z"/>
	<path fill="#2E3192" d="M241.393,87.866v6.736h-0.869v-6.736H241.393z"/>
</g>
<rect x="218.657" y="171.52" fill="#DAB0D3" width="34.331" height="17.668"/>
<g enable-background="new    ">
	<path fill="#2E3192" d="M230.174,181.4l-0.7,2.119h-0.899l2.289-6.736h1.049l2.299,6.736h-0.93l-0.719-2.119H230.174z
		 M232.382,180.721l-0.659-1.938c-0.15-0.439-0.25-0.84-0.35-1.229h-0.021c-0.101,0.399-0.21,0.81-0.34,1.22l-0.659,1.948H232.382z"
		/>
	<path fill="#2E3192" d="M235.204,176.863c0.419-0.07,0.97-0.13,1.669-0.13c0.859,0,1.489,0.2,1.889,0.56
		c0.37,0.319,0.59,0.81,0.59,1.409c0,0.609-0.18,1.09-0.52,1.439c-0.46,0.489-1.209,0.739-2.059,0.739c-0.26,0-0.5-0.01-0.7-0.06
		v2.698h-0.869V176.863z M236.073,180.111c0.19,0.05,0.431,0.07,0.72,0.07c1.049,0,1.689-0.51,1.689-1.439
		c0-0.89-0.63-1.319-1.59-1.319c-0.379,0-0.67,0.03-0.819,0.07V180.111z"/>
	<path fill="#2E3192" d="M241.393,176.783v6.736h-0.869v-6.736H241.393z"/>
</g>
<rect x="218.657" y="220.27" fill="#DAB0D3" width="34.331" height="17.666"/>
<g enable-background="new    ">
	<path fill="#2E3192" d="M230.174,230.15l-0.7,2.119h-0.899l2.289-6.736h1.049l2.299,6.736h-0.93l-0.719-2.119H230.174z
		 M232.382,229.471l-0.659-1.938c-0.15-0.439-0.25-0.84-0.35-1.229h-0.021c-0.101,0.399-0.21,0.81-0.34,1.22l-0.659,1.948H232.382z"
		/>
	<path fill="#2E3192" d="M235.204,225.613c0.419-0.07,0.97-0.13,1.669-0.13c0.859,0,1.489,0.2,1.889,0.56
		c0.37,0.319,0.59,0.81,0.59,1.409c0,0.609-0.18,1.09-0.52,1.439c-0.46,0.489-1.209,0.739-2.059,0.739c-0.26,0-0.5-0.01-0.7-0.06
		v2.698h-0.869V225.613z M236.073,228.861c0.19,0.05,0.431,0.07,0.72,0.07c1.049,0,1.689-0.51,1.689-1.439
		c0-0.89-0.63-1.319-1.59-1.319c-0.379,0-0.67,0.03-0.819,0.07V228.861z"/>
	<path fill="#2E3192" d="M241.393,225.533v6.736h-0.869v-6.736H241.393z"/>
</g>
<rect x="10.211" y="59.936" fill="#FEE4A1" width="53.333" height="26.667"/>
<g enable-background="new    ">
	<path fill="#2E3192" d="M18.173,69.866v3.988c0,1.509,0.67,2.148,1.569,2.148c1,0,1.639-0.66,1.639-2.148v-3.988h0.879v3.928
		c0,2.069-1.089,2.919-2.548,2.919c-1.379,0-2.419-0.79-2.419-2.879v-3.968H18.173z"/>
	<path fill="#2E3192" d="M23.654,75.543c0.39,0.24,0.959,0.439,1.559,0.439c0.89,0,1.409-0.47,1.409-1.148
		c0-0.63-0.36-0.99-1.269-1.34c-1.1-0.39-1.779-0.959-1.779-1.909c0-1.049,0.87-1.829,2.179-1.829c0.69,0,1.189,0.16,1.489,0.33
		l-0.24,0.71c-0.22-0.12-0.669-0.32-1.279-0.32c-0.919,0-1.269,0.55-1.269,1.01c0,0.63,0.41,0.939,1.339,1.299
		c1.14,0.44,1.719,0.99,1.719,1.979c0,1.039-0.77,1.938-2.359,1.938c-0.649,0-1.359-0.189-1.719-0.43L23.654,75.543z"/>
	<path fill="#2E3192" d="M32.192,73.444h-2.619v2.429h2.918v0.729h-3.788v-6.736h3.638v0.729h-2.769v2.129h2.619V73.444z"/>
	<path fill="#2E3192" d="M33.624,69.956c0.439-0.09,1.069-0.14,1.669-0.14c0.929,0,1.529,0.17,1.949,0.55
		c0.34,0.3,0.53,0.76,0.53,1.279c0,0.89-0.56,1.479-1.269,1.719v0.03c0.52,0.18,0.83,0.659,0.989,1.359
		c0.22,0.939,0.38,1.589,0.52,1.849h-0.899c-0.11-0.189-0.26-0.77-0.45-1.609c-0.2-0.93-0.56-1.279-1.349-1.309h-0.82v2.918h-0.869
		V69.956z M34.493,73.024h0.89c0.93,0,1.519-0.51,1.519-1.279c0-0.869-0.629-1.249-1.549-1.259c-0.42,0-0.72,0.04-0.86,0.079V73.024
		z"/>
	<path fill="#2E3192" d="M42.213,74.483l-0.7,2.119h-0.899l2.289-6.736h1.049l2.299,6.736h-0.93l-0.719-2.119H42.213z
		 M44.421,73.804l-0.66-1.938c-0.15-0.439-0.25-0.84-0.35-1.229h-0.02c-0.1,0.399-0.21,0.81-0.34,1.22l-0.66,1.948H44.421z"/>
	<path fill="#2E3192" d="M47.244,69.946c0.419-0.07,0.969-0.13,1.669-0.13c0.859,0,1.489,0.2,1.889,0.56
		c0.37,0.319,0.59,0.81,0.59,1.409c0,0.609-0.18,1.09-0.52,1.439c-0.46,0.489-1.209,0.739-2.059,0.739c-0.26,0-0.5-0.01-0.7-0.06
		v2.698h-0.869V69.946z M48.113,73.194c0.19,0.05,0.43,0.07,0.72,0.07c1.049,0,1.689-0.51,1.689-1.439
		c0-0.89-0.629-1.319-1.589-1.319c-0.38,0-0.67,0.03-0.82,0.07V73.194z"/>
	<path fill="#2E3192" d="M52.564,69.946c0.419-0.07,0.969-0.13,1.669-0.13c0.859,0,1.489,0.2,1.889,0.56
		c0.37,0.319,0.59,0.81,0.59,1.409c0,0.609-0.18,1.09-0.52,1.439c-0.46,0.489-1.209,0.739-2.059,0.739c-0.26,0-0.5-0.01-0.7-0.06
		v2.698h-0.869V69.946z M53.433,73.194c0.19,0.05,0.43,0.07,0.72,0.07c1.049,0,1.689-0.51,1.689-1.439
		c0-0.89-0.629-1.319-1.589-1.319c-0.38,0-0.67,0.03-0.82,0.07V73.194z"/>
</g>
<rect x="10.211" y="220.975" fill="#FEE4A1" width="53.333" height="26.668"/>
<g enable-background="new    ">
	<path fill="#2E3192" d="M18.173,230.906v3.988c0,1.509,0.67,2.148,1.569,2.148c1,0,1.639-0.66,1.639-2.148v-3.988h0.879v3.928
		c0,2.069-1.089,2.919-2.548,2.919c-1.379,0-2.419-0.79-2.419-2.879v-3.968H18.173z"/>
	<path fill="#2E3192" d="M23.654,236.583c0.39,0.24,0.959,0.439,1.559,0.439c0.89,0,1.409-0.47,1.409-1.148
		c0-0.63-0.36-0.99-1.269-1.34c-1.1-0.39-1.779-0.959-1.779-1.909c0-1.049,0.87-1.829,2.179-1.829c0.69,0,1.189,0.16,1.489,0.33
		l-0.24,0.71c-0.22-0.12-0.669-0.32-1.279-0.32c-0.919,0-1.269,0.55-1.269,1.01c0,0.63,0.41,0.939,1.339,1.299
		c1.14,0.44,1.719,0.99,1.719,1.979c0,1.039-0.77,1.938-2.359,1.938c-0.649,0-1.359-0.189-1.719-0.43L23.654,236.583z"/>
	<path fill="#2E3192" d="M32.192,234.484h-2.619v2.429h2.918v0.729h-3.788v-6.736h3.638v0.729h-2.769v2.129h2.619V234.484z"/>
	<path fill="#2E3192" d="M33.624,230.996c0.439-0.09,1.069-0.14,1.669-0.14c0.929,0,1.529,0.17,1.949,0.55
		c0.34,0.3,0.53,0.76,0.53,1.279c0,0.89-0.56,1.479-1.269,1.719v0.03c0.52,0.18,0.83,0.659,0.989,1.359
		c0.22,0.939,0.38,1.589,0.52,1.849h-0.899c-0.11-0.189-0.26-0.77-0.45-1.609c-0.2-0.93-0.56-1.279-1.349-1.309h-0.82v2.918h-0.869
		V230.996z M34.493,234.064h0.89c0.93,0,1.519-0.51,1.519-1.279c0-0.869-0.629-1.249-1.549-1.259c-0.42,0-0.72,0.04-0.86,0.079
		V234.064z"/>
	<path fill="#2E3192" d="M42.213,235.523l-0.7,2.119h-0.899l2.289-6.736h1.049l2.299,6.736h-0.93l-0.719-2.119H42.213z
		 M44.421,234.844l-0.66-1.938c-0.15-0.439-0.25-0.84-0.35-1.229h-0.02c-0.1,0.399-0.21,0.81-0.34,1.22l-0.66,1.948H44.421z"/>
	<path fill="#2E3192" d="M47.244,230.986c0.419-0.07,0.969-0.13,1.669-0.13c0.859,0,1.489,0.2,1.889,0.56
		c0.37,0.319,0.59,0.81,0.59,1.409c0,0.609-0.18,1.09-0.52,1.439c-0.46,0.489-1.209,0.739-2.059,0.739c-0.26,0-0.5-0.01-0.7-0.06
		v2.698h-0.869V230.986z M48.113,234.234c0.19,0.05,0.43,0.07,0.72,0.07c1.049,0,1.689-0.51,1.689-1.439
		c0-0.89-0.629-1.319-1.589-1.319c-0.38,0-0.67,0.03-0.82,0.07V234.234z"/>
	<path fill="#2E3192" d="M52.564,230.986c0.419-0.07,0.969-0.13,1.669-0.13c0.859,0,1.489,0.2,1.889,0.56
		c0.37,0.319,0.59,0.81,0.59,1.409c0,0.609-0.18,1.09-0.52,1.439c-0.46,0.489-1.209,0.739-2.059,0.739c-0.26,0-0.5-0.01-0.7-0.06
		v2.698h-0.869V230.986z M53.433,234.234c0.19,0.05,0.43,0.07,0.72,0.07c1.049,0,1.689-0.51,1.689-1.439
		c0-0.89-0.629-1.319-1.589-1.319c-0.38,0-0.67,0.03-0.82,0.07V234.234z"/>
</g>
</svg>
